<svg width="56" height="56" viewBox="0 0 56 56" fill="none" xmlns="http://www.w3.org/2000/svg">
<path opacity="0.2" d="M56 28C56 43.464 43.464 56 28 56C12.536 56 0 43.464 0 28C0 12.536 12.536 0 28 0C43.464 0 56 12.536 56 28Z" fill="#7BCDC8"/>
<path d="M23.1208 35.24C21.7874 35.24 20.7341 34.6734 19.9608 33.54C19.1874 32.3934 18.8008 30.74 18.8008 28.58C18.8008 26.42 19.1874 24.7934 19.9608 23.7C20.7341 22.5934 21.7874 22.04 23.1208 22.04C24.4541 22.04 25.5074 22.5934 26.2808 23.7C27.0541 24.8067 27.4408 26.4334 27.4408 28.58C27.4408 30.74 27.0541 32.3934 26.2808 33.54C25.5074 34.6734 24.4541 35.24 23.1208 35.24ZM23.1208 33.44C23.4274 33.44 23.7074 33.36 23.9608 33.2C24.2274 33.0267 24.4541 32.7467 24.6408 32.36C24.8274 31.9734 24.9741 31.4734 25.0808 30.86C25.1874 30.2467 25.2408 29.4867 25.2408 28.58C25.2408 27.6867 25.1874 26.94 25.0808 26.34C24.9741 25.7267 24.8274 25.2334 24.6408 24.86C24.4541 24.4867 24.2274 24.2267 23.9608 24.08C23.7074 23.92 23.4274 23.84 23.1208 23.84C22.8141 23.84 22.5274 23.92 22.2608 24.08C22.0074 24.2267 21.7874 24.4867 21.6008 24.86C21.4141 25.2334 21.2674 25.7267 21.1608 26.34C21.0541 26.94 21.0008 27.6867 21.0008 28.58C21.0008 29.4867 21.0541 30.2467 21.1608 30.86C21.2674 31.4734 21.4141 31.9734 21.6008 32.36C21.7874 32.7467 22.0074 33.0267 22.2608 33.2C22.5274 33.36 22.8141 33.44 23.1208 33.44Z" fill="#2FA5AD"/>
<path d="M29.3347 35V33.12H32.1747V24.76H29.8347V23.32C30.4747 23.2 31.0214 23.06 31.4747 22.9C31.9414 22.7267 32.3747 22.52 32.7747 22.28H34.4947V33.12H36.9947V35H29.3347Z" fill="#2FA5AD"/>
</svg>
