<svg width="56" height="56" viewBox="0 0 56 56" fill="none" xmlns="http://www.w3.org/2000/svg">
<path opacity="0.29" d="M56 28C56 43.464 43.464 56 28 56C12.536 56 0 43.464 0 28C0 12.536 12.536 0 28 0C43.464 0 56 12.536 56 28Z" fill="#F0A79C"/>
<path d="M23.1208 35.24C21.7874 35.24 20.7341 34.6734 19.9608 33.54C19.1874 32.3934 18.8008 30.74 18.8008 28.58C18.8008 26.42 19.1874 24.7934 19.9608 23.7C20.7341 22.5934 21.7874 22.04 23.1208 22.04C24.4541 22.04 25.5074 22.5934 26.2808 23.7C27.0541 24.8067 27.4408 26.4334 27.4408 28.58C27.4408 30.74 27.0541 32.3934 26.2808 33.54C25.5074 34.6734 24.4541 35.24 23.1208 35.24ZM23.1208 33.44C23.4274 33.44 23.7074 33.36 23.9608 33.2C24.2274 33.0267 24.4541 32.7467 24.6408 32.36C24.8274 31.9734 24.9741 31.4734 25.0808 30.86C25.1874 30.2467 25.2408 29.4867 25.2408 28.58C25.2408 27.6867 25.1874 26.94 25.0808 26.34C24.9741 25.7267 24.8274 25.2334 24.6408 24.86C24.4541 24.4867 24.2274 24.2267 23.9608 24.08C23.7074 23.92 23.4274 23.84 23.1208 23.84C22.8141 23.84 22.5274 23.92 22.2608 24.08C22.0074 24.2267 21.7874 24.4867 21.6008 24.86C21.4141 25.2334 21.2674 25.7267 21.1608 26.34C21.0541 26.94 21.0008 27.6867 21.0008 28.58C21.0008 29.4867 21.0541 30.2467 21.1608 30.86C21.2674 31.4734 21.4141 31.9734 21.6008 32.36C21.7874 32.7467 22.0074 33.0267 22.2608 33.2C22.5274 33.36 22.8141 33.44 23.1208 33.44Z" fill="#DC7F71"/>
<path d="M28.6147 35V33.66C29.4947 32.8067 30.288 32.02 30.9947 31.3C31.7147 30.58 32.3214 29.9134 32.8147 29.3C33.3214 28.6867 33.708 28.1134 33.9747 27.58C34.2414 27.0467 34.3747 26.54 34.3747 26.06C34.3747 25.38 34.1947 24.8467 33.8347 24.46C33.4747 24.06 32.9547 23.86 32.2747 23.86C31.7814 23.86 31.328 24 30.9147 24.28C30.5147 24.56 30.1414 24.8934 29.7947 25.28L28.5147 24C29.1014 23.3734 29.7014 22.8934 30.3147 22.56C30.9414 22.2134 31.6947 22.04 32.5747 22.04C33.188 22.04 33.7414 22.1334 34.2347 22.32C34.728 22.5067 35.148 22.7734 35.4947 23.12C35.8414 23.4534 36.108 23.86 36.2947 24.34C36.4947 24.82 36.5947 25.3534 36.5947 25.94C36.5947 26.5 36.468 27.0734 36.2147 27.66C35.9747 28.2334 35.6414 28.82 35.2147 29.42C34.8014 30.0067 34.3147 30.6134 33.7547 31.24C33.1947 31.8667 32.6014 32.5134 31.9747 33.18C32.308 33.1534 32.668 33.1267 33.0547 33.1C33.4414 33.06 33.788 33.04 34.0947 33.04H37.2147V35H28.6147Z" fill="#DC7F71"/>
</svg>
