<svg width="56" height="56" viewBox="0 0 56 56" fill="none" xmlns="http://www.w3.org/2000/svg">
<path opacity="0.2" d="M56 28C56 43.464 43.464 56 28 56C12.536 56 0 43.464 0 28C0 12.536 12.536 0 28 0C43.464 0 56 12.536 56 28Z" fill="#ECA316" fill-opacity="0.5"/>
<path d="M23.1208 35.24C21.7874 35.24 20.7341 34.6734 19.9608 33.54C19.1874 32.3934 18.8008 30.74 18.8008 28.58C18.8008 26.42 19.1874 24.7934 19.9608 23.7C20.7341 22.5934 21.7874 22.04 23.1208 22.04C24.4541 22.04 25.5074 22.5934 26.2808 23.7C27.0541 24.8067 27.4408 26.4334 27.4408 28.58C27.4408 30.74 27.0541 32.3934 26.2808 33.54C25.5074 34.6734 24.4541 35.24 23.1208 35.24ZM23.1208 33.44C23.4274 33.44 23.7074 33.36 23.9608 33.2C24.2274 33.0267 24.4541 32.7467 24.6408 32.36C24.8274 31.9734 24.9741 31.4734 25.0808 30.86C25.1874 30.2467 25.2408 29.4867 25.2408 28.58C25.2408 27.6867 25.1874 26.94 25.0808 26.34C24.9741 25.7267 24.8274 25.2334 24.6408 24.86C24.4541 24.4867 24.2274 24.2267 23.9608 24.08C23.7074 23.92 23.4274 23.84 23.1208 23.84C22.8141 23.84 22.5274 23.92 22.2608 24.08C22.0074 24.2267 21.7874 24.4867 21.6008 24.86C21.4141 25.2334 21.2674 25.7267 21.1608 26.34C21.0541 26.94 21.0008 27.6867 21.0008 28.58C21.0008 29.4867 21.0541 30.2467 21.1608 30.86C21.2674 31.4734 21.4141 31.9734 21.6008 32.36C21.7874 32.7467 22.0074 33.0267 22.2608 33.2C22.5274 33.36 22.8141 33.44 23.1208 33.44Z" fill="#ECA316"/>
<path d="M32.6547 35.24C31.6147 35.24 30.748 35.0667 30.0547 34.72C29.3614 34.3734 28.788 33.9467 28.3347 33.44L29.4347 31.96C29.8214 32.3467 30.2614 32.68 30.7547 32.96C31.248 33.2267 31.8147 33.36 32.4547 33.36C33.148 33.36 33.708 33.1934 34.1347 32.86C34.5747 32.5134 34.7947 32.04 34.7947 31.44C34.7947 31.1067 34.7347 30.8067 34.6147 30.54C34.4947 30.2734 34.288 30.0467 33.9947 29.86C33.7147 29.6734 33.3347 29.5334 32.8547 29.44C32.3747 29.3334 31.7747 29.28 31.0547 29.28V27.6C31.6814 27.6 32.2014 27.5534 32.6147 27.46C33.0414 27.3534 33.3814 27.2134 33.6347 27.04C33.9014 26.8534 34.088 26.6334 34.1947 26.38C34.3147 26.1267 34.3747 25.8534 34.3747 25.56C34.3747 25.0267 34.208 24.6134 33.8747 24.32C33.5414 24.0134 33.0814 23.86 32.4947 23.86C31.988 23.86 31.528 23.9734 31.1147 24.2C30.7147 24.4134 30.3214 24.7 29.9347 25.06L28.7547 23.64C29.3014 23.16 29.8814 22.7734 30.4947 22.48C31.1214 22.1867 31.8147 22.04 32.5747 22.04C33.188 22.04 33.748 22.1134 34.2547 22.26C34.7614 22.4067 35.1947 22.6267 35.5547 22.92C35.9147 23.2 36.1947 23.5534 36.3947 23.98C36.5947 24.3934 36.6947 24.8667 36.6947 25.4C36.6947 26.12 36.4947 26.72 36.0947 27.2C35.708 27.68 35.168 28.0534 34.4747 28.32V28.4C35.2347 28.6 35.8614 28.9667 36.3547 29.5C36.8614 30.0334 37.1147 30.72 37.1147 31.56C37.1147 32.1467 36.9947 32.6667 36.7547 33.12C36.528 33.5734 36.208 33.96 35.7947 34.28C35.3947 34.5867 34.9214 34.8267 34.3747 35C33.8414 35.16 33.268 35.24 32.6547 35.24Z" fill="#ECA316"/>
</svg>
