<svg width="32" height="32" viewBox="0 0 32 32" fill="none" xmlns="http://www.w3.org/2000/svg">
<path fill-rule="evenodd" clip-rule="evenodd" d="M25.8735 7.02869C25.7928 6.83357 25.6734 6.65067 25.5154 6.4917C25.513 6.48933 25.5107 6.48698 25.5083 6.48463C25.207 6.18509 24.7918 6 24.3333 6H24.333H7.66667C6.74619 6 6 6.74619 6 7.66667C6 8.58714 6.74619 9.33333 7.66667 9.33333H20.3096L6.48816 23.1548C5.83728 23.8057 5.83728 24.861 6.48816 25.5118C7.13903 26.1627 8.1943 26.1627 8.84518 25.5118L22.6667 11.6904V24.3333C22.6667 25.2538 23.4129 26 24.3333 26C25.2538 26 26 25.2538 26 24.3333V7.66782V7.66667C26 7.665 26 7.66333 26 7.66167C25.9993 7.43751 25.9544 7.22376 25.8735 7.02869Z" fill="#286AC3"/>
</svg>
