<svg width="244" height="316" viewBox="0 0 244 316" fill="none" xmlns="http://www.w3.org/2000/svg">
<mask id="mask0" mask-type="alpha" maskUnits="userSpaceOnUse" x="0" y="0" width="244" height="316">
<rect width="244" height="316" fill="#C4C4C4"/>
</mask>
<g mask="url(#mask0)">
<rect y="-56" width="243.097" height="526.385" fill="white"/>
<path d="M114.093 270.722C114.093 272.154 112.932 273.315 111.5 273.315C110.068 273.315 108.907 272.154 108.907 270.722C108.907 269.29 110.068 268.129 111.5 268.129C112.932 268.129 114.093 269.29 114.093 270.722Z" fill="#00DD88"/>
<path fill-rule="evenodd" clip-rule="evenodd" d="M111.5 273.963C113.29 273.963 114.742 272.512 114.742 270.722C114.742 268.932 113.29 267.481 111.5 267.481C109.71 267.481 108.259 268.932 108.259 270.722C108.259 272.512 109.71 273.963 111.5 273.963ZM111.5 274.611C113.649 274.611 115.39 272.87 115.39 270.722C115.39 268.574 113.649 266.832 111.5 266.832C109.352 266.832 107.611 268.574 107.611 270.722C107.611 272.87 109.352 274.611 111.5 274.611Z" fill="#00DD88"/>
<path d="M124.465 270.722C124.465 272.154 123.304 273.315 121.872 273.315C120.44 273.315 119.279 272.154 119.279 270.722C119.279 269.29 120.44 268.129 121.872 268.129C123.304 268.129 124.465 269.29 124.465 270.722Z" fill="#212121"/>
<path d="M134.838 270.722C134.838 272.154 133.677 273.315 132.245 273.315C130.813 273.315 129.652 272.154 129.652 270.722C129.652 269.29 130.813 268.129 132.245 268.129C133.677 268.129 134.838 269.29 134.838 270.722Z" fill="#212121"/>
<path d="M210.886 238.63H208.106L209.579 236.888C210.357 235.975 210.741 235.405 210.741 234.565C210.741 233.548 209.963 232.77 208.739 232.77C207.66 232.77 206.986 233.341 206.457 234.212L207.266 234.772C207.795 233.994 208.241 233.766 208.749 233.766C209.34 233.766 209.755 234.077 209.755 234.689C209.755 235.239 209.444 235.56 208.594 236.546L206.664 238.796V239.605H210.886V238.63Z" fill="#999999"/>
<path d="M216.672 235.457C217.118 235.457 217.491 235.654 217.491 236.369V239.605H218.528V236.587C218.528 236.452 218.528 236.328 218.518 236.203C218.84 235.778 219.379 235.457 219.908 235.457C220.354 235.457 220.727 235.654 220.727 236.369V239.605H221.765V236.587C221.765 235.508 221.661 234.44 220.23 234.44C219.524 234.44 218.902 234.751 218.383 235.311C218.207 234.793 217.823 234.44 216.993 234.44C216.319 234.44 215.718 234.731 215.209 235.239L215.043 234.544H214.255V239.605H215.292V236.193C215.614 235.768 216.143 235.457 216.672 235.457Z" fill="#999999"/>
<path d="M222.793 232.947C222.793 233.341 223.104 233.662 223.519 233.662C223.923 233.662 224.245 233.341 224.245 232.947C224.245 232.542 223.923 232.21 223.519 232.21C223.104 232.21 222.793 232.542 222.793 232.947ZM224.038 239.605V234.544H223V239.605H224.038Z" fill="#999999"/>
<path d="M227.896 235.457C228.342 235.457 228.716 235.654 228.716 236.369V239.605H229.753V236.587C229.753 235.508 229.649 234.44 228.218 234.44C227.502 234.44 226.828 234.731 226.289 235.249L226.112 234.544H225.324V239.605H226.361V236.214C226.714 235.778 227.326 235.457 227.896 235.457Z" fill="#999999"/>
<path d="M235.997 239.709C237.429 239.709 238.383 238.662 238.383 237.085C238.383 235.498 237.429 234.44 235.997 234.44C235.334 234.44 234.763 234.699 234.369 235.145L234.224 234.544H233.435V241.421H234.473V239.118C234.856 239.491 235.385 239.709 235.997 239.709ZM235.894 238.817C235.043 238.817 234.473 238.122 234.473 237.075C234.473 236.027 235.043 235.332 235.894 235.332C236.755 235.332 237.325 236.037 237.325 237.085C237.325 238.122 236.755 238.817 235.894 238.817Z" fill="#999999"/>
<path d="M241.852 234.44C240.306 234.44 239.269 235.498 239.269 237.085C239.269 238.662 240.306 239.709 241.852 239.709C243.407 239.709 244.445 238.662 244.445 237.085C244.445 235.498 243.407 234.44 241.852 234.44ZM241.852 238.713C240.939 238.713 240.327 238.06 240.327 237.075C240.327 236.089 240.939 235.436 241.852 235.436C242.775 235.436 243.387 236.1 243.387 237.085C243.387 238.06 242.775 238.713 241.852 238.713Z" fill="#999999"/>
<path d="M247.913 235.467H248.234V234.533C248.131 234.471 247.934 234.44 247.726 234.44C247.228 234.44 246.72 234.793 246.43 235.125L246.326 234.544H245.538V239.605H246.575V235.986C246.793 235.633 247.176 235.467 247.913 235.467Z" fill="#999999"/>
<path d="M256.14 234.544H255.352L255.207 235.145C254.813 234.699 254.242 234.44 253.578 234.44C252.147 234.44 251.193 235.498 251.193 237.085C251.193 238.662 252.147 239.709 253.578 239.709C254.19 239.709 254.719 239.491 255.103 239.118V241.421H256.14V234.544ZM253.682 238.817C252.821 238.817 252.251 238.122 252.251 237.085C252.251 236.037 252.821 235.332 253.682 235.332C254.533 235.332 255.103 236.027 255.103 237.075C255.103 238.122 254.533 238.817 253.682 238.817Z" fill="#999999"/>
<path d="M261.03 239.605H261.818V234.544H260.781V237.935C260.428 238.371 259.816 238.693 259.246 238.693C258.8 238.693 258.427 238.496 258.427 237.78V234.544H257.389V237.562C257.389 238.641 257.503 239.709 259.028 239.709C259.702 239.709 260.345 239.419 260.864 238.91L261.03 239.605Z" fill="#999999"/>
<path d="M267.568 238.402L266.79 237.915C266.458 238.433 266.084 238.817 265.265 238.817C264.404 238.817 263.937 238.257 263.865 237.375H267.734C267.744 237.272 267.754 237.189 267.754 237.085C267.754 235.498 266.759 234.44 265.265 234.44C263.782 234.44 262.786 235.498 262.786 237.085C262.786 238.662 263.782 239.709 265.265 239.709C266.385 239.709 267.101 239.273 267.568 238.402ZM265.265 235.28C266.033 235.28 266.489 235.757 266.634 236.483H263.896C264.052 235.757 264.508 235.28 265.265 235.28Z" fill="#999999"/>
<path d="M269.857 237.479C270.656 237.687 270.873 237.904 270.873 238.226C270.873 238.527 270.573 238.817 270.178 238.817C269.629 238.817 269.338 238.599 268.955 238.091L268.166 238.61C268.612 239.408 269.349 239.709 270.054 239.709C270.998 239.709 271.859 239.108 271.859 238.112C271.859 237.355 271.392 236.95 270.178 236.66C269.463 236.494 269.245 236.224 269.245 235.923C269.245 235.581 269.577 235.374 269.93 235.374C270.49 235.374 270.863 235.674 271.06 235.923L271.859 235.332C271.516 234.855 270.894 234.44 270.044 234.44C268.955 234.44 268.301 235.125 268.301 235.954C268.301 236.888 268.861 237.22 269.857 237.479Z" fill="#999999"/>
<path d="M275.165 239.595V238.63C275.02 238.672 274.854 238.703 274.615 238.703C274.315 238.703 274.086 238.516 274.086 238.122V235.498H275.061V234.544H274.086V233.403H273.246L273.112 234.544H272.271V235.498H273.049V238.101C273.049 239.201 273.599 239.699 274.491 239.699C274.802 239.699 274.947 239.647 275.165 239.595Z" fill="#999999"/>
<path d="M278.594 233.693C279.258 233.693 279.569 233.258 279.818 232.76L279.123 232.418C278.926 232.739 278.802 232.947 278.48 232.947C278.034 232.947 277.93 232.563 277.308 232.563C276.644 232.563 276.333 232.978 276.084 233.475L276.779 233.818C276.976 233.496 277.101 233.351 277.422 233.351C277.868 233.351 277.972 233.693 278.594 233.693ZM279.165 239.605H279.912V236.525C279.912 235.228 279.289 234.44 278.096 234.44C277.308 234.44 276.893 234.585 276.219 234.855L276.53 235.654C277.028 235.436 277.505 235.353 277.889 235.353C278.615 235.353 278.874 235.788 278.874 236.214V236.618C278.615 236.432 278.242 236.286 277.702 236.286C276.696 236.286 275.794 236.961 275.794 238.018C275.794 239.004 276.603 239.751 277.682 239.751C278.211 239.751 278.688 239.502 279.03 239.128L279.165 239.605ZM276.852 238.018C276.852 237.583 277.298 237.209 277.92 237.209C278.542 237.209 278.926 237.583 278.926 238.018C278.916 238.454 278.532 238.827 277.92 238.827C277.298 238.827 276.852 238.454 276.852 238.018Z" fill="#999999"/>
<path d="M283.407 234.44C281.862 234.44 280.824 235.498 280.824 237.085C280.824 238.662 281.862 239.709 283.407 239.709C284.963 239.709 286 238.662 286 237.085C286 235.498 284.963 234.44 283.407 234.44ZM283.407 238.713C282.494 238.713 281.882 238.06 281.882 237.075C281.882 236.089 282.494 235.436 283.407 235.436C284.33 235.436 284.942 236.1 284.942 237.085C284.942 238.06 284.33 238.713 283.407 238.713Z" fill="#999999"/>
<path d="M209.392 127.457C211.487 127.457 213.033 126.16 213.033 123.837C213.033 121.576 211.498 120.196 209.403 120.196H206.976V127.457H209.392ZM209.351 121.524C210.554 121.524 211.519 122.312 211.519 123.837C211.519 125.434 210.544 126.129 209.34 126.129H208.448V121.524H209.351Z" fill="#999999"/>
<path d="M219.847 124.49V120.196H218.375V124.335C218.375 125.59 217.825 126.098 216.902 126.098C215.979 126.098 215.429 125.59 215.429 124.335V120.196H213.956V124.49C213.956 126.513 215.118 127.612 216.902 127.612C218.696 127.612 219.847 126.513 219.847 124.49Z" fill="#999999"/>
<path d="M224.909 127.457H226.517L225.034 124.77C225.936 124.439 226.423 123.692 226.423 122.592C226.423 121.036 225.469 120.196 223.716 120.196H221.144V127.457H222.617V124.978H223.54L224.909 127.457ZM223.82 121.586C224.588 121.586 225.013 121.949 225.013 122.592C225.013 123.225 224.588 123.588 223.82 123.588H222.617V121.586H223.82Z" fill="#999999"/>
<path d="M232.212 127.457H233.664L231.019 120.196H229.204L226.601 127.457H228.053L228.592 125.963H231.673L232.212 127.457ZM229.09 124.573L230.138 121.69L231.175 124.573H229.09Z" fill="#999999"/>
<path d="M238.632 128.93C238.632 128.401 238.29 128.058 237.657 127.955L237.751 127.592C239.203 127.457 240.364 126.606 240.696 125.258L239.286 124.833C239.047 125.683 238.249 126.202 237.336 126.202C235.894 126.202 235.127 124.999 235.127 123.827C235.127 122.655 235.894 121.451 237.336 121.451C238.249 121.451 239.047 121.97 239.286 122.82L240.696 122.395C240.333 120.912 238.975 120.041 237.315 120.041C235.241 120.041 233.612 121.617 233.612 123.827C233.612 125.901 235.044 127.415 236.931 127.592L236.682 128.577H237.118C237.585 128.577 237.823 128.701 237.823 128.888C237.823 129.064 237.647 129.189 237.253 129.189C237.035 129.189 236.755 129.085 236.589 128.982L236.205 129.604C236.485 129.822 236.942 129.977 237.315 129.977C238.093 129.977 238.632 129.552 238.632 128.93Z" fill="#999999"/>
<path d="M244.767 119.439C245.482 119.439 245.804 118.952 246.042 118.412L245.192 117.977C245.026 118.246 244.901 118.495 244.621 118.495C244.175 118.495 243.895 118.039 243.273 118.039C242.557 118.039 242.236 118.526 241.997 119.066L242.848 119.501C243.014 119.232 243.138 118.983 243.418 118.983C243.864 118.983 244.144 119.439 244.767 119.439ZM246.208 127.457H247.66L245.016 120.196H243.2L240.597 127.457H242.049L242.588 125.963H245.669L246.208 127.457ZM243.086 124.573L244.134 121.69L245.171 124.573H243.086Z" fill="#999999"/>
<path d="M247.609 123.837C247.609 126.202 249.341 127.612 251.332 127.612C253.282 127.612 255.066 126.202 255.066 123.837C255.066 121.451 253.282 120.03 251.332 120.051C249.341 120.03 247.609 121.451 247.609 123.837ZM249.123 123.827C249.123 122.167 250.202 121.441 251.332 121.462C252.421 121.441 253.552 122.167 253.552 123.847C253.552 125.486 252.421 126.202 251.332 126.202C250.202 126.202 249.123 125.486 249.123 123.827Z" fill="#999999"/>
<path d="M221.215 215.393H220.421C220.188 216.116 219.593 216.583 218.601 216.583V217.703C219.266 217.703 219.745 217.54 220.048 217.318V222.978H221.215V215.393Z" fill="#00C974"/>
<path d="M227.82 219.209C227.82 216.782 226.781 215.276 225.113 215.276C223.444 215.276 222.406 216.782 222.406 219.209C222.406 221.636 223.444 223.129 225.113 223.129C226.781 223.129 227.82 221.636 227.82 219.209ZM226.641 219.209C226.641 220.772 226.175 222.009 225.113 222.009C224.004 222.009 223.572 220.772 223.572 219.209C223.572 217.785 224.004 216.396 225.113 216.396C226.175 216.396 226.641 217.785 226.641 219.209Z" fill="#00C974"/>
<path d="M234.189 218.31C234.69 218.31 235.11 218.532 235.11 219.337V222.978H236.277V219.582C236.277 219.43 236.277 219.29 236.266 219.15C236.627 218.672 237.234 218.31 237.829 218.31C238.331 218.31 238.751 218.532 238.751 219.337V222.978H239.918V219.582C239.918 218.368 239.801 217.167 238.191 217.167C237.398 217.167 236.697 217.517 236.114 218.147C235.916 217.563 235.484 217.167 234.55 217.167C233.792 217.167 233.115 217.493 232.543 218.065L232.357 217.283H231.47V222.978H232.637V219.139C232.998 218.66 233.594 218.31 234.189 218.31Z" fill="#00C974"/>
<path d="M240.978 215.486C240.978 215.93 241.328 216.291 241.794 216.291C242.249 216.291 242.611 215.93 242.611 215.486C242.611 215.031 242.249 214.658 241.794 214.658C241.328 214.658 240.978 215.031 240.978 215.486ZM242.378 222.978V217.283H241.211V222.978H242.378Z" fill="#00C974"/>
<path d="M246.622 218.31C247.124 218.31 247.544 218.532 247.544 219.337V222.978H248.71V219.582C248.71 218.368 248.594 217.167 246.984 217.167C246.178 217.167 245.42 217.493 244.813 218.077L244.615 217.283H243.728V222.978H244.895V219.162C245.292 218.672 245.98 218.31 246.622 218.31Z" fill="#00C974"/>
<path d="M209.028 214.688H212.601V219.451H215.483L210.814 224.12L206.146 219.451H209.028V214.688Z" fill="#00C974"/>
<path d="M230.697 174.704C230.697 168.636 225.889 164.856 220.475 164.856C218.655 164.856 216.974 165.416 215.667 166.302V159.535H229.016V153.28H209.506V172.323L213.987 173.49C215.341 171.81 217.348 170.596 219.635 170.596C222.715 170.596 224.489 172.277 224.489 175.031C224.489 177.784 222.715 179.465 219.635 179.465C217.161 179.465 214.874 178.111 213.614 176.291L209.413 180.025C211.327 183.199 214.827 185.206 219.355 185.206C225.749 185.206 230.697 180.912 230.697 174.704Z" fill="#212121"/>
<path d="M256.238 175.684C256.238 172.697 254.557 169.803 251.01 168.263C254.184 166.722 255.537 164.202 255.537 161.635C255.537 156.781 251.617 152.673 244.709 152.673C237.661 152.673 233.787 156.734 233.787 161.635C233.787 164.202 235.141 166.722 238.315 168.263C234.767 169.71 233.087 172.603 233.087 175.591C233.087 180.912 237.241 185.159 244.709 185.159C252.13 185.159 256.238 180.772 256.238 175.684ZM248.91 162.008C248.91 164.015 247.229 166.022 244.709 166.022C242.049 166.022 240.415 164.015 240.415 162.008C240.415 159.908 242.049 158.088 244.709 158.088C247.229 158.088 248.91 159.955 248.91 162.008ZM239.715 175.451C239.715 173.164 241.582 171.017 244.709 171.017C247.649 171.017 249.516 173.257 249.516 175.451C249.516 177.691 247.649 179.698 244.709 179.698C241.628 179.698 239.715 177.784 239.715 175.451Z" fill="#212121"/>
<path d="M23.0002 238.957H24.0581L21.5377 231.904H20.1271L17.6067 238.957H18.6646L19.2559 237.36H22.409L23.0002 238.957ZM19.65 236.281L20.8324 233.055L22.0148 236.281H19.65Z" fill="#999999"/>
<path d="M29.1388 237.588L28.2779 237.163C27.946 237.744 27.6452 238.127 26.8258 238.169C25.8612 238.169 25.3218 237.464 25.3218 236.416C25.3218 235.358 25.8612 234.663 26.8258 234.684C27.6452 234.705 27.946 235.088 28.2779 235.69L29.1388 235.265C28.6824 234.207 27.863 233.792 26.7428 233.792C25.3011 233.792 24.2639 234.954 24.2639 236.426C24.2639 237.899 25.1974 239.061 26.7428 239.061C27.863 239.061 28.6824 238.625 29.1388 237.588Z" fill="#999999"/>
<path d="M34.3875 237.754L33.6096 237.267C33.2777 237.785 32.9043 238.169 32.0849 238.169C31.224 238.169 30.7572 237.609 30.6846 236.727H34.5534C34.5638 236.623 34.5742 236.54 34.5742 236.437C34.5742 234.85 33.5785 233.792 32.0849 233.792C30.6017 233.792 29.6059 234.85 29.6059 236.437C29.6059 238.013 30.6017 239.061 32.0849 239.061C33.2051 239.061 33.9207 238.625 34.3875 237.754ZM32.0849 234.632C32.8524 234.632 33.3088 235.109 33.454 235.835H30.7158C30.8713 235.109 31.3277 234.632 32.0849 234.632Z" fill="#999999"/>
<path d="M37.7762 234.819H38.0977V233.885C37.994 233.823 37.7969 233.792 37.5895 233.792C37.0916 233.792 36.5834 234.145 36.293 234.476L36.1892 233.896H35.401V238.957H36.4382V235.337C36.656 234.985 37.0397 234.819 37.7762 234.819Z" fill="#999999"/>
<path d="M41.4887 238.947V237.982C41.3434 238.024 41.1775 238.055 40.9389 238.055C40.6381 238.055 40.41 237.868 40.41 237.474V234.85H41.3849V233.896H40.41V232.755H39.5698L39.435 233.896H38.5948V234.85H39.3727V237.453C39.3727 238.553 39.9225 239.051 40.8145 239.051C41.1256 239.051 41.2708 238.999 41.4887 238.947Z" fill="#999999"/>
<path d="M44.7227 233.792C43.1772 233.792 42.14 234.85 42.14 236.437C42.14 238.013 43.1772 239.061 44.7227 239.061C46.2785 239.061 47.3157 238.013 47.3157 236.437C47.3157 234.85 46.2785 233.792 44.7227 233.792ZM44.7227 238.065C43.8099 238.065 43.198 237.412 43.198 236.426C43.198 235.441 43.8099 234.788 44.7227 234.788C45.6458 234.788 46.2577 235.451 46.2577 236.437C46.2577 237.412 45.6458 238.065 44.7227 238.065Z" fill="#999999"/>
<path d="M51.9771 238.957H52.7654V233.896H51.7282V237.287C51.3756 237.723 50.7636 238.044 50.1931 238.044C49.7471 238.044 49.3737 237.847 49.3737 237.132V233.896H48.3365V236.914C48.3365 237.993 48.4506 239.061 49.9753 239.061C50.6495 239.061 51.2926 238.77 51.8112 238.262L51.9771 238.957Z" fill="#999999"/>
<path d="M61.0531 236.769C61.0531 235.617 59.9951 234.663 58.9475 234.663C58.3045 234.663 57.6614 234.902 57.2154 235.306C57.4228 233.771 58.0866 233.087 58.9786 233.087C59.5076 233.087 59.9121 233.211 60.41 233.564L60.9701 232.786C60.3063 232.257 59.8395 232.112 58.9683 232.112C57.3087 232.112 56.1885 233.699 56.1885 235.68C56.1885 237.91 57.1843 239.061 58.7297 239.061C60.0885 239.061 61.0531 238.117 61.0531 236.769ZM57.3087 236.883C57.3087 236.157 57.8481 235.659 58.6571 235.659C59.4454 235.659 59.9744 236.157 59.9744 236.883C59.9744 237.598 59.4454 238.086 58.6571 238.086C57.8481 238.086 57.3087 237.598 57.3087 236.883Z" fill="#999999"/>
<path d="M66.3838 235.607C66.3838 233.45 65.4607 232.112 63.9774 232.112C62.4942 232.112 61.5711 233.45 61.5711 235.607C61.5711 237.764 62.4942 239.092 63.9774 239.092C65.4607 239.092 66.3838 237.764 66.3838 235.607ZM65.3362 235.607C65.3362 236.997 64.9213 238.096 63.9774 238.096C62.9921 238.096 62.6083 236.997 62.6083 235.607C62.6083 234.342 62.9921 233.107 63.9774 233.107C64.9213 233.107 65.3362 234.342 65.3362 235.607Z" fill="#999999"/>
<path d="M73.7529 238.957H74.5412V231.904H73.504V234.383C73.1202 234.01 72.5912 233.792 71.9793 233.792C70.5479 233.792 69.5937 234.839 69.5937 236.416C69.5937 238.003 70.5479 239.061 71.9793 239.061C72.6431 239.061 73.2136 238.802 73.6077 238.356L73.7529 238.957ZM72.083 234.684C72.9335 234.684 73.504 235.379 73.504 236.426C73.504 237.474 72.9335 238.169 72.083 238.169C71.2221 238.169 70.6517 237.464 70.6517 236.416C70.6517 235.379 71.2221 234.684 72.083 234.684Z" fill="#999999"/>
<path d="M80.3125 237.754L79.5346 237.267C79.2027 237.785 78.8293 238.169 78.0099 238.169C77.149 238.169 76.6822 237.609 76.6096 236.727H80.4784C80.4888 236.623 80.4992 236.54 80.4992 236.437C80.4992 234.85 79.5034 233.792 78.0099 233.792C76.5266 233.792 75.5309 234.85 75.5309 236.437C75.5309 238.013 76.5266 239.061 78.0099 239.061C79.13 239.061 79.8457 238.625 80.3125 237.754ZM78.0099 234.632C78.7774 234.632 79.2338 235.109 79.379 235.835H76.6407C76.7963 235.109 77.2527 234.632 78.0099 234.632Z" fill="#999999"/>
<path d="M88.1587 235.493C88.1587 233.263 87.163 232.112 85.6176 232.112C84.2588 232.112 83.2942 233.055 83.2942 234.404C83.2942 235.555 84.3522 236.509 85.3998 236.509C86.0428 236.509 86.6859 236.271 87.1319 235.866C86.9245 237.401 86.2606 238.086 85.3686 238.086C84.8397 238.086 84.4351 237.961 83.9373 237.609L83.3772 238.387C84.041 238.916 84.5078 239.061 85.379 239.061C87.0385 239.061 88.1587 237.474 88.1587 235.493ZM87.0386 234.29C87.0386 235.016 86.4992 235.514 85.6902 235.514C84.9019 235.514 84.3729 235.016 84.3729 234.29C84.3729 233.574 84.9019 233.087 85.6902 233.087C86.4992 233.087 87.0386 233.574 87.0386 234.29Z" fill="#999999"/>
<path d="M93.3862 236.862C93.3862 235.524 92.3594 234.694 91.2288 234.694C90.8243 234.694 90.4405 234.829 90.1397 235.026V233.211H93.0128V232.215H89.1025V236.157L89.9115 236.375C90.2642 236.001 90.7102 235.752 91.1043 235.752C91.8304 235.752 92.3282 236.188 92.3282 236.862C92.3282 237.609 91.82 238.096 91.0317 238.096C90.5754 238.096 90.0671 237.795 89.7456 237.339L88.9677 237.951C89.4137 238.656 90.119 239.102 91.1769 239.102C92.3594 239.102 93.3862 238.127 93.3862 236.862Z" fill="#999999"/>
<path d="M101.549 233.896H100.761L100.616 234.497C100.222 234.051 99.6511 233.792 98.9873 233.792C97.556 233.792 96.6017 234.85 96.6017 236.437C96.6017 238.013 97.556 239.061 98.9873 239.061C99.5993 239.061 100.128 238.843 100.512 238.47V240.772H101.549V233.896ZM99.091 238.169C98.2301 238.169 97.6597 237.474 97.6597 236.437C97.6597 235.389 98.2301 234.684 99.091 234.684C99.9415 234.684 100.512 235.379 100.512 236.426C100.512 237.474 99.9415 238.169 99.091 238.169Z" fill="#999999"/>
<path d="M106.439 238.957H107.227V233.896H106.19V237.287C105.837 237.723 105.225 238.044 104.655 238.044C104.209 238.044 103.835 237.847 103.835 237.132V233.896H102.798V236.914C102.798 237.993 102.912 239.061 104.437 239.061C105.111 239.061 105.754 238.77 106.273 238.262L106.439 238.957Z" fill="#999999"/>
<path d="M112.977 237.754L112.199 237.267C111.867 237.785 111.493 238.169 110.674 238.169C109.813 238.169 109.346 237.609 109.274 236.727H113.143C113.153 236.623 113.163 236.54 113.163 236.437C113.163 234.85 112.168 233.792 110.674 233.792C109.191 233.792 108.195 234.85 108.195 236.437C108.195 238.013 109.191 239.061 110.674 239.061C111.794 239.061 112.51 238.625 112.977 237.754ZM110.674 234.632C111.441 234.632 111.898 235.109 112.043 235.835H109.305C109.46 235.109 109.917 234.632 110.674 234.632Z" fill="#999999"/>
<path d="M115.266 236.831C116.064 237.038 116.282 237.256 116.282 237.578C116.282 237.878 115.981 238.169 115.587 238.169C115.038 238.169 114.747 237.951 114.363 237.443L113.575 237.961C114.021 238.76 114.758 239.061 115.463 239.061C116.407 239.061 117.268 238.459 117.268 237.464C117.268 236.706 116.801 236.302 115.587 236.011C114.872 235.846 114.654 235.576 114.654 235.275C114.654 234.933 114.986 234.725 115.338 234.725C115.898 234.725 116.272 235.026 116.469 235.275L117.268 234.684C116.925 234.207 116.303 233.792 115.452 233.792C114.363 233.792 113.71 234.476 113.71 235.306C113.71 236.24 114.27 236.572 115.266 236.831Z" fill="#999999"/>
<path d="M120.574 238.947V237.982C120.429 238.024 120.263 238.055 120.024 238.055C119.724 238.055 119.495 237.868 119.495 237.474V234.85H120.47V233.896H119.495V232.755H118.655L118.52 233.896H117.68V234.85H118.458V237.453C118.458 238.553 119.008 239.051 119.9 239.051C120.211 239.051 120.356 238.999 120.574 238.947Z" fill="#999999"/>
<path d="M124.451 233.045C125.115 233.045 125.426 232.609 125.675 232.112L124.98 231.769C124.783 232.091 124.659 232.298 124.337 232.298C123.891 232.298 123.787 231.914 123.165 231.914C122.501 231.914 122.19 232.329 121.941 232.827L122.636 233.17C122.833 232.848 122.958 232.703 123.279 232.703C123.725 232.703 123.829 233.045 124.451 233.045ZM123.808 233.792C122.263 233.792 121.225 234.85 121.225 236.437C121.225 238.013 122.263 239.061 123.808 239.061C125.364 239.061 126.401 238.013 126.401 236.437C126.401 234.85 125.364 233.792 123.808 233.792ZM123.808 238.065C122.895 238.065 122.283 237.412 122.283 236.426C122.283 235.441 122.895 234.788 123.808 234.788C124.731 234.788 125.343 235.451 125.343 236.437C125.343 237.412 124.731 238.065 123.808 238.065Z" fill="#999999"/>
<path d="M131.964 237.754L131.187 237.267C130.855 237.785 130.481 238.169 129.662 238.169C128.801 238.169 128.334 237.609 128.262 236.727H132.13C132.141 236.623 132.151 236.54 132.151 236.437C132.151 234.85 131.155 233.792 129.662 233.792C128.179 233.792 127.183 234.85 127.183 236.437C127.183 238.013 128.179 239.061 129.662 239.061C130.782 239.061 131.498 238.625 131.964 237.754ZM129.662 234.632C130.429 234.632 130.886 235.109 131.031 235.835H128.293C128.448 235.109 128.905 234.632 129.662 234.632Z" fill="#999999"/>
<path d="M134.254 236.831C135.052 237.038 135.27 237.256 135.27 237.578C135.27 237.878 134.969 238.169 134.575 238.169C134.025 238.169 133.735 237.951 133.351 237.443L132.563 237.961C133.009 238.76 133.745 239.061 134.451 239.061C135.395 239.061 136.255 238.459 136.255 237.464C136.255 236.706 135.789 236.302 134.575 236.011C133.86 235.846 133.642 235.576 133.642 235.275C133.642 234.933 133.974 234.725 134.326 234.725C134.886 234.725 135.26 235.026 135.457 235.275L136.255 234.684C135.913 234.207 135.291 233.792 134.44 233.792C133.351 233.792 132.698 234.476 132.698 235.306C132.698 236.24 133.258 236.572 134.254 236.831Z" fill="#999999"/>
<path d="M32.4663 214.16H31.6728C31.4395 214.883 30.8444 215.35 29.8525 215.35V216.47C30.5177 216.47 30.9961 216.307 31.2994 216.085V221.744H32.4663V214.16Z" fill="#00C974"/>
<path d="M39.0712 217.975C39.0712 215.548 38.0327 214.043 36.3641 214.043C34.6955 214.043 33.657 215.548 33.657 217.975C33.657 220.402 34.6955 221.896 36.3641 221.896C38.0327 221.896 39.0712 220.402 39.0712 217.975ZM37.8927 217.975C37.8927 219.539 37.426 220.776 36.3641 220.776C35.2556 220.776 34.8239 219.539 34.8239 217.975C34.8239 216.552 35.2556 215.163 36.3641 215.163C37.426 215.163 37.8927 216.552 37.8927 217.975Z" fill="#00C974"/>
<path d="M23.8846 222.123H20.3523V217.413H17.5029L22.1185 212.797L26.734 217.413H23.8846V222.123Z" fill="#00C974"/>
<path d="M43.594 175.593C43.594 170.179 39.1132 166.118 33.2322 166.118C30.4784 166.118 27.7246 167.098 25.6243 168.732C26.4644 162.477 29.685 159.91 33.1389 159.723C36.2661 159.77 38.0397 160.47 40.1867 162.431L43.7807 158.043C41.1202 155.289 37.6196 153.889 33.6523 153.889C24.8775 153.889 19.6033 160.704 19.6033 171.765C19.6033 180.494 24.7375 186.375 31.7853 186.375C38.9732 186.375 43.594 181.941 43.594 175.593ZM26.8378 176.106C26.8378 173.306 28.8915 171.532 32.112 171.532C35.3326 171.532 37.3396 173.306 37.3396 176.106C37.3396 178.953 35.3326 180.727 32.112 180.727C28.8915 180.727 26.8378 178.953 26.8378 176.106Z" fill="#212121"/>
<path d="M69.38 170.132C69.38 160.144 64.7125 153.889 57.1979 153.889C49.6833 153.889 44.9692 160.144 44.9692 170.132C44.9692 180.12 49.6833 186.375 57.1979 186.375C64.7125 186.375 69.38 180.12 69.38 170.132ZM62.7989 170.132C62.7989 175.873 61.1186 180.214 57.1979 180.214C53.0905 180.214 51.5036 175.873 51.5036 170.132C51.5036 164.904 53.0905 160.05 57.1979 160.05C61.1186 160.05 62.7989 164.904 62.7989 170.132Z" fill="#212121"/>
<path d="M72.5237 189.268L89.6999 154.029L84.9858 151.835L67.8096 187.075L72.5237 189.268Z" fill="#212121"/>
<path d="M113.072 168.498C113.072 159.77 107.938 153.889 100.89 153.889C93.702 153.889 89.0812 158.323 89.0812 164.671C89.0812 170.085 93.562 174.146 99.443 174.146C102.197 174.146 104.951 173.166 107.051 171.532C106.211 177.786 102.99 180.354 99.5363 180.54C96.4091 180.494 94.6355 179.793 92.4885 177.833L88.8945 182.221C91.555 184.974 95.0556 186.375 99.0229 186.375C107.798 186.375 113.072 179.56 113.072 168.498ZM105.837 164.158C105.837 166.958 103.784 168.732 100.563 168.732C97.3426 168.732 95.3356 166.958 95.3356 164.158C95.3356 161.31 97.3426 159.537 100.563 159.537C103.784 159.537 105.837 161.31 105.837 164.158Z" fill="#212121"/>
<path d="M138.113 175.92C138.113 169.852 133.306 166.071 127.892 166.071C126.071 166.071 124.391 166.631 123.084 167.518V160.75H136.433V154.496H116.923V173.539L121.404 174.706C122.757 173.026 124.764 171.812 127.051 171.812C130.132 171.812 131.906 173.492 131.906 176.246C131.906 179 130.132 180.68 127.051 180.68C124.578 180.68 122.291 179.327 121.03 177.506L116.83 181.24C118.743 184.414 122.244 186.421 126.771 186.421C133.166 186.421 138.113 182.127 138.113 175.92Z" fill="#212121"/>
<path d="M23.218 128.105H24.6701L22.0252 120.845H20.2101L17.6067 128.105H19.0588L19.5981 126.612H22.6787L23.218 128.105ZM20.096 125.222L21.1436 122.338L22.1808 125.222H20.096Z" fill="#999999"/>
<path d="M31.7023 125.906L30.2917 125.481C30.0532 126.332 29.2545 126.85 28.3418 126.85C26.9 126.85 26.1325 125.647 26.1325 124.475C26.1325 123.303 26.9 122.1 28.3418 122.1C29.2545 122.1 30.0532 122.618 30.2917 123.469L31.7023 123.044C31.3393 121.56 29.9805 120.689 28.321 120.689C26.2466 120.689 24.6182 122.266 24.6182 124.475C24.6182 126.684 26.2466 128.261 28.321 128.261C29.9805 128.261 31.3393 127.389 31.7023 125.906Z" fill="#999999"/>
<path d="M37.2381 126.715H34.1057V125.159H36.6262V123.77H34.1057V122.235H37.2381V120.845H32.6329V128.105H37.2381V126.715Z" fill="#999999"/>
<path d="M41.9932 128.105H43.6009L42.1177 125.419C43.0201 125.087 43.5076 124.34 43.5076 123.241C43.5076 121.685 42.5533 120.845 40.8004 120.845H38.2282V128.105H39.701V125.626H40.6241L41.9932 128.105ZM40.9042 122.235C41.6717 122.235 42.097 122.598 42.097 123.241C42.097 123.873 41.6717 124.236 40.9042 124.236H39.701V122.235H40.9042Z" fill="#999999"/>
<path d="M49.8351 122.235V120.845H43.757V122.235H46.0596V128.105H47.5324V122.235H49.8351Z" fill="#999999"/>
<path d="M49.9974 124.485C49.9974 126.85 51.7296 128.261 53.721 128.261C55.671 128.261 57.455 126.85 57.455 124.485C57.455 122.1 55.671 120.679 53.721 120.699C51.7296 120.679 49.9974 122.1 49.9974 124.485ZM51.5118 124.475C51.5118 122.815 52.5905 122.089 53.721 122.11C54.8101 122.089 55.9407 122.815 55.9407 124.496C55.9407 126.134 54.8101 126.85 53.721 126.85C52.5905 126.85 51.5118 126.134 51.5118 124.475Z" fill="#999999"/>
<path d="M63.3535 126.031C63.3535 124.942 62.5963 124.299 61.2998 123.915C60.0759 123.552 59.7129 123.241 59.7129 122.764C59.7129 122.162 60.2315 121.965 60.6464 121.965C61.2065 121.965 61.7251 122.152 62.1918 122.836L63.3224 122.058C62.7208 121.187 62.0362 120.689 60.636 120.689C59.1424 120.689 58.2089 121.654 58.2089 122.826C58.2089 123.894 58.7483 124.516 60.1692 124.942C61.5591 125.357 61.8288 125.74 61.8288 126.155C61.8288 126.684 61.4346 126.964 60.8745 126.964C60.1485 126.964 59.5677 126.643 59.0905 125.73L57.96 126.404C58.5201 127.68 59.4951 128.261 60.7605 128.261C62.2022 128.261 63.3535 127.4 63.3535 126.031Z" fill="#999999"/>
<path d="M71.6382 128.105H72.8518V120.845H71.3789V125.305L68.1324 120.845H66.6907V128.105H68.1636V123.375L71.6382 128.105Z" fill="#999999"/>
<path d="M73.8776 124.485C73.8776 126.85 75.6098 128.261 77.6012 128.261C79.5512 128.261 81.3352 126.85 81.3352 124.485C81.3352 122.1 79.5512 120.679 77.6012 120.699C75.6098 120.679 73.8776 122.1 73.8776 124.485ZM75.392 124.475C75.392 122.815 76.4706 122.089 77.6012 122.11C78.6903 122.089 79.8208 122.815 79.8208 124.496C79.8208 126.134 78.6903 126.85 77.6012 126.85C76.4706 126.85 75.392 126.134 75.392 124.475Z" fill="#999999"/>
<path d="M90.1972 122.235V120.845H84.1191V122.235H86.4217V128.105H87.8946V122.235H90.1972Z" fill="#999999"/>
<path d="M90.3596 124.485C90.3596 126.85 92.0917 128.261 94.0832 128.261C96.0331 128.261 97.8171 126.85 97.8171 124.485C97.8171 122.1 96.0331 120.679 94.0832 120.699C92.0917 120.679 90.3596 122.1 90.3596 124.485ZM91.8739 124.475C91.8739 122.815 92.9526 122.089 94.0832 122.11C95.1722 122.089 96.3028 122.815 96.3028 124.496C96.3028 126.134 95.1722 126.85 94.0832 126.85C92.9526 126.85 91.8739 126.134 91.8739 124.475Z" fill="#999999"/>
<path d="M104.052 122.235V120.845H97.9736V122.235H100.276V128.105H101.749V122.235H104.052Z" fill="#999999"/>
<path d="M108.987 128.105H110.439L107.794 120.845H105.979L103.375 128.105H104.827L105.367 126.612H108.447L108.987 128.105ZM105.865 125.222L106.912 122.338L107.949 125.222H105.865Z" fill="#999999"/>
<path d="M115.512 126.715H112.587V120.845H111.115V128.105H115.512V126.715Z" fill="#999999"/>
<path fill-rule="evenodd" clip-rule="evenodd" d="M17.5029 298.921C17.5029 298.742 17.648 298.597 17.8271 298.597H224.621C224.8 298.597 224.945 298.742 224.945 298.921C224.945 299.1 224.8 299.245 224.621 299.245H17.8271C17.648 299.245 17.5029 299.1 17.5029 298.921Z" fill="#E0E0E0"/>
<path d="M25.0434 47.7212H27.4549L25.2301 43.6916C26.5836 43.1938 27.3149 42.0736 27.3149 40.4244C27.3149 38.0907 25.8835 36.8305 23.2542 36.8305H19.3958V47.7212H21.605V44.0028H22.9897L25.0434 47.7212ZM23.4098 38.9153C24.5611 38.9153 25.199 39.4598 25.199 40.4244C25.199 41.3735 24.5611 41.918 23.4098 41.918H21.605V38.9153H23.4098Z" fill="#212121"/>
<path d="M35.3176 45.8387L33.6996 44.9985C33.2017 45.8231 32.4705 46.1498 31.817 46.1498C30.7279 46.1654 30.0434 45.5431 29.8722 44.5318H35.3176C35.3798 44.2051 35.3954 43.8161 35.3954 43.5205C35.3954 41.3424 34.0418 39.7399 31.6614 39.7399C29.3433 39.7399 27.7874 41.3735 27.7874 43.8317C27.7874 46.2121 29.5144 47.9235 31.817 47.9235C33.4817 47.9235 34.5086 47.2389 35.3176 45.8387ZM31.6459 41.3268C32.6572 41.3268 33.2639 41.9336 33.3417 42.9448H29.9189C30.0901 41.9336 30.6657 41.3268 31.6459 41.3268Z" fill="#212121"/>
<path d="M38.1291 44.5007C39.4671 44.8274 39.9806 45.0608 39.9806 45.5897C39.9806 46.0098 39.5916 46.2899 39.0626 46.2899C38.3314 46.2899 37.8491 46.0565 37.1179 45.2008L35.8576 46.2276C36.6044 47.3634 37.5846 47.9235 38.8293 47.9235C40.5095 47.9235 41.8009 46.9744 41.8009 45.4808C41.8009 44.0339 40.8207 43.4583 39.2027 43.0693C38.0202 42.7893 37.8646 42.5403 37.8646 42.1358C37.8646 41.6691 38.2692 41.4046 38.8915 41.4046C39.6538 41.4046 40.2139 41.7935 40.4784 42.1669L41.7231 41.0467C41.2097 40.3311 40.2762 39.7087 39.0004 39.7087C37.1801 39.7087 36.0755 40.8134 36.0755 42.1358C36.0755 43.5516 36.8534 44.1895 38.1291 44.5007Z" fill="#212121"/>
<path d="M48.0356 47.7212H49.6847V39.9421H47.6622V45.3875C47.1799 45.8387 46.542 46.1343 45.9508 46.1343C45.0795 46.1343 44.7528 45.8387 44.7528 44.7652V39.9421H42.7302V44.7029C42.7302 46.321 43.0414 47.9235 45.4685 47.9235C46.3086 47.9235 47.2265 47.5812 47.8955 46.99L48.0356 47.7212Z" fill="#212121"/>
<path d="M53.9789 45.8853C53.4499 45.8853 53.2166 45.6364 53.2166 44.9985V36.8305H51.194V45.4342C51.194 47.0678 52.0186 47.799 53.4188 47.799C53.6366 47.799 53.8233 47.7834 53.9789 47.7679V45.8853Z" fill="#212121"/>
<path d="M54.4424 41.6846H55.6092V45.4653C55.6092 47.1144 56.5583 47.8612 58.083 47.8612C58.5497 47.8612 58.9231 47.7834 59.2499 47.7056V45.9476C59.032 46.0098 58.7831 46.0565 58.4253 46.0565C57.9741 46.0565 57.6318 45.7764 57.6318 45.1852V41.6846H59.2499V39.9421H57.6318V37.9973H55.9048L55.5626 39.9421H54.4424V41.6846Z" fill="#212121"/>
<path d="M65.378 47.7212H66.9649V42.8671C66.9649 40.9223 65.9069 39.7399 63.8066 39.7399C62.6242 39.7399 61.7685 39.9888 60.7727 40.5022L61.3484 41.9958C62.173 41.5446 62.8886 41.4357 63.4643 41.4357C64.3511 41.4357 64.9423 41.8869 64.9423 42.5248V43.3338C64.5534 42.976 63.9933 42.6648 63.1531 42.6648C61.4884 42.6648 60.1193 43.6605 60.1193 45.3097C60.1193 46.8188 61.4884 47.939 63.0442 47.939C63.8999 47.939 64.7245 47.5812 65.2846 47.0366L65.378 47.7212ZM62.173 45.3097C62.173 44.6874 62.7953 44.2673 63.511 44.2673C64.2578 44.2673 64.7556 44.6874 64.7556 45.3097C64.7401 45.932 64.2422 46.3365 63.511 46.3365C62.7953 46.3365 62.173 45.932 62.173 45.3097Z" fill="#212121"/>
<path d="M74.1856 47.7212H75.8348V36.8305H73.8122V40.5644C73.2677 40.051 72.5675 39.7399 71.743 39.7399C69.627 39.7399 68.0868 41.4668 68.0868 43.8317C68.0868 46.2121 69.627 47.9235 71.743 47.9235C72.6764 47.9235 73.4544 47.4878 74.03 46.8344L74.1856 47.7212ZM71.9763 41.5446C73.1743 41.5446 73.8122 42.447 73.8122 43.8317C73.8122 45.2163 73.1743 46.1187 71.9763 46.1187C70.8717 46.1187 70.1405 45.2163 70.1405 43.8317C70.1405 42.447 70.8717 41.5446 71.9763 41.5446Z" fill="#212121"/>
<path d="M81.1018 39.7399C78.7058 39.7399 77.0722 41.4668 77.0722 43.8317C77.0722 46.2121 78.7058 47.9235 81.1018 47.9235C83.4978 47.9235 85.1469 46.2121 85.1469 43.8317C85.1469 41.4668 83.4978 39.7399 81.1018 39.7399ZM81.1018 46.1187C79.8727 46.1187 79.1259 45.2008 79.1259 43.8317C79.1259 42.4781 79.8727 41.5446 81.1018 41.5446C82.3465 41.5446 83.0932 42.4781 83.0932 43.8317C83.0932 45.2008 82.3465 46.1187 81.1018 46.1187Z" fill="#212121"/>
<path d="M95.5963 47.7212H97.2455V36.8305H95.2229V40.5644C94.6784 40.051 93.9783 39.7399 93.1537 39.7399C91.0378 39.7399 89.4975 41.4668 89.4975 43.8317C89.4975 46.2121 91.0378 47.9235 93.1537 47.9235C94.0872 47.9235 94.8651 47.4878 95.4407 46.8344L95.5963 47.7212ZM93.3871 41.5446C94.585 41.5446 95.2229 42.447 95.2229 43.8317C95.2229 45.2163 94.585 46.1187 93.3871 46.1187C92.2824 46.1187 91.5512 45.2163 91.5512 43.8317C91.5512 42.447 92.2824 41.5446 93.3871 41.5446Z" fill="#212121"/>
<path d="M102.513 39.7399C100.117 39.7399 98.483 41.4668 98.483 43.8317C98.483 46.2121 100.117 47.9235 102.513 47.9235C104.908 47.9235 106.558 46.2121 106.558 43.8317C106.558 41.4668 104.908 39.7399 102.513 39.7399ZM102.513 46.1187C101.283 46.1187 100.537 45.2008 100.537 43.8317C100.537 42.4781 101.283 41.5446 102.513 41.5446C103.757 41.5446 104.504 42.4781 104.504 43.8317C104.504 45.2008 103.757 46.1187 102.513 46.1187Z" fill="#212121"/>
<path d="M113.024 44.5007C114.362 44.8274 114.876 45.0608 114.876 45.5897C114.876 46.0098 114.487 46.2899 113.958 46.2899C113.226 46.2899 112.744 46.0565 112.013 45.2008L110.753 46.2276C111.499 47.3634 112.48 47.9235 113.724 47.9235C115.405 47.9235 116.696 46.9744 116.696 45.4808C116.696 44.0339 115.716 43.4583 114.098 43.0693C112.915 42.7893 112.76 42.5403 112.76 42.1358C112.76 41.6691 113.164 41.4046 113.786 41.4046C114.549 41.4046 115.109 41.7935 115.373 42.1669L116.618 41.0467C116.105 40.3311 115.171 39.7087 113.895 39.7087C112.075 39.7087 110.97 40.8134 110.97 42.1358C110.97 43.5516 111.748 44.1895 113.024 44.5007Z" fill="#212121"/>
<path d="M117.499 37.5617C117.499 38.2463 118.075 38.8219 118.775 38.8219C119.491 38.8219 120.051 38.2463 120.051 37.5617C120.051 36.846 119.491 36.2704 118.775 36.2704C118.075 36.2704 117.499 36.846 117.499 37.5617ZM119.802 47.7212V39.9421H117.779V47.7212H119.802Z" fill="#212121"/>
<path d="M125.364 41.5291C126.127 41.5291 126.438 41.8247 126.438 42.8982V47.7212H128.461V42.9604C128.461 42.7426 128.461 42.5248 128.445 42.307C128.912 41.8402 129.581 41.5291 130.219 41.5291C130.981 41.5291 131.292 41.8247 131.292 42.8982V47.7212H133.315V42.9604C133.315 41.3424 132.988 39.7399 130.701 39.7399C129.736 39.7399 128.756 40.1288 128.072 40.8445C127.714 40.1755 127.045 39.7399 125.847 39.7399C124.944 39.7399 124.042 40.0821 123.373 40.6889L123.233 39.9421H121.584V47.7212H123.606V42.2758C124.089 41.8402 124.727 41.5291 125.364 41.5291Z" fill="#212121"/>
<path d="M140.157 47.7212H141.806V39.9421H139.784V45.3875C139.301 45.8387 138.663 46.1343 138.072 46.1343C137.201 46.1343 136.874 45.8387 136.874 44.7652V39.9421H134.852V44.7029C134.852 46.321 135.163 47.9235 137.59 47.9235C138.43 47.9235 139.348 47.5812 140.017 46.99L140.157 47.7212Z" fill="#212121"/>
<path d="M146.1 45.8853C145.571 45.8853 145.338 45.6364 145.338 44.9985V36.8305H143.315V45.4342C143.315 47.0678 144.14 47.799 145.54 47.799C145.758 47.799 145.945 47.7834 146.1 47.7679V45.8853Z" fill="#212121"/>
<path d="M151.932 47.7212H153.519V42.8671C153.519 40.9223 152.461 39.7399 150.361 39.7399C149.179 39.7399 148.323 39.9888 147.327 40.5022L147.903 41.9958C148.728 41.5446 149.443 41.4357 150.019 41.4357C150.906 41.4357 151.497 41.8869 151.497 42.5248V43.3338C151.108 42.976 150.548 42.6648 149.708 42.6648C148.043 42.6648 146.674 43.6605 146.674 45.3097C146.674 46.8188 148.043 47.939 149.599 47.939C150.454 47.939 151.279 47.5812 151.839 47.0366L151.932 47.7212ZM148.727 45.3097C148.727 44.6874 149.35 44.2673 150.066 44.2673C150.812 44.2673 151.31 44.6874 151.31 45.3097C151.295 45.932 150.797 46.3365 150.066 46.3365C149.35 46.3365 148.727 45.932 148.727 45.3097Z" fill="#212121"/>
<path d="M160.74 47.7212H162.389V36.8305H160.367V40.5644C159.822 40.051 159.122 39.7399 158.297 39.7399C156.182 39.7399 154.641 41.4668 154.641 43.8317C154.641 46.2121 156.182 47.9235 158.297 47.9235C159.231 47.9235 160.009 47.4878 160.585 46.8344L160.74 47.7212ZM158.531 41.5446C159.729 41.5446 160.367 42.447 160.367 43.8317C160.367 45.2163 159.729 46.1187 158.531 46.1187C157.426 46.1187 156.695 45.2163 156.695 43.8317C156.695 42.447 157.426 41.5446 158.531 41.5446Z" fill="#212121"/>
<path d="M167.656 39.7399C165.26 39.7399 163.627 41.4668 163.627 43.8317C163.627 46.2121 165.26 47.9235 167.656 47.9235C170.052 47.9235 171.701 46.2121 171.701 43.8317C171.701 41.4668 170.052 39.7399 167.656 39.7399ZM167.656 46.1187C166.427 46.1187 165.68 45.2008 165.68 43.8317C165.68 42.4781 166.427 41.5446 167.656 41.5446C168.901 41.5446 169.648 42.4781 169.648 43.8317C169.648 45.2008 168.901 46.1187 167.656 46.1187Z" fill="#212121"/>
<path d="M23.0208 68.4654C26.1636 68.4654 28.4817 66.5207 28.4817 63.0356C28.4817 59.644 26.1791 57.5747 23.0364 57.5747H19.3958V68.4654H23.0208ZM22.9586 59.5662C24.7633 59.5662 26.2102 60.7486 26.2102 63.0356C26.2102 65.4316 24.7478 66.474 22.943 66.474H21.605V59.5662H22.9586Z" fill="#212121"/>
<path d="M36.8977 66.5829L35.2797 65.7428C34.7818 66.5673 34.0506 66.8941 33.3971 66.8941C32.3081 66.9096 31.6235 66.2873 31.4524 65.276H36.8977C36.96 64.9493 36.9755 64.5603 36.9755 64.2647C36.9755 62.0866 35.622 60.4841 33.2416 60.4841C30.9234 60.4841 29.3676 62.1177 29.3676 64.5759C29.3676 66.9563 31.0945 68.6677 33.3971 68.6677C35.0619 68.6677 36.0887 67.9831 36.8977 66.5829ZM33.226 62.071C34.2373 62.071 34.8441 62.6778 34.9218 63.6891H31.499C31.6702 62.6778 32.2458 62.071 33.226 62.071Z" fill="#212121"/>
<path d="M39.7093 65.2449C41.0473 65.5716 41.5607 65.805 41.5607 66.334C41.5607 66.754 41.1717 67.0341 40.6428 67.0341C39.9115 67.0341 39.4292 66.8007 38.698 65.945L37.4378 66.9719C38.1846 68.1076 39.1647 68.6677 40.4094 68.6677C42.0897 68.6677 43.381 67.7187 43.381 66.2251C43.381 64.7782 42.4008 64.2025 40.7828 63.8135C39.6004 63.5335 39.4448 63.2846 39.4448 62.8801C39.4448 62.4133 39.8493 62.1488 40.4716 62.1488C41.234 62.1488 41.7941 62.5378 42.0586 62.9112L43.3032 61.791C42.7898 61.0753 41.8563 60.453 40.5805 60.453C38.7602 60.453 37.6556 61.5576 37.6556 62.8801C37.6556 64.2959 38.4335 64.9337 39.7093 65.2449Z" fill="#212121"/>
<path d="M51.4975 66.5673L49.8172 65.6805C49.3038 66.5518 48.7126 66.863 47.9036 66.863C46.69 66.863 45.9432 65.9606 45.9432 64.5759C45.9432 63.1912 46.69 62.2888 47.9036 62.2888C48.7126 62.2888 49.3038 62.6 49.8172 63.4713L51.4975 62.5845C50.7352 61.1064 49.4749 60.4841 47.8569 60.4841C45.5387 60.4841 43.8896 62.1799 43.8896 64.5759C43.8896 66.9719 45.5387 68.6677 47.8569 68.6677C49.4749 68.6677 50.7352 68.0454 51.4975 66.5673Z" fill="#212121"/>
<path d="M55.917 60.4841C53.521 60.4841 51.8874 62.2111 51.8874 64.5759C51.8874 66.9563 53.521 68.6677 55.917 68.6677C58.313 68.6677 59.9621 66.9563 59.9621 64.5759C59.9621 62.2111 58.313 60.4841 55.917 60.4841ZM55.917 66.863C54.6879 66.863 53.9411 65.945 53.9411 64.5759C53.9411 63.2223 54.6879 62.2888 55.917 62.2888C57.1617 62.2888 57.9084 63.2223 57.9084 64.5759C57.9084 65.945 57.1617 66.863 55.917 66.863Z" fill="#212121"/>
<path d="M64.9854 62.2733C65.7477 62.2733 66.0589 62.5689 66.0589 63.6424V68.4654H68.0814V63.7046C68.0814 63.4868 68.0814 63.269 68.0659 63.0512C68.5326 62.5845 69.2016 62.2733 69.8395 62.2733C70.6019 62.2733 70.913 62.5689 70.913 63.6424V68.4654H72.9356V63.7046C72.9356 62.0866 72.6089 60.4841 70.3218 60.4841C69.3572 60.4841 68.377 60.8731 67.6925 61.5887C67.3346 60.9197 66.6656 60.4841 65.4677 60.4841C64.5653 60.4841 63.6629 60.8264 62.9939 61.4331L62.8539 60.6864H61.2047V68.4654H63.2273V63.0201C63.7096 62.5845 64.3475 62.2733 64.9854 62.2733Z" fill="#212121"/>
<path d="M78.7185 68.6677C80.8344 68.6677 82.3747 66.9407 82.3747 64.5759C82.3747 62.1955 80.8344 60.4841 78.7185 60.4841C77.785 60.4841 77.0071 60.9197 76.4314 61.5732L76.2759 60.6864H74.6267V71.1881H76.6493V67.8431C77.1938 68.3565 77.8939 68.6677 78.7185 68.6677ZM78.4851 66.863C77.2871 66.863 76.6493 65.9606 76.6493 64.5759C76.6493 63.1912 77.2871 62.2888 78.4851 62.2888C79.5897 62.2888 80.321 63.1912 80.321 64.5759C80.321 65.9606 79.5897 66.863 78.4851 66.863Z" fill="#212121"/>
<path d="M86.0859 66.6296C85.5569 66.6296 85.3235 66.3806 85.3235 65.7428V57.5747H83.301V66.1784C83.301 67.812 84.1256 68.5432 85.5258 68.5432C85.7436 68.5432 85.9303 68.5277 86.0859 68.5121V66.6296Z" fill="#212121"/>
<path d="M86.9694 58.306C86.9694 58.9905 87.5451 59.5662 88.2452 59.5662C88.9609 59.5662 89.521 58.9905 89.521 58.306C89.521 57.5903 88.9609 57.0146 88.2452 57.0146C87.5451 57.0146 86.9694 57.5903 86.9694 58.306ZM89.272 68.4654V60.6864H87.2495V68.4654H89.272Z" fill="#212121"/>
<path d="M98.1173 66.5673L96.4371 65.6805C95.9236 66.5518 95.3324 66.863 94.5234 66.863C93.3099 66.863 92.5631 65.9606 92.5631 64.5759C92.5631 63.1912 93.3099 62.2888 94.5234 62.2888C95.3324 62.2888 95.9236 62.6 96.4371 63.4713L98.1173 62.5845C97.355 61.1064 96.0948 60.4841 94.4767 60.4841C92.1586 60.4841 90.5094 62.1799 90.5094 64.5759C90.5094 66.9719 92.1586 68.6677 94.4767 68.6677C96.0948 68.6677 97.355 68.0454 98.1173 66.5673Z" fill="#212121"/>
<path d="M103.812 68.4654H105.398V63.6113C105.398 61.6665 104.34 60.4841 102.24 60.4841C101.058 60.4841 100.202 60.733 99.2063 61.2464L99.782 62.74C100.607 62.2888 101.322 62.1799 101.898 62.1799C102.785 62.1799 103.376 62.6311 103.376 63.269V64.078C102.987 63.7202 102.427 63.409 101.587 63.409C99.922 63.409 98.5529 64.4048 98.5529 66.0539C98.5529 67.5631 99.922 68.6833 101.478 68.6833C102.333 68.6833 103.158 68.3254 103.718 67.7809L103.812 68.4654ZM100.607 66.0539C100.607 65.4316 101.229 65.0115 101.945 65.0115C102.691 65.0115 103.189 65.4316 103.189 66.0539C103.174 66.6763 102.676 67.0808 101.945 67.0808C101.229 67.0808 100.607 66.6763 100.607 66.0539Z" fill="#212121"/>
<path d="M114.233 60.4841C111.837 60.4841 110.203 62.2111 110.203 64.5759C110.203 66.9563 111.837 68.6677 114.233 68.6677C116.629 68.6677 118.278 66.9563 118.278 64.5759C118.278 62.2111 116.629 60.4841 114.233 60.4841ZM114.233 66.863C113.004 66.863 112.257 65.945 112.257 64.5759C112.257 63.2223 113.004 62.2888 114.233 62.2888C115.477 62.2888 116.224 63.2223 116.224 64.5759C116.224 65.945 115.477 66.863 114.233 66.863Z" fill="#212121"/>
<path d="M130.236 66.3806H125.538V64.0469H129.319V61.9621H125.538V59.6595H130.236V57.5747H123.329V68.4654H130.236V66.3806Z" fill="#212121"/>
<path d="M135.333 62.2733C136.096 62.2733 136.407 62.5689 136.407 63.6424V68.4654H138.429V63.7046C138.429 62.0866 138.103 60.4841 135.816 60.4841C134.913 60.4841 133.964 60.8264 133.264 61.4331L133.124 60.6864H131.475V68.4654H133.497V63.0512C133.995 62.5845 134.695 62.2733 135.333 62.2733Z" fill="#212121"/>
<path d="M147.112 66.5829L145.494 65.7428C144.996 66.5673 144.264 66.8941 143.611 66.8941C142.522 66.9096 141.837 66.2873 141.666 65.276H147.112C147.174 64.9493 147.189 64.5603 147.189 64.2647C147.189 62.0866 145.836 60.4841 143.455 60.4841C141.137 60.4841 139.581 62.1177 139.581 64.5759C139.581 66.9563 141.308 68.6677 143.611 68.6677C145.276 68.6677 146.303 67.9831 147.112 66.5829ZM143.44 62.071C144.451 62.071 145.058 62.6778 145.136 63.6891H141.713C141.884 62.6778 142.46 62.071 143.44 62.071Z" fill="#212121"/>
<path d="M152.132 62.2733C152.895 62.2733 153.206 62.5689 153.206 63.6424V68.4654H155.229V63.7046C155.229 63.4868 155.229 63.269 155.213 63.0512C155.68 62.5845 156.349 62.2733 156.987 62.2733C157.749 62.2733 158.06 62.5689 158.06 63.6424V68.4654H160.083V63.7046C160.083 62.0866 159.756 60.4841 157.469 60.4841C156.504 60.4841 155.524 60.8731 154.84 61.5887C154.482 60.9197 153.813 60.4841 152.615 60.4841C151.712 60.4841 150.81 60.8264 150.141 61.4331L150.001 60.6864H148.352V68.4654H150.374V63.0201C150.857 62.5845 151.495 62.2733 152.132 62.2733Z" fill="#212121"/>
</g>
</svg>
