<svg width="244" height="316" viewBox="0 0 244 316" fill="none" xmlns="http://www.w3.org/2000/svg">
<mask id="mask0" mask-type="alpha" maskUnits="userSpaceOnUse" x="0" y="0" width="244" height="316">
<rect width="244" height="316" fill="#C4C4C4"/>
</mask>
<g mask="url(#mask0)">
<path d="M242.535 -89.5542H0V432.752H242.535V-89.5542Z" fill="white"/>
<path d="M26.4922 285.384C26.4922 287.391 25.7712 288.972 24.3291 290.127C22.8971 291.282 20.9003 291.86 18.3389 291.86C15.9791 291.86 13.8916 291.414 12.0764 290.522V286.144C13.5689 286.814 14.8295 287.284 15.8581 287.558C16.8968 287.832 17.8447 287.969 18.702 287.969C19.7305 287.969 20.5171 287.771 21.0617 287.376C21.6164 286.98 21.8937 286.393 21.8937 285.612C21.8937 285.177 21.7727 284.791 21.5306 284.457C21.2886 284.112 20.9306 283.784 20.4566 283.469C19.9928 283.155 19.0398 282.653 17.5977 281.964C16.2464 281.326 15.2329 280.713 14.5572 280.125C13.8816 279.538 13.3421 278.853 12.9387 278.073C12.5353 277.293 12.3336 276.381 12.3336 275.337C12.3336 273.371 12.9941 271.826 14.3152 270.701C15.6464 269.576 17.4817 269.014 19.8213 269.014C20.971 269.014 22.0651 269.151 23.1038 269.424C24.1526 269.698 25.2468 270.083 26.3863 270.579L24.8736 274.243C23.6937 273.756 22.7155 273.417 21.9391 273.224C21.1726 273.032 20.4163 272.935 19.6701 272.935C18.7826 272.935 18.1019 273.143 17.6279 273.559C17.154 273.974 16.917 274.517 16.917 275.185C16.917 275.6 17.0128 275.965 17.2044 276.279C17.396 276.583 17.6985 276.882 18.112 277.176C18.5355 277.46 19.5289 277.977 21.092 278.727C23.1593 279.72 24.5761 280.718 25.3425 281.721C26.109 282.714 26.4922 283.935 26.4922 285.384ZM41.1887 291.556L40.5685 289.382H40.3265C39.8323 290.172 39.1315 290.785 38.2238 291.221C37.3162 291.647 36.2826 291.86 35.1229 291.86C33.1362 291.86 31.6387 291.327 30.6302 290.264C29.6218 289.19 29.1176 287.649 29.1176 285.643V274.562H33.7312V284.488C33.7312 285.714 33.948 286.636 34.3816 287.254C34.8153 287.862 35.5061 288.166 36.454 288.166C37.7449 288.166 38.6777 287.735 39.2525 286.874C39.8273 286.003 40.1147 284.564 40.1147 282.557V274.562H44.7283V291.556H41.1887ZM58.0786 274.243C58.7038 274.243 59.2231 274.288 59.6366 274.38L59.2887 278.727C58.9155 278.625 58.4618 278.574 57.9273 278.574C56.4549 278.574 55.3053 278.955 54.4784 279.715C53.6615 280.475 53.2531 281.539 53.2531 282.907V291.556H48.6395V274.562H52.1337L52.8144 277.419H53.0414C53.5658 276.467 54.2716 275.702 55.1591 275.124C56.0566 274.537 57.0298 274.243 58.0786 274.243ZM71.1265 278.043H67.1327V291.556H62.5192V278.043H59.9779V275.808L62.5192 274.562V273.315C62.5192 271.38 62.9931 269.966 63.9411 269.075C64.8893 268.183 66.4066 267.737 68.4945 267.737C70.0874 267.737 71.5047 267.975 72.7445 268.451L71.5647 271.856C70.6373 271.562 69.7802 271.415 68.9934 271.415C68.3377 271.415 67.864 271.613 67.5716 272.008C67.2792 272.393 67.1327 272.89 67.1327 273.498V274.562H71.1265V278.043ZM85.3319 291.86C83.3453 291.86 81.7821 291.084 80.643 289.534C79.5135 287.983 78.9488 285.836 78.9488 283.089C78.9488 280.302 79.5232 278.134 80.6733 276.583C81.8325 275.023 83.426 274.243 85.4532 274.243C87.5811 274.243 89.2043 275.074 90.3241 276.735H90.4751C90.2434 275.469 90.1272 274.339 90.1272 273.346V267.904H94.7561V291.556H91.216L90.3241 289.352H90.1272C89.0785 291.024 87.4798 291.86 85.3319 291.86ZM86.9506 288.166C88.1304 288.166 88.9926 287.821 89.5373 287.133C90.0917 286.443 90.3944 285.273 90.4448 283.621V283.119C90.4448 281.296 90.1627 279.988 89.598 279.198C89.043 278.408 88.1355 278.012 86.875 278.012C85.8463 278.012 85.0447 278.453 84.4696 279.335C83.9049 280.206 83.6228 281.478 83.6228 283.15C83.6228 284.822 83.91 286.079 84.4851 286.92C85.0595 287.751 85.8818 288.166 86.9506 288.166ZM98.4556 270.169C98.4556 268.659 99.2927 267.904 100.966 267.904C102.64 267.904 103.477 268.659 103.477 270.169C103.477 270.889 103.266 271.451 102.842 271.856C102.429 272.251 101.803 272.449 100.966 272.449C99.2927 272.449 98.4556 271.689 98.4556 270.169ZM103.266 291.556H98.6518V274.562H103.266V291.556ZM116.54 278.043H112.547V291.556H107.933V278.043H105.392V275.808L107.933 274.562V273.315C107.933 271.38 108.407 269.966 109.355 269.075C110.303 268.183 111.821 267.737 113.908 267.737C115.501 267.737 116.919 267.975 118.159 268.451L116.979 271.856C116.051 271.562 115.194 271.415 114.407 271.415C113.752 271.415 113.278 271.613 112.986 272.008C112.693 272.393 112.547 272.89 112.547 273.498V274.562H116.54V278.043ZM122.887 291.556H118.273V274.562H122.887V291.556ZM118.046 272.692V272.282C119.781 270.255 120.965 268.73 121.601 267.707H126.774V268.026C126.25 268.553 125.352 269.338 124.082 270.382C122.821 271.415 121.833 272.186 121.117 272.692H118.046ZM133.681 291.86C128.417 291.86 125.785 288.956 125.785 283.15C125.785 280.262 126.5 278.058 127.933 276.538C129.365 275.008 131.416 274.243 134.089 274.243C136.045 274.243 137.8 274.627 139.353 275.398L137.992 278.985C137.266 278.691 136.59 278.453 135.965 278.271C135.339 278.078 134.714 277.982 134.089 277.982C131.689 277.982 130.489 279.695 130.489 283.119C130.489 286.443 131.689 288.105 134.089 288.105C134.977 288.105 135.798 287.989 136.555 287.756C137.311 287.513 138.067 287.138 138.824 286.631V290.598C138.078 291.074 137.321 291.404 136.555 291.586C135.798 291.768 134.84 291.86 133.681 291.86ZM141.631 270.169C141.631 268.659 142.468 267.904 144.142 267.904C145.815 267.904 146.653 268.659 146.653 270.169C146.653 270.889 146.441 271.451 146.017 271.856C145.604 272.251 144.978 272.449 144.142 272.449C142.468 272.449 141.631 271.689 141.631 270.169ZM146.441 291.556H141.827V274.562H146.441V291.556ZM154.981 291.556H150.368V267.904H154.981V291.556Z" fill="#444444"/>
<path d="M17.1143 323.89L15.9686 320.959H12.2796L11.1465 323.89H10.0637L13.7023 314.636H14.6025L18.2222 323.89H17.1143ZM15.6349 319.995L14.5647 317.139C14.4263 316.778 14.2835 316.334 14.1367 315.809C14.0443 316.212 13.9122 316.656 13.7401 317.139L12.6573 319.995H15.6349ZM30.4421 323.89V319.396C30.4421 318.845 30.3246 318.433 30.0896 318.16C29.8545 317.883 29.4894 317.744 28.9942 317.744C28.3437 317.744 27.8632 317.931 27.5527 318.305C27.2421 318.679 27.0868 319.255 27.0868 320.032V323.89H26.0418V319.396C26.0418 318.845 25.9243 318.433 25.6892 318.16C25.4543 317.883 25.087 317.744 24.5876 317.744C23.9329 317.744 23.4524 317.942 23.146 318.336C22.8439 318.728 22.6928 319.37 22.6928 320.266V323.89H21.6478V316.982H22.4976L22.6676 317.927H22.718C22.9152 317.591 23.1922 317.328 23.5489 317.139C23.9098 316.95 24.3127 316.856 24.7576 316.856C25.8361 316.856 26.5412 317.246 26.8728 318.028H26.9231C27.1287 317.666 27.4268 317.38 27.817 317.171C28.2073 316.96 28.6522 316.856 29.1516 316.856C29.9322 316.856 30.5155 317.057 30.9017 317.46C31.2919 317.86 31.4871 318.5 31.4871 319.383V323.89H30.4421ZM37.3735 323.89L37.1658 322.907H37.1154C36.7713 323.34 36.4272 323.634 36.0831 323.789C35.7431 323.941 35.3171 324.016 34.8051 324.016C34.1211 324.016 33.5839 323.84 33.1935 323.487C32.8075 323.134 32.6144 322.631 32.6144 321.98C32.6144 320.585 33.7286 319.854 35.9572 319.787L37.1281 319.749V319.32C37.1281 318.778 37.0106 318.379 36.7755 318.122C36.5447 317.862 36.1733 317.732 35.6613 317.732C35.0863 317.732 34.4358 317.908 33.7098 318.261L33.3887 317.46C33.7286 317.276 34.1001 317.131 34.503 317.025C34.91 316.92 35.3171 316.868 35.7242 316.868C36.5468 316.868 37.1553 317.051 37.5498 317.417C37.9485 317.782 38.1479 318.368 38.1479 319.175V323.89H37.3735ZM35.0129 323.152C35.6634 323.152 36.1732 322.974 36.5426 322.617C36.9161 322.26 37.1029 321.759 37.1029 321.117V320.492L36.0579 320.537C35.2269 320.566 34.6268 320.696 34.2574 320.927C33.8923 321.155 33.7098 321.51 33.7098 321.993C33.7098 322.371 33.8231 322.659 34.0497 322.856C34.2805 323.054 34.6016 323.152 35.0129 323.152ZM42.9389 316.856C43.2453 316.856 43.5202 316.881 43.7636 316.931L43.6188 317.902C43.3335 317.839 43.0817 317.807 42.8634 317.807C42.3052 317.807 41.8268 318.034 41.4281 318.488C41.0336 318.942 40.8364 319.507 40.8364 320.184V323.89H39.7914V316.982H40.6538L40.7734 318.261H40.8238C41.0798 317.812 41.3882 317.465 41.7492 317.221C42.1101 316.977 42.5067 316.856 42.9389 316.856ZM47.4531 324.016C46.4333 324.016 45.6275 323.706 45.0358 323.083C44.4482 322.461 44.1545 321.598 44.1545 320.492C44.1545 319.379 44.4272 318.495 44.9728 317.839C45.5226 317.183 46.2591 316.856 47.1824 316.856C48.0469 316.856 48.731 317.141 49.2346 317.713C49.7382 318.28 49.99 319.03 49.99 319.963V320.625H45.2372C45.2582 321.436 45.4617 322.052 45.8478 322.472C46.2381 322.892 46.7858 323.102 47.4908 323.102C48.2337 323.102 48.9681 322.946 49.6941 322.636V323.569C49.3248 323.728 48.9744 323.842 48.6429 323.909C48.3155 323.981 47.9189 324.016 47.4531 324.016ZM47.1698 317.732C46.6158 317.732 46.1731 317.912 45.8416 318.274C45.5142 318.635 45.3212 319.135 45.2624 319.774H48.8695C48.8695 319.114 48.7226 318.61 48.4288 318.261C48.1351 317.908 47.7154 317.732 47.1698 317.732ZM46.3955 315.91C46.5969 315.649 46.8131 315.334 47.0439 314.964C47.2789 314.595 47.4636 314.273 47.5979 314H48.8695V314.132C48.6849 314.405 48.4099 314.742 48.0448 315.141C47.6797 315.54 47.3629 315.849 47.0942 316.067H46.3955V315.91ZM57.306 316.868C58.2125 316.868 58.9155 317.179 59.4149 317.801C59.9185 318.418 60.1703 319.295 60.1703 320.43C60.1703 321.564 59.9164 322.447 59.4085 323.077C58.905 323.703 58.2041 324.016 57.306 324.016C56.8569 324.016 56.4457 323.934 56.0722 323.77C55.7028 323.602 55.3923 323.346 55.1404 323.001H55.0649L54.8446 323.89H54.0955V314.082H55.1404V316.464C55.1404 316.998 55.1237 317.477 55.0901 317.902H55.1404C55.6273 317.213 56.3491 316.868 57.306 316.868ZM57.1549 317.744C56.4415 317.744 55.9273 317.95 55.6126 318.362C55.2978 318.77 55.1404 319.459 55.1404 320.43C55.1404 321.401 55.302 322.096 55.6252 322.516C55.9483 322.932 56.4666 323.14 57.1801 323.14C57.8222 323.14 58.3006 322.907 58.6154 322.44C58.9302 321.97 59.0875 321.295 59.0875 320.417C59.0875 319.518 58.9302 318.848 58.6154 318.406C58.3006 317.965 57.8138 317.744 57.1549 317.744ZM65.7294 323.89L65.5219 322.907H65.4716C65.1274 323.34 64.7831 323.634 64.4389 323.789C64.0989 323.941 63.673 324.016 63.1609 324.016C62.4769 324.016 61.9397 323.84 61.5494 323.487C61.1633 323.134 60.9703 322.631 60.9703 321.98C60.9703 320.585 62.0845 319.854 64.3132 319.787L65.4838 319.749V319.32C65.4838 318.778 65.3665 318.379 65.1312 318.122C64.9005 317.862 64.5292 317.732 64.0171 317.732C63.4421 317.732 62.7916 317.908 62.0656 318.261L61.7446 317.46C62.0845 317.276 62.4559 317.131 62.8588 317.025C63.2659 316.92 63.673 316.868 64.0801 316.868C64.9024 316.868 65.5109 317.051 65.9054 317.417C66.3044 317.782 66.5036 318.368 66.5036 319.175V323.89H65.7294ZM63.3687 323.152C64.0192 323.152 64.5292 322.974 64.8985 322.617C65.2718 322.26 65.4587 321.759 65.4587 321.117V320.492L64.4138 320.537C63.5827 320.566 62.9826 320.696 62.6133 320.927C62.2482 321.155 62.0656 321.51 62.0656 321.993C62.0656 322.371 62.1789 322.659 62.4056 322.856C62.6364 323.054 62.9574 323.152 63.3687 323.152ZM69.1924 323.89H68.1474V316.982H69.1924V323.89ZM68.0591 315.109C68.0591 314.869 68.1178 314.695 68.2351 314.586C68.3531 314.473 68.5 314.416 68.676 314.416C68.8436 314.416 68.9887 314.473 69.1105 314.586C69.2323 314.7 69.2929 314.874 69.2929 315.109C69.2929 315.345 69.2323 315.521 69.1105 315.639C68.9887 315.752 68.8436 315.809 68.676 315.809C68.5 315.809 68.3531 315.752 68.2351 315.639C68.1178 315.521 68.0591 315.345 68.0591 315.109ZM72.5541 320.354L70.1561 316.982H71.3454L73.1652 319.629L74.9778 316.982H76.1549L73.7569 320.354L76.2813 323.89H75.0977L73.1652 321.091L71.2133 323.89H70.0297L72.5541 320.354ZM81.3809 323.89L81.1727 322.907H81.1224C80.7782 323.34 80.4339 323.634 80.0903 323.789C79.75 323.941 79.3239 324.016 78.8121 324.016C78.1281 324.016 77.5911 323.84 77.2005 323.487C76.8144 323.134 76.6216 322.631 76.6216 321.98C76.6216 320.585 77.7355 319.854 79.964 319.787L81.1353 319.749V319.32C81.1353 318.778 81.0173 318.379 80.7827 318.122C80.5519 317.862 80.1806 317.732 79.6681 317.732C79.0931 317.732 78.4427 317.908 77.7168 318.261L77.3958 317.46C77.7355 317.276 78.1068 317.131 78.5097 317.025C78.9171 316.92 79.3239 316.868 79.7313 316.868C80.5538 316.868 81.1624 317.051 81.5569 317.417C81.9559 317.782 82.1551 318.368 82.1551 319.175V323.89H81.3809ZM79.0196 323.152C79.6707 323.152 80.1806 322.974 80.55 322.617C80.9232 322.26 81.1101 321.759 81.1101 321.117V320.492L80.0652 320.537C79.2343 320.566 78.6341 320.696 78.2648 320.927C77.8993 321.155 77.7168 321.51 77.7168 321.993C77.7168 322.371 77.8303 322.659 78.0566 322.856C78.2873 323.054 78.6084 323.152 79.0196 323.152ZM89.5463 324.016C88.5265 324.016 87.7207 323.706 87.129 323.083C86.5417 322.461 86.2478 321.598 86.2478 320.492C86.2478 319.379 86.5205 318.495 87.0664 317.839C87.6157 317.183 88.3525 316.856 89.2756 316.856C90.14 316.856 90.8246 317.141 91.3281 317.713C91.8315 318.28 92.0835 319.03 92.0835 319.963V320.625H87.3307C87.3514 321.436 87.5551 322.052 87.9412 322.472C88.3312 322.892 88.8791 323.102 89.5843 323.102C90.327 323.102 91.0612 322.946 91.7877 322.636V323.569C91.4183 323.728 91.0676 323.842 90.7363 323.909C90.4088 323.981 90.0124 324.016 89.5463 324.016ZM89.2633 317.732C88.7089 317.732 88.2661 317.912 87.9348 318.274C87.6073 318.635 87.4145 319.135 87.3559 319.774H90.9625C90.9625 319.114 90.8162 318.61 90.5223 318.261C90.2283 317.908 89.8087 317.732 89.2633 317.732ZM102.144 320.43C102.144 321.555 101.861 322.436 101.294 323.07C100.727 323.701 99.9447 324.016 98.9462 324.016C98.3293 324.016 97.7814 323.871 97.3031 323.581C96.8247 323.291 96.4554 322.875 96.195 322.333C95.9352 321.791 95.8049 321.157 95.8049 320.43C95.8049 319.303 96.086 318.427 96.6481 317.801C97.2109 317.171 97.9915 316.856 98.99 316.856C99.9557 316.856 100.721 317.177 101.288 317.82C101.859 318.463 102.144 319.332 102.144 320.43ZM96.8873 320.43C96.8873 321.312 97.0639 321.985 97.4165 322.447C97.7691 322.909 98.2874 323.14 98.9713 323.14C99.6553 323.14 100.174 322.911 100.526 322.453C100.883 321.991 101.061 321.316 101.061 320.43C101.061 319.551 100.883 318.885 100.526 318.431C100.174 317.973 99.6514 317.744 98.9584 317.744C98.2745 317.744 97.7582 317.969 97.4101 318.418C97.062 318.868 96.8873 319.538 96.8873 320.43ZM107.81 323.89L105.192 316.982H106.312L107.798 321.079C108.134 322.037 108.331 322.659 108.39 322.945H108.44C108.487 322.722 108.631 322.262 108.875 321.564C109.122 320.862 109.674 319.335 110.53 316.982H111.65L109.032 323.89H107.81ZM115.158 324.016C114.138 324.016 113.332 323.706 112.74 323.083C112.153 322.461 111.859 321.598 111.859 320.492C111.859 319.379 112.132 318.495 112.677 317.839C113.227 317.183 113.963 316.856 114.887 316.856C115.752 316.856 116.435 317.141 116.939 317.713C117.443 318.28 117.694 319.03 117.694 319.963V320.625H112.942C112.963 321.436 113.166 322.052 113.552 322.472C113.943 322.892 114.49 323.102 115.195 323.102C115.938 323.102 116.673 322.946 117.399 322.636V323.569C117.029 323.728 116.679 323.842 116.347 323.909C116.02 323.981 115.623 324.016 115.158 324.016ZM114.874 317.732C114.32 317.732 113.878 317.912 113.546 318.274C113.219 318.635 113.025 319.135 112.967 319.774H116.574C116.574 319.114 116.427 318.61 116.133 318.261C115.84 317.908 115.42 317.732 114.874 317.732ZM123.688 323.89V319.421C123.688 318.858 123.56 318.438 123.304 318.16C123.048 317.883 122.647 317.744 122.102 317.744C121.38 317.744 120.851 317.939 120.515 318.331C120.179 318.721 120.012 319.367 120.012 320.266V323.89H118.967V316.982H119.816L119.987 317.927H120.037C120.251 317.586 120.551 317.324 120.937 317.139C121.323 316.95 121.754 316.856 122.227 316.856C123.058 316.856 123.684 317.057 124.103 317.46C124.523 317.86 124.733 318.5 124.733 319.383V323.89H123.688ZM128.599 323.152C128.783 323.152 128.962 323.14 129.134 323.115C129.306 323.085 129.442 323.056 129.543 323.027V323.827C129.43 323.882 129.261 323.926 129.039 323.959C128.821 323.997 128.624 324.016 128.447 324.016C127.113 324.016 126.446 323.312 126.446 321.905V317.795H125.458V317.29L126.446 316.856L126.887 315.38H127.491V316.982H129.493V317.795H127.491V321.86C127.491 322.276 127.589 322.596 127.787 322.819C127.984 323.041 128.255 323.152 128.599 323.152ZM136.367 320.43C136.367 321.555 136.084 322.436 135.518 323.07C134.951 323.701 134.168 324.016 133.169 324.016C132.552 324.016 132.005 323.871 131.527 323.581C131.048 323.291 130.679 322.875 130.419 322.333C130.158 321.791 130.028 321.157 130.028 320.43C130.028 319.303 130.31 318.427 130.872 317.801C131.434 317.171 132.215 316.856 133.214 316.856C134.179 316.856 134.944 317.177 135.511 317.82C136.082 318.463 136.367 319.332 136.367 320.43ZM131.111 320.43C131.111 321.312 131.288 321.985 131.64 322.447C131.992 322.909 132.51 323.14 133.194 323.14C133.879 323.14 134.397 322.911 134.75 322.453C135.106 321.991 135.285 321.316 135.285 320.43C135.285 319.551 135.106 318.885 134.75 318.431C134.397 317.973 133.874 317.744 133.182 317.744C132.498 317.744 131.982 317.969 131.634 318.418C131.285 318.868 131.111 319.538 131.111 320.43ZM141.568 323.89H140.523V314.082H141.568V323.89ZM146.183 324.016C145.163 324.016 144.357 323.706 143.766 323.083C143.178 322.461 142.884 321.598 142.884 320.492C142.884 319.379 143.157 318.495 143.703 317.839C144.253 317.183 144.989 316.856 145.912 316.856C146.777 316.856 147.461 317.141 147.965 317.713C148.468 318.28 148.72 319.03 148.72 319.963V320.625H143.967C143.988 321.436 144.192 322.052 144.578 322.472C144.968 322.892 145.516 323.102 146.221 323.102C146.963 323.102 147.698 322.946 148.424 322.636V323.569C148.055 323.728 147.704 323.842 147.373 323.909C147.045 323.981 146.649 324.016 146.183 324.016ZM145.9 317.732C145.346 317.732 144.903 317.912 144.571 318.274C144.244 318.635 144.051 319.135 143.992 319.774H147.6C147.6 319.114 147.453 318.61 147.159 318.261C146.865 317.908 146.445 317.732 145.9 317.732ZM154.443 322.005C154.443 322.648 154.204 323.144 153.725 323.493C153.247 323.842 152.575 324.016 151.71 324.016C150.796 324.016 150.082 323.871 149.57 323.581V322.611C149.902 322.779 150.256 322.911 150.634 323.008C151.016 323.105 151.384 323.152 151.736 323.152C152.282 323.152 152.701 323.067 152.995 322.894C153.289 322.718 153.435 322.451 153.435 322.094C153.435 321.825 153.318 321.595 153.083 321.406C152.852 321.213 152.399 320.986 151.723 320.726C151.081 320.487 150.624 320.278 150.351 320.102C150.082 319.921 149.881 319.717 149.746 319.491C149.617 319.263 149.552 318.992 149.552 318.677C149.552 318.114 149.78 317.671 150.238 317.347C150.695 317.019 151.322 316.856 152.12 316.856C152.862 316.856 153.589 317.007 154.298 317.309L153.927 318.16C153.234 317.874 152.607 317.732 152.044 317.732C151.549 317.732 151.175 317.809 150.924 317.965C150.672 318.12 150.546 318.334 150.546 318.607C150.546 318.793 150.592 318.95 150.685 319.081C150.781 319.211 150.934 319.335 151.144 319.452C151.354 319.57 151.757 319.74 152.353 319.963C153.171 320.261 153.723 320.562 154.009 320.864C154.298 321.167 154.443 321.547 154.443 322.005ZM157.861 323.152C158.046 323.152 158.224 323.14 158.397 323.115C158.569 323.085 158.705 323.056 158.806 323.027V323.827C158.692 323.882 158.525 323.926 158.302 323.959C158.084 323.997 157.887 324.016 157.711 324.016C156.376 324.016 155.708 323.312 155.708 321.905V317.795H154.72V317.29L155.708 316.856L156.149 315.38H156.753V316.982H158.756V317.795H156.753V321.86C156.753 322.276 156.852 322.596 157.049 322.819C157.246 323.041 157.517 323.152 157.861 323.152ZM162.59 324.016C161.57 324.016 160.764 323.706 160.172 323.083C159.585 322.461 159.291 321.598 159.291 320.492C159.291 319.379 159.564 318.495 160.109 317.839C160.659 317.183 161.396 316.856 162.319 316.856C163.183 316.856 163.867 317.141 164.372 317.713C164.875 318.28 165.126 319.03 165.126 319.963V320.625H160.374C160.395 321.436 160.599 322.052 160.985 322.472C161.375 322.892 161.923 323.102 162.627 323.102C163.37 323.102 164.105 322.946 164.83 322.636V323.569C164.462 323.728 164.111 323.842 163.78 323.909C163.452 323.981 163.056 324.016 162.59 324.016ZM162.306 317.732C161.752 317.732 161.31 317.912 160.978 318.274C160.651 318.635 160.458 319.135 160.399 319.774H164.006C164.006 319.114 163.859 318.61 163.566 318.261C163.272 317.908 162.852 317.732 162.306 317.732ZM172.147 324.016C171.127 324.016 170.321 323.706 169.73 323.083C169.142 322.461 168.848 321.598 168.848 320.492C168.848 319.379 169.121 318.495 169.666 317.839C170.216 317.183 170.952 316.856 171.876 316.856C172.741 316.856 173.425 317.141 173.928 317.713C174.432 318.28 174.684 319.03 174.684 319.963V320.625H169.931C169.952 321.436 170.155 322.052 170.541 322.472C170.932 322.892 171.48 323.102 172.184 323.102C172.928 323.102 173.662 322.946 174.388 322.636V323.569C174.018 323.728 173.668 323.842 173.336 323.909C173.009 323.981 172.612 324.016 172.147 324.016ZM171.863 317.732C171.31 317.732 170.867 317.912 170.535 318.274C170.208 318.635 170.015 319.135 169.956 319.774H173.563C173.563 319.114 173.416 318.61 173.122 318.261C172.829 317.908 172.409 317.732 171.863 317.732ZM180.407 322.005C180.407 322.648 180.167 323.144 179.689 323.493C179.21 323.842 178.539 324.016 177.675 324.016C176.759 324.016 176.046 323.871 175.534 323.581V322.611C175.866 322.779 176.22 322.911 176.598 323.008C176.98 323.105 177.347 323.152 177.7 323.152C178.245 323.152 178.665 323.067 178.959 322.894C179.253 322.718 179.399 322.451 179.399 322.094C179.399 321.825 179.282 321.595 179.047 321.406C178.816 321.213 178.362 320.986 177.687 320.726C177.045 320.487 176.587 320.278 176.314 320.102C176.046 319.921 175.845 319.717 175.71 319.491C175.58 319.263 175.515 318.992 175.515 318.677C175.515 318.114 175.744 317.671 176.202 317.347C176.659 317.019 177.286 316.856 178.083 316.856C178.827 316.856 179.552 317.007 180.261 317.309L179.89 318.16C179.198 317.874 178.571 317.732 178.008 317.732C177.513 317.732 177.14 317.809 176.887 317.965C176.635 318.12 176.51 318.334 176.51 318.607C176.51 318.793 176.556 318.95 176.648 319.081C176.745 319.211 176.898 319.335 177.108 319.452C177.317 319.57 177.72 319.74 178.317 319.963C179.135 320.261 179.686 320.562 179.972 320.864C180.261 321.167 180.407 321.547 180.407 322.005ZM183.825 323.152C184.01 323.152 184.188 323.14 184.361 323.115C184.532 323.085 184.669 323.056 184.769 323.027V323.827C184.656 323.882 184.488 323.926 184.266 323.959C184.048 323.997 183.851 324.016 183.674 324.016C182.34 324.016 181.673 323.312 181.673 321.905V317.795H180.684V317.29L181.673 316.856L182.113 315.38H182.717V316.982H184.719V317.795H182.717V321.86C182.717 322.276 182.816 322.596 183.013 322.819C183.211 323.041 183.481 323.152 183.825 323.152ZM189.882 323.89L189.674 322.907H189.623C189.28 323.34 188.935 323.634 188.591 323.789C188.251 323.941 187.825 324.016 187.313 324.016C186.629 324.016 186.092 323.84 185.701 323.487C185.315 323.134 185.123 322.631 185.123 321.98C185.123 320.585 186.236 319.854 188.466 319.787L189.636 319.749V319.32C189.636 318.778 189.519 318.379 189.284 318.122C189.053 317.862 188.682 317.732 188.17 317.732C187.595 317.732 186.944 317.908 186.218 318.261L185.897 317.46C186.236 317.276 186.608 317.131 187.011 317.025C187.418 316.92 187.825 316.868 188.232 316.868C189.055 316.868 189.663 317.051 190.058 317.417C190.457 317.782 190.656 318.368 190.656 319.175V323.89H189.882ZM187.521 323.152C188.172 323.152 188.682 322.974 189.051 322.617C189.424 322.26 189.611 321.759 189.611 321.117V320.492L188.566 320.537C187.735 320.566 187.135 320.696 186.766 320.927C186.4 321.155 186.218 321.51 186.218 321.993C186.218 322.371 186.331 322.659 186.558 322.856C186.789 323.054 187.11 323.152 187.521 323.152ZM189.07 316.055C188.889 316.055 188.713 316.017 188.541 315.942C188.369 315.862 188.199 315.775 188.031 315.683C187.867 315.586 187.707 315.5 187.552 315.425C187.401 315.345 187.254 315.305 187.112 315.305C186.902 315.305 186.742 315.368 186.634 315.494C186.528 315.62 186.447 315.811 186.388 316.067H185.771C185.825 315.559 185.972 315.162 186.211 314.876C186.455 314.586 186.768 314.441 187.149 314.441C187.343 314.441 187.53 314.481 187.71 314.561C187.891 314.636 188.063 314.723 188.226 314.819C188.389 314.911 188.547 314.998 188.698 315.078C188.849 315.154 188.992 315.191 189.126 315.191C189.332 315.191 189.485 315.13 189.586 315.008C189.686 314.882 189.768 314.689 189.832 314.429H190.454C190.4 314.937 190.253 315.336 190.014 315.626C189.779 315.912 189.464 316.055 189.07 316.055ZM198.255 320.43C198.255 321.555 197.971 322.436 197.405 323.07C196.839 323.701 196.055 324.016 195.057 324.016C194.44 324.016 193.892 323.871 193.414 323.581C192.935 323.291 192.566 322.875 192.306 322.333C192.046 321.791 191.916 321.157 191.916 320.43C191.916 319.303 192.197 318.427 192.759 317.801C193.322 317.171 194.102 316.856 195.101 316.856C196.066 316.856 196.832 317.177 197.399 317.82C197.969 318.463 198.255 319.332 198.255 320.43ZM192.999 320.43C192.999 321.312 193.175 321.985 193.527 322.447C193.88 322.909 194.398 323.14 195.082 323.14C195.766 323.14 196.284 322.911 196.637 322.453C196.993 321.991 197.172 321.316 197.172 320.43C197.172 319.551 196.993 318.885 196.637 318.431C196.284 317.973 195.762 317.744 195.069 317.744C194.385 317.744 193.869 317.969 193.521 318.418C193.173 318.868 192.999 319.538 192.999 320.43ZM14.3822 347.254C13.9331 347.254 13.5219 347.172 13.1484 347.008C12.779 346.84 12.4685 346.584 12.2166 346.239H12.1411C12.1915 346.642 12.2166 347.024 12.2166 347.386V350.229H11.1717V340.219H12.0215L12.1663 341.165H12.2166C12.4852 340.786 12.7979 340.513 13.1546 340.345C13.5114 340.177 13.9206 340.093 14.3822 340.093C15.2971 340.093 16.0021 340.406 16.4974 341.032C16.9968 341.659 17.2465 342.536 17.2465 343.667C17.2465 344.801 16.9926 345.684 16.4847 346.314C15.9812 346.941 15.2803 347.254 14.3822 347.254ZM14.2311 340.982C13.5261 340.982 13.0162 341.177 12.7014 341.568C12.3866 341.959 12.2251 342.581 12.2166 343.434V343.667C12.2166 344.638 12.3782 345.333 12.7014 345.753C13.0245 346.17 13.5428 346.378 14.2563 346.378C14.8522 346.378 15.318 346.136 15.6538 345.653C15.9937 345.169 16.1637 344.503 16.1637 343.654C16.1637 342.793 15.9937 342.133 15.6538 341.675C15.318 341.213 14.8439 340.982 14.2311 340.982ZM21.7102 340.093C22.0166 340.093 22.2915 340.118 22.5349 340.169L22.3901 341.14C22.1048 341.076 21.8529 341.045 21.6347 341.045C21.0765 341.045 20.5981 341.272 20.1994 341.726C19.8049 342.179 19.6077 342.745 19.6077 343.421V347.128H18.5627V340.219H19.4251L19.5447 341.498H19.595C19.8511 341.049 20.1595 340.703 20.5205 340.459C20.8814 340.215 21.278 340.093 21.7102 340.093ZM26.2243 347.254C25.2045 347.254 24.3988 346.943 23.807 346.321C23.2195 345.699 22.9257 344.836 22.9257 343.73C22.9257 342.616 23.1985 341.732 23.7441 341.076C24.2938 340.42 25.0304 340.093 25.9537 340.093C26.8182 340.093 27.5022 340.378 28.0059 340.95C28.5095 341.518 28.7613 342.268 28.7613 343.201V343.862H24.0085C24.0295 344.674 24.233 345.289 24.6191 345.71C25.0094 346.13 25.5571 346.34 26.2621 346.34C27.005 346.34 27.7394 346.184 28.4654 345.874V346.806C28.0961 346.966 27.7456 347.079 27.4141 347.146C27.0868 347.218 26.6902 347.254 26.2243 347.254ZM25.9411 340.969C25.3871 340.969 24.9443 341.15 24.6128 341.511C24.2854 341.873 24.0924 342.372 24.0337 343.011H27.6408C27.6408 342.352 27.4939 341.848 27.2001 341.498C26.9064 341.145 26.4866 340.969 25.9411 340.969ZM29.1962 350.229C28.7975 350.229 28.4743 350.176 28.2267 350.072V349.22C28.5163 349.304 28.8017 349.347 29.0829 349.347C29.4102 349.347 29.6494 349.257 29.8005 349.076C29.9558 348.899 30.0334 348.628 30.0334 348.262V340.219H31.0784V348.187C31.0784 349.548 30.451 350.229 29.1962 350.229ZM29.9453 338.347C29.9453 338.107 30.004 337.933 30.1215 337.824C30.239 337.71 30.386 337.653 30.5622 337.653C30.7301 337.653 30.8748 337.71 30.9965 337.824C31.1182 337.937 31.1792 338.112 31.1792 338.347C31.1792 338.582 31.1182 338.759 30.9965 338.876C30.8748 338.99 30.7301 339.046 30.5622 339.046C30.386 339.046 30.239 338.99 30.1215 338.876C30.004 338.759 29.9453 338.582 29.9453 338.347ZM33.7606 340.219V344.701C33.7606 345.264 33.8886 345.684 34.1446 345.961C34.4007 346.239 34.8014 346.378 35.347 346.378C36.0689 346.378 36.5955 346.18 36.9271 345.785C37.2629 345.39 37.4307 344.745 37.4307 343.85V340.219H38.4757V347.128H37.6133L37.4622 346.201H37.4055C37.1915 346.542 36.8936 346.802 36.5116 346.982C36.1339 347.163 35.7016 347.254 35.2148 347.254C34.3755 347.254 33.746 347.054 33.3263 346.655C32.9108 346.256 32.7031 345.617 32.7031 344.739V340.219H33.7606ZM44.8784 346.201H44.8217C44.3391 346.903 43.6172 347.254 42.6562 347.254C41.7539 347.254 41.0509 346.945 40.5473 346.327C40.0479 345.71 39.7982 344.831 39.7982 343.692C39.7982 342.553 40.05 341.669 40.5536 341.038C41.0572 340.408 41.7581 340.093 42.6562 340.093C43.5921 340.093 44.3097 340.433 44.8091 341.114H44.8909L44.8469 340.616L44.8217 340.131V337.32H45.8667V347.128H45.0169L44.8784 346.201ZM42.7884 346.378C43.5018 346.378 44.018 346.184 44.337 345.797C44.6602 345.407 44.8217 344.779 44.8217 343.913V343.692C44.8217 342.713 44.658 342.015 44.3307 341.6C44.0075 341.18 43.4893 340.969 42.7758 340.969C42.1631 340.969 41.693 341.209 41.3657 341.688C41.0425 342.163 40.8809 342.835 40.8809 343.705C40.8809 344.587 41.0425 345.253 41.3657 345.703C41.6888 346.153 42.1631 346.378 42.7884 346.378ZM48.6182 347.128H47.5732V340.219H48.6182V347.128ZM47.4851 338.347C47.4851 338.107 47.5438 337.933 47.6613 337.824C47.7788 337.71 47.9257 337.653 48.102 337.653C48.2698 337.653 48.4146 337.71 48.5363 337.824C48.658 337.937 48.7189 338.112 48.7189 338.347C48.7189 338.582 48.658 338.759 48.5363 338.876C48.4146 338.99 48.2698 339.046 48.102 339.046C47.9257 339.046 47.7788 338.99 47.6613 338.876C47.5438 338.759 47.4851 338.582 47.4851 338.347ZM53.0756 347.254C52.0768 347.254 51.3025 346.947 50.7527 346.334C50.2072 345.715 49.9344 344.844 49.9344 343.718C49.9344 342.562 50.2114 341.669 50.7653 341.038C51.3235 340.408 52.1167 340.093 53.1449 340.093C53.4765 340.093 53.808 340.129 54.1395 340.2C54.4711 340.271 54.7313 340.355 54.9201 340.452L54.5991 341.341C54.3682 341.249 54.1164 341.173 53.8436 341.114C53.5708 341.051 53.3296 341.019 53.1197 341.019C51.718 341.019 51.0172 341.915 51.0172 343.705C51.0172 344.554 51.1871 345.205 51.5271 345.659C51.8712 346.113 52.379 346.34 53.0505 346.34C53.6254 346.34 54.2151 346.216 54.8194 345.968V346.895C54.3578 347.134 53.7765 347.254 53.0756 347.254ZM60.1897 347.128L59.9819 346.145H59.9316C59.5874 346.577 59.2433 346.871 58.8992 347.027C58.5592 347.178 58.1333 347.254 57.6213 347.254C56.9372 347.254 56.4 347.077 56.0097 346.724C55.6236 346.371 55.4305 345.869 55.4305 345.218C55.4305 343.823 56.5448 343.091 58.7733 343.024L59.9442 342.986V342.558C59.9442 342.015 59.8266 341.617 59.5916 341.36C59.3608 341.1 58.9894 340.969 58.4774 340.969C57.9024 340.969 57.252 341.145 56.5259 341.498L56.2048 340.698C56.5448 340.513 56.9162 340.368 57.3191 340.263C57.7261 340.158 58.1333 340.105 58.5404 340.105C59.3629 340.105 59.9714 340.288 60.3659 340.654C60.7646 341.019 60.9639 341.606 60.9639 342.412V347.128H60.1897ZM57.829 346.39C58.4795 346.39 58.9894 346.212 59.3587 345.854C59.7322 345.497 59.919 344.997 59.919 344.354V343.73L58.874 343.774C58.043 343.803 57.4429 343.934 57.0736 344.165C56.7085 344.392 56.5259 344.747 56.5259 345.231C56.5259 345.608 56.6392 345.896 56.8658 346.094C57.0967 346.291 57.4177 346.39 57.829 346.39ZM67.3288 347.128V342.658C67.3288 342.095 67.2011 341.675 66.9446 341.398C66.6886 341.12 66.2883 340.982 65.7423 340.982C65.0204 340.982 64.4918 341.177 64.1561 341.568C63.8204 341.959 63.6525 342.604 63.6525 343.503V347.128H62.6075V340.219H63.4573L63.6273 341.165H63.6777C63.8917 340.824 64.1918 340.561 64.5782 340.377C64.9643 340.187 65.3942 340.093 65.8687 340.093C66.6996 340.093 67.3249 340.295 67.7445 340.698C68.1642 341.098 68.3737 341.738 68.3737 342.621V347.128H67.3288ZM74.7071 346.201H74.6504C74.1682 346.903 73.4462 347.254 72.4851 347.254C71.5826 347.254 70.88 346.945 70.3759 346.327C69.8769 345.71 69.6268 344.831 69.6268 343.692C69.6268 342.553 69.8789 341.669 70.3823 341.038C70.8864 340.408 71.5871 340.093 72.4851 340.093C73.4211 340.093 74.1385 340.433 74.6381 341.114H74.72L74.6755 340.616L74.6504 340.131V337.32H75.6953V347.128H74.8457L74.7071 346.201ZM72.6172 346.378C73.3308 346.378 73.8472 346.184 74.1656 345.797C74.4892 345.407 74.6504 344.779 74.6504 343.913V343.692C74.6504 342.713 74.4866 342.015 74.1598 341.6C73.8362 341.18 73.3179 340.969 72.605 340.969C71.992 340.969 71.522 341.209 71.1946 341.688C70.8716 342.163 70.7098 342.835 70.7098 343.705C70.7098 344.587 70.8716 345.253 71.1946 345.703C71.5175 346.153 71.992 346.378 72.6172 346.378ZM83.3573 343.667C83.3573 344.793 83.0743 345.673 82.5077 346.308C81.9411 346.939 81.1585 347.254 80.1593 347.254C79.5424 347.254 78.9945 347.109 78.5162 346.819C78.0379 346.529 77.6685 346.113 77.4081 345.571C77.1483 345.029 77.0181 344.394 77.0181 343.667C77.0181 342.541 77.2991 341.664 77.8619 341.038C78.424 340.408 79.2046 340.093 80.2032 340.093C81.1688 340.093 81.9346 340.415 82.5012 341.058C83.0717 341.7 83.3573 342.57 83.3573 343.667ZM78.101 343.667C78.101 344.55 78.277 345.222 78.6296 345.684C78.9822 346.147 79.5005 346.378 80.1845 346.378C80.8684 346.378 81.3867 346.149 81.7393 345.69C82.0964 345.228 82.2743 344.553 82.2743 343.667C82.2743 342.789 82.0964 342.123 81.7393 341.669C81.3867 341.211 80.8645 340.982 80.1722 340.982C79.4876 340.982 78.9719 341.207 78.6232 341.656C78.2751 342.106 78.101 342.776 78.101 343.667ZM91.7561 347.128L91.5485 346.145H91.4982C91.154 346.577 90.8098 346.871 90.4655 347.027C90.1258 347.178 89.6997 347.254 89.1879 347.254C88.5033 347.254 87.9663 347.077 87.5763 346.724C87.1902 346.371 86.9968 345.869 86.9968 345.218C86.9968 343.823 88.1114 343.091 90.3398 343.024L91.5105 342.986V342.558C91.5105 342.015 91.3932 341.617 91.1579 341.36C90.9271 341.1 90.5558 340.969 90.044 340.969C89.469 340.969 88.8185 341.145 88.092 341.498L87.771 340.698C88.1114 340.513 88.4827 340.368 88.8856 340.263C89.2923 340.158 89.6997 340.105 90.1065 340.105C90.929 340.105 91.5376 340.288 91.9321 340.654C92.3311 341.019 92.5303 341.606 92.5303 342.412V347.128H91.7561ZM89.3955 346.39C90.0459 346.39 90.5558 346.212 90.9252 345.854C91.2984 345.497 91.4853 344.997 91.4853 344.354V343.73L90.4404 343.774C89.6095 343.803 89.0093 343.934 88.64 344.165C88.2751 344.392 88.092 344.747 88.092 345.231C88.092 345.608 88.2055 345.896 88.4324 346.094C88.6632 346.291 88.9842 346.39 89.3955 346.39ZM98.6245 345.243C98.6245 345.886 98.3854 346.382 97.9071 346.731C97.4288 347.079 96.7571 347.254 95.8926 347.254C94.9773 347.254 94.2643 347.109 93.7518 346.819V345.848C94.0838 346.016 94.4384 346.149 94.8161 346.245C95.1977 346.342 95.5652 346.39 95.9178 346.39C96.4631 346.39 96.8828 346.304 97.1767 346.132C97.4707 345.955 97.617 345.688 97.617 345.331C97.617 345.062 97.4997 344.833 97.265 344.644C97.0342 344.451 96.5804 344.224 95.9049 343.964C95.2628 343.724 94.8058 343.516 94.5325 343.339C94.2643 343.159 94.0625 342.955 93.9285 342.728C93.7982 342.501 93.7331 342.23 93.7331 341.915C93.7331 341.351 93.962 340.908 94.4197 340.584C94.8767 340.256 95.5039 340.093 96.3013 340.093C97.0446 340.093 97.7704 340.244 98.4795 340.547L98.1082 341.398C97.4159 341.112 96.7886 340.969 96.2259 340.969C95.7308 340.969 95.3576 341.047 95.1055 341.202C94.8535 341.358 94.7278 341.572 94.7278 341.845C94.7278 342.03 94.7742 342.188 94.8664 342.318C94.9631 342.449 95.1158 342.573 95.326 342.69C95.5355 342.807 95.9384 342.978 96.5347 343.201C97.3527 343.499 97.9045 343.8 98.1901 344.102C98.4795 344.404 98.6245 344.785 98.6245 345.243ZM108.603 343.667C108.603 344.793 108.32 345.673 107.754 346.308C107.187 346.939 106.404 347.254 105.405 347.254C104.788 347.254 104.24 347.109 103.762 346.819C103.284 346.529 102.914 346.113 102.655 345.571C102.394 345.029 102.264 344.394 102.264 343.667C102.264 342.541 102.545 341.664 103.108 341.038C103.67 340.408 104.451 340.093 105.449 340.093C106.415 340.093 107.181 340.415 107.747 341.058C108.318 341.7 108.603 342.57 108.603 343.667ZM103.347 343.667C103.347 344.55 103.523 345.222 103.876 345.684C104.228 346.147 104.747 346.378 105.43 346.378C106.114 346.378 106.633 346.149 106.985 345.69C107.342 345.228 107.52 344.553 107.52 343.667C107.52 342.789 107.342 342.123 106.985 341.669C106.633 341.211 106.111 340.982 105.418 340.982C104.734 340.982 104.218 341.207 103.869 341.656C103.521 342.106 103.347 342.776 103.347 343.667ZM114.647 347.128V342.658C114.647 342.095 114.519 341.675 114.263 341.398C114.007 341.12 113.606 340.982 113.061 340.982C112.339 340.982 111.81 341.177 111.474 341.568C111.139 341.959 110.971 342.604 110.971 343.503V347.128H109.926V340.219H110.776L110.946 341.165H110.996C111.21 340.824 111.51 340.561 111.896 340.377C112.282 340.187 112.713 340.093 113.187 340.093C114.017 340.093 114.643 340.295 115.062 340.698C115.482 341.098 115.692 341.738 115.692 342.621V347.128H114.647ZM122.026 346.201H121.969C121.486 346.903 120.765 347.254 119.804 347.254C118.901 347.254 118.198 346.945 117.694 346.327C117.195 345.71 116.945 344.831 116.945 343.692C116.945 342.553 117.197 341.669 117.701 341.038C118.204 340.408 118.905 340.093 119.804 340.093C120.74 340.093 121.457 340.433 121.957 341.114H122.038L121.994 340.616L121.969 340.131V337.32H123.014V347.128H122.164L122.026 346.201ZM119.936 346.378C120.649 346.378 121.165 346.184 121.484 345.797C121.807 345.407 121.969 344.779 121.969 343.913V343.692C121.969 342.713 121.805 342.015 121.478 341.6C121.155 341.18 120.636 340.969 119.923 340.969C119.31 340.969 118.841 341.209 118.513 341.688C118.189 342.163 118.028 342.835 118.028 343.705C118.028 344.587 118.189 345.253 118.513 345.703C118.836 346.153 119.31 346.378 119.936 346.378ZM128.963 347.128L128.755 346.145H128.705C128.361 346.577 128.017 346.871 127.673 347.027C127.333 347.178 126.907 347.254 126.395 347.254C125.711 347.254 125.174 347.077 124.783 346.724C124.397 346.371 124.204 345.869 124.204 345.218C124.204 343.823 125.318 343.091 127.547 343.024L128.718 342.986V342.558C128.718 342.015 128.6 341.617 128.365 341.36C128.135 341.1 127.763 340.969 127.251 340.969C126.676 340.969 126.025 341.145 125.3 341.498L124.979 340.698C125.318 340.513 125.69 340.368 126.093 340.263C126.5 340.158 126.907 340.105 127.314 340.105C128.137 340.105 128.745 340.288 129.14 340.654C129.538 341.019 129.738 341.606 129.738 342.412V347.128H128.963ZM126.602 346.39C127.253 346.39 127.763 346.212 128.132 345.854C128.506 345.497 128.693 344.997 128.693 344.354V343.73L127.647 343.774C126.816 343.803 126.216 343.934 125.847 344.165C125.482 344.392 125.3 344.747 125.3 345.231C125.3 345.608 125.413 345.896 125.639 346.094C125.87 346.291 126.191 346.39 126.602 346.39ZM135.832 345.243C135.832 345.886 135.592 346.382 135.114 346.731C134.636 347.079 133.964 347.254 133.1 347.254C132.185 347.254 131.471 347.109 130.959 346.819V345.848C131.291 346.016 131.645 346.149 132.023 346.245C132.405 346.342 132.772 346.39 133.125 346.39C133.671 346.39 134.09 346.304 134.384 346.132C134.678 345.955 134.825 345.688 134.825 345.331C134.825 345.062 134.707 344.833 134.472 344.644C134.241 344.451 133.788 344.224 133.112 343.964C132.47 343.724 132.013 343.516 131.74 343.339C131.471 343.159 131.27 342.955 131.135 342.728C131.006 342.501 130.941 342.23 130.941 341.915C130.941 341.351 131.169 340.908 131.627 340.584C132.084 340.256 132.712 340.093 133.509 340.093C134.252 340.093 134.978 340.244 135.687 340.547L135.316 341.398C134.623 341.112 133.996 340.969 133.433 340.969C132.938 340.969 132.565 341.047 132.313 341.202C132.061 341.358 131.935 341.572 131.935 341.845C131.935 342.03 131.981 342.188 132.073 342.318C132.17 342.449 132.323 342.573 132.533 342.69C132.743 342.807 133.146 342.978 133.742 343.201C134.56 343.499 135.112 343.8 135.398 344.102C135.687 344.404 135.832 344.785 135.832 345.243ZM136.871 346.46C136.871 346.178 136.934 345.966 137.06 345.823C137.19 345.676 137.375 345.602 137.614 345.602C137.858 345.602 138.046 345.676 138.18 345.823C138.319 345.966 138.388 346.178 138.388 346.46C138.388 346.733 138.319 346.943 138.18 347.09C138.042 347.237 137.853 347.31 137.614 347.31C137.4 347.31 137.221 347.245 137.079 347.115C136.94 346.981 136.871 346.762 136.871 346.46ZM139.793 346.46C139.793 346.178 139.855 345.966 139.982 345.823C140.111 345.676 140.296 345.602 140.535 345.602C140.779 345.602 140.968 345.676 141.102 345.823C141.241 345.966 141.309 346.178 141.309 346.46C141.309 346.733 141.241 346.943 141.102 347.09C140.963 347.237 140.774 347.31 140.535 347.31C140.321 347.31 140.143 347.245 140 347.115C139.862 346.981 139.793 346.762 139.793 346.46ZM142.714 346.46C142.714 346.178 142.777 345.966 142.903 345.823C143.033 345.676 143.218 345.602 143.457 345.602C143.7 345.602 143.889 345.676 144.023 345.823C144.162 345.966 144.231 346.178 144.231 346.46C144.231 346.733 144.162 346.943 144.023 347.09C143.885 347.237 143.696 347.31 143.457 347.31C143.243 347.31 143.064 347.245 142.922 347.115C142.783 346.981 142.714 346.762 142.714 346.46Z" fill="#6F6F6F"/>
<path d="M208.139 66.4065C208.139 67.7502 207.939 68.7535 207.537 69.4164C207.139 70.0794 206.528 70.4109 205.706 70.4109C204.916 70.4109 204.316 70.0719 203.904 69.3947C203.493 68.714 203.287 67.7182 203.287 66.4065C203.287 65.052 203.486 64.0473 203.884 63.3912C204.282 62.7357 204.889 62.4076 205.706 62.4076C206.502 62.4076 207.106 62.7493 207.517 63.434C207.932 64.1181 208.139 65.1092 208.139 66.4065ZM204.13 66.4065C204.13 67.5371 204.255 68.3614 204.506 68.8794C204.757 69.3933 205.157 69.6499 205.706 69.6499C206.261 69.6499 206.663 69.3899 206.91 68.8685C207.161 68.3437 207.286 67.5228 207.286 66.4065C207.286 65.2895 207.161 64.4727 206.91 63.9548C206.663 63.434 206.261 63.1733 205.706 63.1733C205.157 63.1733 204.757 63.43 204.506 63.9445C204.255 64.455 204.13 65.2753 204.13 66.4065ZM209.11 69.7404C209.11 69.5029 209.16 69.3239 209.261 69.2034C209.365 69.0795 209.512 69.0176 209.703 69.0176C209.896 69.0176 210.047 69.0795 210.154 69.2034C210.265 69.3239 210.32 69.5029 210.32 69.7404C210.32 69.9712 210.265 70.1482 210.154 70.2721C210.044 70.3966 209.893 70.4586 209.703 70.4586C209.532 70.4586 209.39 70.4034 209.276 70.2938C209.166 70.1802 209.11 69.9957 209.11 69.7404ZM213.574 65.5557C214.347 65.5557 214.954 65.7592 215.396 66.1669C215.841 66.5712 216.063 67.126 216.063 67.8318C216.063 68.6364 215.82 69.2674 215.335 69.7248C214.854 70.1822 214.188 70.4109 213.339 70.4109C212.512 70.4109 211.882 70.2707 211.446 69.9903V69.1394C211.681 69.2994 211.972 69.4253 212.32 69.5172C212.667 69.6057 213.01 69.6499 213.348 69.6499C213.937 69.6499 214.394 69.5029 214.718 69.2088C215.046 68.9148 215.21 68.4894 215.21 67.9326C215.21 66.8476 214.583 66.3051 213.328 66.3051C213.01 66.3051 212.586 66.3568 212.054 66.4596L211.622 66.1669L211.899 62.5294H215.546V63.3435H212.611L212.425 65.6775C212.81 65.5965 213.193 65.5557 213.574 65.5557ZM226.606 70.304V66.5127C226.606 66.0485 226.513 65.7007 226.325 65.4706C226.138 65.2365 225.847 65.1194 225.452 65.1194C224.934 65.1194 224.55 65.2773 224.303 65.5924C224.056 65.9083 223.932 66.3943 223.932 67.0498V70.304H223.099V66.5127C223.099 66.0485 223.005 65.7007 222.818 65.4706C222.631 65.2365 222.338 65.1194 221.94 65.1194C221.418 65.1194 221.035 65.2861 220.79 65.6197C220.55 65.9491 220.429 66.4916 220.429 67.2465V70.304H219.596V64.4761H220.274L220.41 65.2739H220.449C220.607 64.9901 220.828 64.7688 221.112 64.6089C221.399 64.4496 221.721 64.37 222.075 64.37C222.935 64.37 223.497 64.6994 223.761 65.359H223.802C223.965 65.054 224.203 64.8131 224.514 64.6354C224.825 64.4584 225.18 64.37 225.577 64.37C226.2 64.37 226.665 64.5401 226.973 64.8805C227.284 65.2167 227.439 65.7578 227.439 66.5018V70.304H226.606Z" fill="#6D6D6D"/>
<path d="M224.975 54.3561C224.97 54.3561 224.963 54.3575 224.956 54.3561H206.759C206.611 54.3561 206.471 54.2821 206.386 54.1564C206.302 54.0306 206.283 53.8706 206.334 53.728C206.426 53.4744 208.625 47.4735 210.737 45.2353C212.561 43.3018 214.915 42.2803 217.545 42.2803C219.753 42.2803 222.43 43.1223 222.484 43.8345C222.503 44.0759 222.315 44.3106 222.082 44.3476C218.563 44.9179 216.713 46.6685 216.482 48.0539C216.358 48.8078 216.708 49.4554 217.47 49.8758C217.905 50.1179 223.053 52.5026 225.081 53.4395C225.28 53.4892 225.427 53.6722 225.427 53.8907C225.427 54.1476 225.224 54.3561 224.975 54.3561ZM207.422 53.426H222.847C220.68 52.4219 217.417 50.904 217.04 50.6935C215.927 50.0775 215.397 49.058 215.59 47.8959C215.849 46.3403 217.504 44.5453 220.638 43.706C219.883 43.4565 218.793 43.2097 217.545 43.2097C215.133 43.2097 213.061 44.1089 211.388 45.8823C209.789 47.5777 208.046 51.82 207.422 53.426Z" fill="#6D6D6D"/>
<path d="M213.114 171.995H208.318V171.23L210.24 169.16C210.825 168.525 211.211 168.072 211.397 167.801C211.584 167.53 211.724 167.266 211.817 167.01C211.91 166.753 211.956 166.476 211.956 166.18C211.956 165.763 211.838 165.433 211.602 165.19C211.366 164.944 211.038 164.821 210.619 164.821C210.316 164.821 210.028 164.875 209.756 164.982C209.486 165.089 209.185 165.283 208.852 165.565L208.413 164.961C209.086 164.362 209.817 164.062 210.609 164.062C211.294 164.062 211.832 164.251 212.221 164.629C212.61 165.003 212.805 165.508 212.805 166.143C212.805 166.638 212.675 167.129 212.416 167.614C212.156 168.099 211.67 168.712 210.958 169.454L209.362 171.128V171.171H213.114V171.995ZM218.697 168.074C218.697 169.425 218.497 170.435 218.098 171.101C217.702 171.768 217.095 172.102 216.276 172.102C215.491 172.102 214.893 171.762 214.485 171.08C214.075 170.396 213.871 169.394 213.871 168.074C213.871 166.712 214.069 165.7 214.465 165.041C214.86 164.381 215.465 164.051 216.276 164.051C217.068 164.051 217.668 164.395 218.078 165.083C218.49 165.772 218.697 166.769 218.697 168.074ZM214.709 168.074C214.709 169.212 214.834 170.041 215.083 170.561C215.333 171.078 215.73 171.337 216.276 171.337C216.828 171.337 217.228 171.075 217.474 170.551C217.723 170.023 217.848 169.197 217.848 168.074C217.848 166.951 217.723 166.128 217.474 165.608C217.228 165.083 216.828 164.821 216.276 164.821C215.73 164.821 215.333 165.08 215.083 165.597C214.834 166.111 214.709 166.936 214.709 168.074ZM222.408 165.924C222.408 166.508 222.264 166.965 221.978 167.293C221.695 167.618 221.304 167.78 220.805 167.78C220.319 167.78 219.935 167.614 219.652 167.282C219.373 166.951 219.233 166.497 219.233 165.924C219.233 165.342 219.373 164.891 219.652 164.57C219.932 164.245 220.323 164.083 220.825 164.083C221.331 164.083 221.72 164.245 221.993 164.57C222.269 164.894 222.408 165.346 222.408 165.924ZM219.842 165.924C219.842 166.358 219.917 166.685 220.067 166.902C220.22 167.12 220.469 167.229 220.815 167.229C221.164 167.229 221.416 167.12 221.569 166.902C221.722 166.685 221.799 166.358 221.799 165.924C221.799 165.485 221.722 165.16 221.569 164.95C221.416 164.74 221.164 164.634 220.815 164.634C220.473 164.634 220.225 164.74 220.071 164.95C219.919 165.16 219.842 165.485 219.842 165.924Z" fill="#6D6D6D"/>
<path d="M217.65 151.978C217.603 151.978 217.603 151.978 217.556 151.978H212.817C212.532 151.978 212.344 152.178 212.344 152.48C212.344 152.783 212.581 152.983 212.817 152.983H217.553C217.601 152.983 217.601 152.983 217.647 152.983C217.838 153.587 218.359 153.987 218.973 153.987C219.778 153.987 220.395 153.333 220.395 152.478C220.395 151.623 219.778 150.968 218.973 150.968C218.361 150.971 217.841 151.373 217.65 151.978Z" fill="#6D6D6D"/>
<path d="M216.876 150.967H207.816C206.961 150.967 206.306 151.622 206.306 152.477C206.306 153.333 207.011 153.988 207.816 153.988H216.873C217.325 154.593 218.081 154.993 218.886 154.993C220.294 154.993 221.401 153.885 221.401 152.477C221.401 151.069 220.294 149.962 218.886 149.962C218.081 149.962 217.328 150.364 216.876 150.967ZM220.901 152.477C220.901 153.585 219.996 154.491 218.888 154.491C218.133 154.491 217.481 154.088 217.128 153.485H207.816C207.264 153.485 206.811 153.033 206.811 152.48C206.811 151.927 207.264 151.475 207.816 151.475H217.125C217.478 150.869 218.131 150.469 218.886 150.469C219.994 150.464 220.901 151.369 220.901 152.477Z" fill="#6D6D6D"/>
<path d="M209.155 225.94C209.155 227.036 208.852 227.897 208.246 228.524C207.642 229.152 206.802 229.465 205.726 229.465C204.625 229.465 203.775 229.158 203.175 228.543C202.579 227.925 202.28 227.055 202.28 225.931C202.28 224.817 202.581 223.954 203.18 223.343C203.78 222.728 204.632 222.42 205.736 222.42C206.809 222.42 207.648 222.732 208.25 223.357C208.853 223.981 209.155 224.842 209.155 225.94ZM203.201 225.94C203.201 226.867 203.415 227.571 203.845 228.052C204.277 228.529 204.904 228.767 205.726 228.767C206.554 228.767 207.179 228.529 207.601 228.052C208.024 227.574 208.235 226.871 208.235 225.94C208.235 225.02 208.024 224.323 207.601 223.848C207.182 223.371 206.56 223.132 205.736 223.132C204.908 223.132 204.277 223.372 203.845 223.853C203.415 224.33 203.201 225.026 203.201 225.94ZM212.751 229.465C211.923 229.465 211.269 229.234 210.789 228.772C210.312 228.31 210.073 227.669 210.073 226.848C210.073 226.022 210.295 225.364 210.738 224.878C211.184 224.391 211.782 224.148 212.532 224.148C213.234 224.148 213.789 224.36 214.198 224.784C214.607 225.206 214.811 225.763 214.811 226.455V226.947H210.952C210.969 227.549 211.134 228.006 211.448 228.318C211.765 228.63 212.21 228.786 212.782 228.786C213.385 228.786 213.981 228.671 214.571 228.44V229.133C214.271 229.251 213.987 229.335 213.717 229.385C213.451 229.439 213.13 229.465 212.751 229.465ZM212.521 224.798C212.072 224.798 211.712 224.932 211.443 225.201C211.177 225.469 211.02 225.841 210.972 226.315H213.902C213.902 225.825 213.782 225.451 213.544 225.191C213.305 224.929 212.964 224.798 212.521 224.798ZM219.562 227.972C219.562 228.449 219.368 228.818 218.98 229.077C218.591 229.335 218.046 229.465 217.344 229.465C216.601 229.465 216.022 229.358 215.606 229.142V228.421C215.875 228.546 216.163 228.644 216.47 228.716C216.78 228.788 217.078 228.824 217.364 228.824C217.807 228.824 218.148 228.76 218.387 228.632C218.625 228.501 218.744 228.303 218.744 228.037C218.744 227.838 218.649 227.667 218.458 227.527C218.271 227.383 217.903 227.215 217.354 227.022C216.833 226.844 216.462 226.689 216.24 226.558C216.022 226.424 215.858 226.273 215.749 226.104C215.644 225.936 215.591 225.735 215.591 225.5C215.591 225.082 215.777 224.753 216.148 224.513C216.519 224.269 217.029 224.148 217.676 224.148C218.279 224.148 218.868 224.26 219.445 224.485L219.143 225.116C218.581 224.904 218.072 224.798 217.615 224.798C217.213 224.798 216.91 224.856 216.705 224.971C216.501 225.087 216.398 225.246 216.398 225.449C216.398 225.586 216.436 225.704 216.511 225.8C216.589 225.897 216.713 225.989 216.884 226.076C217.054 226.164 217.381 226.29 217.866 226.455C218.53 226.677 218.978 226.9 219.209 227.125C219.445 227.349 219.562 227.632 219.562 227.972ZM222.443 228.824C222.592 228.824 222.738 228.814 222.877 228.796C223.017 228.774 223.128 228.752 223.209 228.73V229.325C223.117 229.365 222.981 229.398 222.8 229.423C222.623 229.451 222.463 229.465 222.32 229.465C221.236 229.465 220.694 228.942 220.694 227.897V224.845H219.892V224.471L220.694 224.148L221.052 223.052H221.543V224.242H223.169V224.845H221.543V227.864C221.543 228.173 221.623 228.41 221.783 228.576C221.943 228.741 222.163 228.824 222.443 228.824ZM226.386 229.465C225.558 229.465 224.904 229.234 224.424 228.772C223.947 228.31 223.708 227.669 223.708 226.848C223.708 226.022 223.93 225.364 224.373 224.878C224.819 224.391 225.417 224.148 226.167 224.148C226.869 224.148 227.424 224.36 227.833 224.784C228.242 225.206 228.446 225.763 228.446 226.455V226.947H224.587C224.604 227.549 224.77 228.006 225.083 228.318C225.4 228.63 225.845 228.786 226.417 228.786C227.02 228.786 227.616 228.671 228.206 228.44V229.133C227.906 229.251 227.622 229.335 227.353 229.385C227.086 229.439 226.764 229.465 226.386 229.465ZM226.156 224.798C225.707 224.798 225.347 224.932 225.078 225.201C224.812 225.469 224.655 225.841 224.607 226.315H227.536C227.536 225.825 227.417 225.451 227.179 225.191C226.94 224.929 226.6 224.798 226.156 224.798Z" fill="#6D6D6D"/>
<path d="M220.282 208.331H209.593C209.445 208.331 209.325 208.188 209.325 208.013C209.325 207.838 209.445 207.696 209.593 207.696H220.23C220.246 207.692 220.264 207.69 220.282 207.69C221.158 207.69 221.87 206.848 221.87 205.812C221.87 204.776 221.158 203.934 220.282 203.934C219.405 203.934 218.693 204.776 218.693 205.812C218.693 205.987 218.573 206.129 218.425 206.129C218.276 206.129 218.156 205.987 218.156 205.812C218.156 204.427 219.11 203.299 220.282 203.299C221.454 203.299 222.407 204.427 222.407 205.812C222.407 207.176 221.484 208.29 220.337 208.324C220.319 208.328 220.301 208.331 220.282 208.331Z" fill="#6D6D6D"/>
<path d="M214.393 206.318H209.574C209.437 206.318 209.325 206.205 209.325 206.065C209.325 205.924 209.437 205.811 209.574 205.811H214.345C214.361 205.808 214.377 205.806 214.393 205.806C215.208 205.806 215.87 205.132 215.87 204.304C215.87 203.475 215.208 202.801 214.393 202.801C213.579 202.801 212.916 203.475 212.916 204.304C212.916 204.444 212.804 204.557 212.666 204.557C212.529 204.557 212.417 204.444 212.417 204.304C212.417 203.195 213.303 202.293 214.393 202.293C215.483 202.293 216.369 203.195 216.369 204.304C216.369 205.395 215.511 206.285 214.445 206.313C214.428 206.317 214.411 206.318 214.393 206.318Z" fill="#6D6D6D"/>
<path d="M217.42 213.363C216.335 213.363 215.451 212.46 215.451 211.35C215.451 211.21 215.563 211.096 215.7 211.096C215.837 211.096 215.949 211.21 215.949 211.35C215.949 212.18 216.608 212.855 217.42 212.855C218.231 212.855 218.891 212.18 218.891 211.35C218.891 210.521 218.231 209.846 217.42 209.846H209.573C209.436 209.846 209.325 209.732 209.325 209.592C209.325 209.451 209.436 209.338 209.573 209.338H217.42C218.505 209.338 219.388 210.24 219.388 211.35C219.388 212.46 218.505 213.363 217.42 213.363Z" fill="#6D6D6D"/>
<path d="M237.503 199.849C237.503 198.42 238.63 197.261 240.019 197.261H242.535V233.49H240.019C238.63 233.49 237.503 232.332 237.503 230.903V199.849Z" fill="#72C9CF"/>
<path d="M237.503 145.505C237.503 144.076 238.63 142.917 240.019 142.917H242.535V179.146H240.019C238.63 179.146 237.503 177.988 237.503 176.559V145.505Z" fill="#72C9CF"/>
<path d="M237.503 97.1273C237.503 95.7378 238.63 94.6113 240.019 94.6113H242.535V129.834H240.019C238.63 129.834 237.503 128.708 237.503 127.318V97.1273Z" fill="#72C9CF"/>
<path d="M237.503 41.777C237.503 40.3876 238.63 39.2611 240.019 39.2611H242.535V74.484H240.019C238.63 74.484 237.503 73.3575 237.503 71.9681V41.777Z" fill="#72C9CF"/>
<path d="M225.094 107.694C225.091 107.694 225.085 107.695 225.081 107.694H211.672C211.562 107.694 211.46 107.645 211.398 107.56C211.335 107.477 211.321 107.37 211.358 107.275C211.427 107.106 213.047 103.106 214.602 101.613C215.947 100.324 217.681 99.6433 219.619 99.6433C221.247 99.6433 223.219 100.205 223.258 100.679C223.272 100.84 223.134 100.997 222.963 101.022C220.37 101.402 219.006 102.569 218.837 103.492C218.744 103.995 219.003 104.426 219.564 104.707C219.884 104.868 223.678 106.458 225.172 107.083C225.319 107.115 225.427 107.237 225.427 107.383C225.427 107.556 225.278 107.694 225.094 107.694ZM212.16 107.074H223.525C221.928 106.405 219.524 105.393 219.246 105.253C218.426 104.842 218.036 104.162 218.178 103.388C218.368 102.35 219.588 101.154 221.898 100.595C221.341 100.427 220.538 100.263 219.619 100.263C217.841 100.263 216.314 100.863 215.082 102.045C213.905 103.176 212.62 106.003 212.16 107.074Z" fill="#6D6D6D"/>
<path fill-rule="evenodd" clip-rule="evenodd" d="M209.938 103.342C209.877 103.315 209.711 103.29 209.325 103.656C208.617 104.328 208.011 105.281 207.576 106.082C207.376 106.45 207.216 106.781 207.101 107.03H211.877C211.814 106.992 211.746 106.942 211.694 106.877C211.332 106.421 211.078 105.877 210.874 105.363C210.78 105.124 210.694 104.886 210.615 104.665C210.609 104.648 210.602 104.631 210.596 104.614C210.511 104.376 210.432 104.16 210.353 103.97C210.273 103.78 210.197 103.63 210.122 103.521C210.046 103.411 209.984 103.362 209.938 103.342ZM214.111 107.037C214.266 107.072 214.371 107.227 214.355 107.396C214.339 107.565 214.206 107.694 214.048 107.694H206.614C206.51 107.694 206.414 107.638 206.356 107.545C206.299 107.451 206.29 107.333 206.331 107.231L206.614 107.362C206.331 107.231 206.331 107.231 206.331 107.231L206.331 107.23L206.332 107.228L206.334 107.222L206.344 107.199C206.352 107.179 206.364 107.149 206.38 107.112C206.412 107.037 206.459 106.93 206.52 106.797C206.641 106.531 206.818 106.161 207.043 105.747C207.489 104.924 208.136 103.9 208.916 103.159C209.338 102.758 209.761 102.548 210.171 102.727C210.36 102.809 210.505 102.961 210.618 103.126C210.731 103.29 210.828 103.489 210.915 103.697C211.003 103.906 211.087 104.138 211.172 104.374C211.178 104.391 211.184 104.407 211.19 104.423C211.27 104.647 211.352 104.875 211.442 105.103C211.635 105.591 211.858 106.058 212.155 106.435C212.159 106.438 212.176 106.451 212.217 106.472C212.276 106.503 212.355 106.537 212.454 106.574C212.652 106.649 212.9 106.725 213.148 106.794C213.395 106.863 213.636 106.924 213.816 106.968C213.905 106.99 213.979 107.007 214.031 107.019L214.09 107.033L214.106 107.036L214.111 107.037C214.111 107.037 214.111 107.037 214.111 107.037Z" fill="#6D6D6D"/>
<path d="M211.046 123.701H210.208V118.748C210.208 118.336 210.222 117.946 210.249 117.578C210.177 117.645 210.095 117.715 210.006 117.788C209.917 117.861 209.506 118.17 208.774 118.714L208.318 118.173L210.322 116.751H211.046V123.701ZM215.977 119.456C216.775 119.456 217.401 119.639 217.857 120.003C218.316 120.364 218.545 120.86 218.545 121.491C218.545 122.21 218.295 122.774 217.794 123.183C217.297 123.592 216.611 123.796 215.734 123.796C214.882 123.796 214.231 123.671 213.783 123.421V122.66C214.024 122.802 214.324 122.915 214.683 122.997C215.043 123.077 215.396 123.116 215.745 123.116C216.352 123.116 216.823 122.985 217.158 122.722C217.496 122.459 217.665 122.078 217.665 121.581C217.665 120.611 217.018 120.127 215.724 120.127C215.396 120.127 214.958 120.172 214.409 120.264L213.964 120.003L214.249 116.751H218.012V117.479H214.984L214.792 119.566C215.189 119.493 215.585 119.456 215.977 119.456ZM223.414 122.28C223.414 122.765 223.218 123.138 222.824 123.402C222.431 123.665 221.879 123.796 221.168 123.796C220.415 123.796 219.829 123.687 219.408 123.468V122.736C219.68 122.863 219.972 122.962 220.282 123.036C220.596 123.109 220.899 123.145 221.188 123.145C221.637 123.145 221.982 123.08 222.224 122.95C222.465 122.817 222.586 122.616 222.586 122.346C222.586 122.144 222.49 121.971 222.296 121.828C222.106 121.682 221.734 121.511 221.178 121.315C220.65 121.134 220.274 120.977 220.049 120.844C219.829 120.708 219.663 120.554 219.552 120.383C219.446 120.212 219.392 120.007 219.392 119.77C219.392 119.345 219.58 119.011 219.956 118.767C220.332 118.52 220.848 118.396 221.504 118.396C222.115 118.396 222.712 118.51 223.295 118.738L222.99 119.38C222.42 119.165 221.904 119.057 221.442 119.057C221.034 119.057 220.728 119.115 220.52 119.233C220.314 119.35 220.21 119.511 220.21 119.718C220.21 119.857 220.248 119.976 220.323 120.074C220.403 120.172 220.529 120.266 220.702 120.355C220.874 120.444 221.205 120.571 221.696 120.74C222.368 120.964 222.822 121.191 223.057 121.419C223.295 121.648 223.414 121.934 223.414 122.28Z" fill="#6D6D6D"/>
<path d="M90.0701 214.369C134.256 214.369 170.076 178.549 170.076 134.363C170.076 90.1767 134.256 54.3567 90.0701 54.3567C45.8838 54.3567 10.0637 90.1767 10.0637 134.363C10.0637 178.549 45.8838 214.369 90.0701 214.369Z" fill="url(#paint0_linear)" fill-opacity="0.4"/>
<path d="M92.2503 223.427L27.1719 185.142L92.9213 156L155.987 184.844L92.2503 223.427Z" fill="#FFDE79"/>
<path d="M92.5859 231.478L27.1719 193.742V185.185L92.5454 223.305L92.5859 231.478Z" fill="#FFDE79"/>
<path d="M91.6197 231.478L154.981 194.037V185.185L91.5796 223.272L91.6197 231.478Z" fill="#FFDE79"/>
<path d="M133.847 95.6178C144.407 95.6178 152.968 87.0569 152.968 76.4971C152.968 65.9366 144.407 57.3757 133.847 57.3757C123.287 57.3757 114.726 65.9366 114.726 76.4971C114.726 87.0569 123.287 95.6178 133.847 95.6178Z" fill="url(#paint1_radial)"/>
<path d="M133.847 88.5733C140.517 88.5733 145.924 83.1665 145.924 76.4968C145.924 69.8272 140.517 64.4204 133.847 64.4204C127.178 64.4204 121.771 69.8272 121.771 76.4968C121.771 83.1665 127.178 88.5733 133.847 88.5733Z" fill="white"/>
<path d="M133.847 88.5733C140.517 88.5733 145.924 83.1665 145.924 76.4968C145.924 69.8272 140.517 64.4204 133.847 64.4204C127.178 64.4204 121.771 69.8272 121.771 76.4968C121.771 83.1665 127.178 88.5733 133.847 88.5733Z" fill="url(#paint2_linear)"/>
<path opacity="0.7" d="M91.5795 223.427L27.1719 185.147V150.968L91.5333 186.855L91.5795 223.427Z" fill="url(#paint3_linear)"/>
<path opacity="0.5" d="M91.5796 224.433L154.975 185.012L154.981 150.968L91.5796 186.773V224.433Z" fill="url(#paint4_linear)"/>
<path d="M145.659 153.987L131.834 189.21L134 188.732L147.936 156.408L145.659 153.987Z" fill="url(#paint5_linear)"/>
<path d="M112.329 171.095L92.5859 212.664L93.8593 214.369L114.726 172.077L112.329 171.095Z" fill="url(#paint6_linear)"/>
<path d="M101.28 171.095L84.5352 207.653L85.8244 209.338L103.656 172.48L101.28 171.095Z" fill="url(#paint7_linear)"/>
<path d="M89.117 169.083L70.4458 207.653L71.7122 209.338L91.5796 171.016L89.117 169.083Z" fill="url(#paint8_linear)"/>
<path d="M86.2998 157.006L64.4077 200.055L66.5057 201.287L90.5733 157.526L86.2998 157.006Z" fill="url(#paint9_linear)"/>
<path d="M94.8103 157.182L74.4712 191.969L76.4841 193.236L98.6241 157.006L94.8103 157.182Z" fill="url(#paint10_linear)"/>
<path d="M92.9941 151.974L76.4841 182.954L78.654 184.178L95.6051 153.89L92.9941 151.974Z" fill="url(#paint11_linear)"/>
<path d="M96.9107 134.822L67.4268 185.52L68.7028 187.197L106.675 133.86L96.9107 134.822Z" fill="url(#paint12_linear)"/>
<path d="M77.7088 150.968L56.3567 191L58.4164 192.229L79.5032 153.416L77.7088 150.968Z" fill="url(#paint13_linear)"/>
<path d="M91.1001 131.847L66.4204 179.914L68.4916 181.159L93.5924 133.794L91.1001 131.847Z" fill="url(#paint14_linear)"/>
<path d="M76.6051 142.917L58.3694 181.46L59.6435 183.172L77.4904 149.265L76.6051 142.917Z" fill="url(#paint15_linear)"/>
<path d="M131.202 169.801L122.777 193.236L125.078 192.469L135.86 167.07L131.202 169.801Z" fill="url(#paint16_linear)"/>
<path d="M128.782 144.93L105.669 201.287L120.628 195.584L136.866 149.891C136.866 149.891 133.133 149.089 132.062 148.42C131.053 147.79 128.782 144.93 128.782 144.93Z" fill="url(#paint17_linear)"/>
<path d="M80.4329 120.086L49.312 190.987L51.3513 192.229L84.5349 118.764L80.4329 120.086Z" fill="url(#paint18_linear)"/>
<path d="M57.0331 137.336L35.2229 184.201L36.8916 185.185L60.3821 136.879L57.0331 137.336Z" fill="url(#paint19_linear)"/>
<path d="M63.4677 135.922C63.0911 135.989 42.2676 187.05 42.2676 187.05L53.0485 194.242L72.4587 139.842C72.4587 139.841 66.6347 135.357 63.4677 135.922Z" fill="url(#paint20_linear)"/>
<path d="M50.209 164.051L39.2485 187.974L41.2895 189.21L52.3313 165.336L50.209 164.051Z" fill="url(#paint21_linear)"/>
<path d="M45.2286 140.811L29.1846 185.198L30.8408 186.191L49.312 138.892L45.2286 140.811Z" fill="url(#paint22_linear)"/>
<path opacity="0.9" d="M92.1344 187.197L28.1782 151.863L91.6906 114.739L154.981 151.415L92.1344 187.197Z" fill="url(#paint23_linear)"/>
<path opacity="0.6" d="M154.598 150.623C157.62 150.546 142.256 159.198 125.987 167.946C123.127 169.484 135.973 156.864 129.082 157.222C85.3374 159.497 83.3689 156.712 77.777 151.626C74.0444 148.23 77.8387 143.794 71.515 138.866C65.7799 134.397 48.7312 140.133 51.6603 138.311C66.2456 129.237 88.339 114.362 88.4854 120.009C89.151 145.669 104.808 127.445 119.765 135.538C135.958 144.3 119.77 151.511 154.598 150.623Z" fill="url(#paint24_linear)"/>
<path opacity="0.3" d="M97.9986 157.006L74.4712 202.098L99.1372 217.389L115.732 165.944C115.732 165.944 112.299 160.336 108.021 159.315C104.712 158.525 97.9986 157.006 97.9986 157.006Z" fill="url(#paint25_linear)"/>
<path opacity="0.6" d="M101.192 182.22L91.8991 187.197L27.1719 151.709L35.4369 147.754C35.4369 147.754 57.8462 130.52 70.9496 139.442C83.8413 148.22 71.8429 149.999 81.2241 155.054C96.1702 163.11 122.458 151.913 130.213 155.947C143.648 162.936 101.192 182.22 101.192 182.22Z" fill="url(#paint26_linear)"/>
<path opacity="0.5" d="M75.2847 142.946C75.0802 142.983 62.2819 150.048 50.3374 163.422C49.806 164.017 60.558 169.083 60.558 169.083L77.2585 150.021C77.2585 150.02 78.4879 142.389 75.2847 142.946Z" fill="url(#paint27_linear)"/>
<path opacity="0.3" d="M107.293 132.854C107.293 132.854 82.6796 154.342 83.5514 155.252C86.2127 158.03 105.294 156.677 105.294 156.677L124.79 141.84C124.79 141.84 121.402 136.202 117.181 135.175C113.917 134.381 107.293 132.854 107.293 132.854Z" fill="url(#paint28_linear)"/>
<path d="M56.3567 100.123C56.3567 100.123 47.986 100.005 45.2404 100.441C42.822 100.824 39.0346 102.265 35.9162 103.434C32.6259 104.669 22.1401 100.626 22.1401 100.626C22.1401 100.626 22.1686 89.3576 31.8974 92.1361C34.0057 92.7381 36.1588 84.9109 43.8231 88.5235C44.7058 88.9396 47.0139 90.5975 47.9933 94.5134C48.2003 95.3404 50.9581 93.1379 52.5458 93.9844C55.9287 95.7885 56.3567 100.123 56.3567 100.123Z" fill="url(#paint29_linear)"/>
<path d="M56.2915 100.401C56.5291 101.081 56.3293 105.704 51.9684 108.054C48.0657 110.156 40.7932 110.143 28.1512 108.637C22.9737 108.02 21.8124 101.507 22.2125 100.914C23.9577 98.3219 31.7473 101.112 34.8227 100.994C37.3169 100.898 39.5243 99.2557 41.5589 98.2462C44.7077 96.682 55.5757 98.3544 56.2915 100.401Z" fill="url(#paint30_linear)"/>
<path d="M99.0518 82.4982C27.4041 103.254 31.9282 91.4179 110.701 75.4905L99.0518 82.4982Z" fill="url(#paint31_linear)"/>
<path d="M96.6114 68.6017C96.6114 68.6017 85.0404 68.4397 81.2442 69.0385C77.9019 69.566 72.6664 71.5468 68.3552 73.1552C63.8072 74.8531 49.312 69.2931 49.312 69.2931C49.312 69.2931 49.352 53.7993 62.8 57.6204C65.7142 58.4479 68.6903 47.6853 79.2854 52.6529C80.5054 53.2251 83.6957 55.5047 85.0499 60.8888C85.3354 62.0264 89.1474 58.9975 91.3427 60.1616C96.0201 62.6422 96.6114 68.6017 96.6114 68.6017Z" fill="url(#paint32_linear)"/>
<path d="M97.5259 68.3459C97.8608 69.3087 97.5789 75.8581 91.4224 79.1871C85.9133 82.1648 75.6458 82.1463 57.7983 80.013C50.4887 79.1388 48.8492 69.9125 49.4142 69.0706C51.8786 65.3998 62.8748 69.3517 67.2168 69.185C70.738 69.0501 73.8538 66.7231 76.7264 65.292C81.1724 63.0774 96.5151 65.4454 97.5259 68.3459Z" fill="url(#paint33_linear)"/>
</g>
<defs>
<linearGradient id="paint0_linear" x1="90.0701" y1="54.3567" x2="90.0701" y2="214.37" gradientUnits="userSpaceOnUse">
<stop stop-color="#2283FF" stop-opacity="0.1"/>
<stop offset="1" stop-color="#00B8E9" stop-opacity="0.5"/>
</linearGradient>
<radialGradient id="paint1_radial" cx="0" cy="0" r="1" gradientUnits="userSpaceOnUse" gradientTransform="translate(133.847 76.4971) scale(19.121)">
<stop offset="0.3118" stop-color="white"/>
<stop offset="1" stop-color="white" stop-opacity="0.1"/>
</radialGradient>
<linearGradient id="paint2_linear" x1="125.308" y1="67.9573" x2="142.387" y2="85.0363" gradientUnits="userSpaceOnUse">
<stop stop-color="#FFDE55" stop-opacity="0.4"/>
<stop offset="0.8065" stop-color="#FFDE55"/>
</linearGradient>
<linearGradient id="paint3_linear" x1="36.5231" y1="145.767" x2="82.8863" y2="225.114" gradientUnits="userSpaceOnUse">
<stop stop-color="#00A99D"/>
<stop offset="0.1133" stop-color="#009FA2"/>
<stop offset="0.5621" stop-color="#007EB5"/>
<stop offset="0.8065" stop-color="#0071BC"/>
</linearGradient>
<linearGradient id="paint4_linear" x1="116.011" y1="172.846" x2="130.57" y2="197.978" gradientUnits="userSpaceOnUse">
<stop stop-color="#00A99D"/>
<stop offset="0.1133" stop-color="#009FA2"/>
<stop offset="0.5621" stop-color="#007EB5"/>
<stop offset="0.8065" stop-color="#0071BC"/>
</linearGradient>
<linearGradient id="paint5_linear" x1="131.834" y1="171.599" x2="147.936" y2="171.599" gradientUnits="userSpaceOnUse">
<stop stop-color="white" stop-opacity="0"/>
<stop offset="1" stop-color="white" stop-opacity="0.5"/>
</linearGradient>
<linearGradient id="paint6_linear" x1="92.5866" y1="192.732" x2="114.726" y2="192.732" gradientUnits="userSpaceOnUse">
<stop stop-color="white" stop-opacity="0"/>
<stop offset="1" stop-color="white" stop-opacity="0.5"/>
</linearGradient>
<linearGradient id="paint7_linear" x1="84.5352" y1="190.216" x2="103.656" y2="190.216" gradientUnits="userSpaceOnUse">
<stop stop-color="white" stop-opacity="0"/>
<stop offset="1" stop-color="white" stop-opacity="0.5"/>
</linearGradient>
<linearGradient id="paint8_linear" x1="70.4458" y1="189.21" x2="91.5796" y2="189.21" gradientUnits="userSpaceOnUse">
<stop stop-color="white" stop-opacity="0"/>
<stop offset="0.0484" stop-color="white" stop-opacity="0.01"/>
<stop offset="1" stop-color="white" stop-opacity="0.2"/>
</linearGradient>
<linearGradient id="paint9_linear" x1="64.4078" y1="179.146" x2="90.5733" y2="179.146" gradientUnits="userSpaceOnUse">
<stop stop-color="white" stop-opacity="0"/>
<stop offset="1" stop-color="white" stop-opacity="0.5"/>
</linearGradient>
<linearGradient id="paint10_linear" x1="74.4712" y1="175.122" x2="98.6241" y2="175.122" gradientUnits="userSpaceOnUse">
<stop stop-color="white" stop-opacity="0"/>
<stop offset="1" stop-color="white" stop-opacity="0.5"/>
</linearGradient>
<linearGradient id="paint11_linear" x1="76.4841" y1="168.077" x2="95.6051" y2="168.077" gradientUnits="userSpaceOnUse">
<stop stop-color="white" stop-opacity="0"/>
<stop offset="1" stop-color="white" stop-opacity="0.1"/>
</linearGradient>
<linearGradient id="paint12_linear" x1="67.4268" y1="160.528" x2="106.675" y2="160.528" gradientUnits="userSpaceOnUse">
<stop stop-color="white" stop-opacity="0"/>
<stop offset="1" stop-color="white" stop-opacity="0.5"/>
</linearGradient>
<linearGradient id="paint13_linear" x1="56.3569" y1="171.599" x2="79.5032" y2="171.599" gradientUnits="userSpaceOnUse">
<stop stop-color="white" stop-opacity="0"/>
<stop offset="1" stop-color="white" stop-opacity="0.5"/>
</linearGradient>
<linearGradient id="paint14_linear" x1="66.4204" y1="156.503" x2="93.5924" y2="156.503" gradientUnits="userSpaceOnUse">
<stop stop-color="white" stop-opacity="0"/>
<stop offset="1" stop-color="white" stop-opacity="0.1"/>
</linearGradient>
<linearGradient id="paint15_linear" x1="58.3695" y1="163.045" x2="77.4904" y2="163.045" gradientUnits="userSpaceOnUse">
<stop stop-color="white" stop-opacity="0"/>
<stop offset="1" stop-color="white" stop-opacity="0.5"/>
</linearGradient>
<linearGradient id="paint16_linear" x1="122.778" y1="180.153" x2="135.86" y2="180.153" gradientUnits="userSpaceOnUse">
<stop stop-color="white" stop-opacity="0"/>
<stop offset="1" stop-color="white" stop-opacity="0.5"/>
</linearGradient>
<linearGradient id="paint17_linear" x1="129.275" y1="180.237" x2="113.802" y2="171.519" gradientUnits="userSpaceOnUse">
<stop stop-color="white" stop-opacity="0"/>
<stop offset="0.9787" stop-color="white" stop-opacity="0.4894"/>
<stop offset="1" stop-color="white" stop-opacity="0.5"/>
</linearGradient>
<linearGradient id="paint18_linear" x1="49.3122" y1="155.497" x2="84.5356" y2="155.497" gradientUnits="userSpaceOnUse">
<stop stop-color="white" stop-opacity="0"/>
<stop offset="1" stop-color="white" stop-opacity="0.3"/>
</linearGradient>
<linearGradient id="paint19_linear" x1="35.2229" y1="161.031" x2="60.3819" y2="161.031" gradientUnits="userSpaceOnUse">
<stop stop-color="white" stop-opacity="0"/>
<stop offset="1" stop-color="white" stop-opacity="0.5"/>
</linearGradient>
<linearGradient id="paint20_linear" x1="67.0626" y1="169.467" x2="49.9548" y2="159.789" gradientUnits="userSpaceOnUse">
<stop stop-color="white" stop-opacity="0"/>
<stop offset="0.9787" stop-color="white" stop-opacity="0.4894"/>
<stop offset="1" stop-color="white" stop-opacity="0.5"/>
</linearGradient>
<linearGradient id="paint21_linear" x1="39.2487" y1="176.631" x2="52.3313" y2="176.631" gradientUnits="userSpaceOnUse">
<stop stop-color="white" stop-opacity="0"/>
<stop offset="1" stop-color="white" stop-opacity="0.5"/>
</linearGradient>
<linearGradient id="paint22_linear" x1="29.1846" y1="162.541" x2="49.312" y2="162.541" gradientUnits="userSpaceOnUse">
<stop stop-color="white" stop-opacity="0"/>
<stop offset="1" stop-color="white" stop-opacity="0.5"/>
</linearGradient>
<linearGradient id="paint23_linear" x1="75.633" y1="179.454" x2="107.863" y2="124.02" gradientUnits="userSpaceOnUse">
<stop stop-color="#00A99D"/>
<stop offset="0.1133" stop-color="#009FA2"/>
<stop offset="0.5621" stop-color="#007EB5"/>
<stop offset="0.8065" stop-color="#0071BC"/>
</linearGradient>
<linearGradient id="paint24_linear" x1="92.8323" y1="162.599" x2="113.516" y2="126.774" gradientUnits="userSpaceOnUse">
<stop stop-color="#00A99D"/>
<stop offset="0.1133" stop-color="#009FA2"/>
<stop offset="0.5621" stop-color="#007EB5"/>
<stop offset="0.8065" stop-color="#0071BC"/>
</linearGradient>
<linearGradient id="paint25_linear" x1="112.852" y1="193.551" x2="85.8956" y2="178.042" gradientUnits="userSpaceOnUse">
<stop stop-color="white" stop-opacity="0"/>
<stop offset="0.9787" stop-color="white" stop-opacity="0.4894"/>
<stop offset="1" stop-color="white" stop-opacity="0.5"/>
</linearGradient>
<linearGradient id="paint26_linear" x1="68.7205" y1="175.664" x2="92.5974" y2="134.25" gradientUnits="userSpaceOnUse">
<stop stop-color="#00A99D"/>
<stop offset="0.1133" stop-color="#009FA2"/>
<stop offset="0.5621" stop-color="#007EB5"/>
<stop offset="0.8065" stop-color="#0071BC"/>
</linearGradient>
<linearGradient id="paint27_linear" x1="72.2885" y1="158.591" x2="57.9552" y2="150.28" gradientUnits="userSpaceOnUse">
<stop stop-color="white" stop-opacity="0"/>
<stop offset="0.9787" stop-color="white" stop-opacity="0.4894"/>
<stop offset="1" stop-color="white" stop-opacity="0.5"/>
</linearGradient>
<linearGradient id="paint28_linear" x1="117.312" y1="155.085" x2="91.7019" y2="140.627" gradientUnits="userSpaceOnUse">
<stop stop-color="white" stop-opacity="0"/>
<stop offset="0.9787" stop-color="white" stop-opacity="0.4894"/>
<stop offset="1" stop-color="white" stop-opacity="0.5"/>
</linearGradient>
<linearGradient id="paint29_linear" x1="22.1399" y1="95.6176" x2="56.3564" y2="95.6176" gradientUnits="userSpaceOnUse">
<stop offset="0.0054" stop-color="#DDDDDD"/>
<stop offset="0.4413" stop-color="#EEEEEE" stop-opacity="0.9562"/>
<stop offset="1" stop-color="white" stop-opacity="0.9"/>
</linearGradient>
<linearGradient id="paint30_linear" x1="34.5221" y1="93.4341" x2="45.4311" y2="111.92" gradientUnits="userSpaceOnUse">
<stop offset="0.0054" stop-color="#DDDDDD"/>
<stop offset="0.4413" stop-color="#EEEEEE" stop-opacity="0.9562"/>
<stop offset="1" stop-color="white" stop-opacity="0.9"/>
</linearGradient>
<linearGradient id="paint31_linear" x1="85.5537" y1="70.207" x2="79.3171" y2="99.8921" gradientUnits="userSpaceOnUse">
<stop offset="0.0108" stop-color="white" stop-opacity="0.1"/>
<stop offset="1" stop-color="white" stop-opacity="0.7"/>
</linearGradient>
<linearGradient id="paint32_linear" x1="49.3119" y1="62.4077" x2="96.6114" y2="62.4077" gradientUnits="userSpaceOnUse">
<stop offset="0.0054" stop-color="#DDDDDD"/>
<stop offset="0.4413" stop-color="#EEEEEE" stop-opacity="0.9562"/>
<stop offset="1" stop-color="white" stop-opacity="0.9"/>
</linearGradient>
<linearGradient id="paint33_linear" x1="66.7926" y1="58.4741" x2="82.2736" y2="84.6167" gradientUnits="userSpaceOnUse">
<stop offset="0.0054" stop-color="#DDDDDD"/>
<stop offset="0.4413" stop-color="#EEEEEE" stop-opacity="0.9562"/>
<stop offset="1" stop-color="white" stop-opacity="0.9"/>
</linearGradient>
</defs>
</svg>
