<svg width="244" height="316" viewBox="0 0 244 316" fill="none" xmlns="http://www.w3.org/2000/svg">
<mask id="mask0" mask-type="alpha" maskUnits="userSpaceOnUse" x="0" y="0" width="244" height="316">
<rect width="244" height="316" fill="#C4C4C4"/>
</mask>
<g mask="url(#mask0)">
<path d="M250.655 -60H0.353027V481.988H250.655V-60Z" fill="#FFFFFE"/>
<g filter="url(#filter0_d)">
<path d="M95.1342 0.740019C100.295 0.740019 104.479 -3.44371 104.479 -8.6046C104.479 -13.7655 100.295 -17.9492 95.1342 -17.9492C89.9733 -17.9492 85.7896 -13.7655 85.7896 -8.6046C85.7896 -3.44371 89.9733 0.740019 95.1342 0.740019Z" fill="#BB6BD9"/>
</g>
<path d="M66.6676 0.406327C71.7739 0.406327 75.9134 -3.73314 75.9134 -8.83944C75.9134 -13.9457 71.7739 -18.0852 66.6676 -18.0852C61.5613 -18.0852 57.4219 -13.9457 57.4219 -8.83944C57.4219 -3.73314 61.5613 0.406327 66.6676 0.406327Z" fill="white"/>
<path fill-rule="evenodd" clip-rule="evenodd" d="M66.6679 -17.7515C61.7459 -17.7515 57.7559 -13.7614 57.7559 -8.83944C57.7559 -3.91746 61.7459 0.0725872 66.6679 0.0725872C71.5899 0.0725872 75.5799 -3.91746 75.5799 -8.83944C75.5799 -13.7614 71.5899 -17.7515 66.6679 -17.7515ZM57.0884 -8.83944C57.0884 -14.1301 61.3773 -18.4189 66.6679 -18.4189C71.9585 -18.4189 76.2474 -14.1301 76.2474 -8.83944C76.2474 -3.54883 71.9585 0.74006 66.6679 0.74006C61.3773 0.74006 57.0884 -3.54883 57.0884 -8.83944Z" fill="#F2F2F2"/>
<path d="M121.833 0.406287C126.81 0.406287 130.844 -3.62802 130.844 -8.6046C130.844 -13.5812 126.81 -17.6155 121.833 -17.6155C116.857 -17.6155 112.822 -13.5812 112.822 -8.6046C112.822 -3.62802 116.857 0.406287 121.833 0.406287Z" fill="white"/>
<path fill-rule="evenodd" clip-rule="evenodd" d="M121.833 -17.2817C117.041 -17.2817 113.156 -13.3969 113.156 -8.6046C113.156 -3.81234 117.041 0.0725463 121.833 0.0725463C126.625 0.0725463 130.51 -3.81234 130.51 -8.6046C130.51 -13.3969 126.625 -17.2817 121.833 -17.2817ZM112.489 -8.6046C112.489 -13.7655 116.672 -17.9492 121.833 -17.9492C126.994 -17.9492 131.178 -13.7655 131.178 -8.6046C131.178 -3.44371 126.994 0.740019 121.833 0.740019C116.672 0.740019 112.489 -3.44371 112.489 -8.6046Z" fill="#F2F2F2"/>
<path d="M148.532 0.406287C153.509 0.406287 157.543 -3.62802 157.543 -8.6046C157.543 -13.5812 153.509 -17.6155 148.532 -17.6155C143.556 -17.6155 139.521 -13.5812 139.521 -8.6046C139.521 -3.62802 143.556 0.406287 148.532 0.406287Z" fill="white"/>
<path fill-rule="evenodd" clip-rule="evenodd" d="M148.532 -17.2817C143.74 -17.2817 139.855 -13.3969 139.855 -8.6046C139.855 -3.81234 143.74 0.0725463 148.532 0.0725463C153.324 0.0725463 157.209 -3.81234 157.209 -8.6046C157.209 -13.3969 153.324 -17.2817 148.532 -17.2817ZM139.187 -8.6046C139.187 -13.7655 143.371 -17.9492 148.532 -17.9492C153.693 -17.9492 157.876 -13.7655 157.876 -8.6046C157.876 -3.44371 153.693 0.740019 148.532 0.740019C143.371 0.740019 139.187 -3.44371 139.187 -8.6046Z" fill="#F2F2F2"/>
<path d="M175.231 0.406287C180.208 0.406287 184.242 -3.62802 184.242 -8.6046C184.242 -13.5812 180.208 -17.6155 175.231 -17.6155C170.255 -17.6155 166.22 -13.5812 166.22 -8.6046C166.22 -3.62802 170.255 0.406287 175.231 0.406287Z" fill="white"/>
<path fill-rule="evenodd" clip-rule="evenodd" d="M175.231 -17.2817C170.439 -17.2817 166.554 -13.3969 166.554 -8.6046C166.554 -3.81234 170.439 0.0725463 175.231 0.0725463C180.023 0.0725463 183.908 -3.81234 183.908 -8.6046C183.908 -13.3969 180.023 -17.2817 175.231 -17.2817ZM165.886 -8.6046C165.886 -13.7655 170.07 -17.9492 175.231 -17.9492C180.392 -17.9492 184.575 -13.7655 184.575 -8.6046C184.575 -3.44371 180.392 0.740019 175.231 0.740019C170.07 0.740019 165.886 -3.44371 165.886 -8.6046Z" fill="#F2F2F2"/>
<path d="M201.93 0.406287C206.907 0.406287 210.941 -3.62802 210.941 -8.6046C210.941 -13.5812 206.907 -17.6155 201.93 -17.6155C196.953 -17.6155 192.919 -13.5812 192.919 -8.6046C192.919 -3.62802 196.953 0.406287 201.93 0.406287Z" fill="white"/>
<path fill-rule="evenodd" clip-rule="evenodd" d="M201.93 -17.2817C197.138 -17.2817 193.253 -13.3969 193.253 -8.6046C193.253 -3.81234 197.138 0.0725463 201.93 0.0725463C206.722 0.0725463 210.607 -3.81234 210.607 -8.6046C210.607 -13.3969 206.722 -17.2817 201.93 -17.2817ZM192.585 -8.6046C192.585 -13.7655 196.769 -17.9492 201.93 -17.9492C207.091 -17.9492 211.274 -13.7655 211.274 -8.6046C211.274 -3.44371 207.091 0.740019 201.93 0.740019C196.769 0.740019 192.585 -3.44371 192.585 -8.6046Z" fill="#F2F2F2"/>
<path d="M228.629 0.406287C233.605 0.406287 237.64 -3.62802 237.64 -8.6046C237.64 -13.5812 233.605 -17.6155 228.629 -17.6155C223.652 -17.6155 219.618 -13.5812 219.618 -8.6046C219.618 -3.62802 223.652 0.406287 228.629 0.406287Z" fill="white"/>
<path fill-rule="evenodd" clip-rule="evenodd" d="M228.629 -17.2817C223.836 -17.2817 219.951 -13.3969 219.951 -8.6046C219.951 -3.81234 223.836 0.0725463 228.629 0.0725463C233.421 0.0725463 237.306 -3.81234 237.306 -8.6046C237.306 -13.3969 233.421 -17.2817 228.629 -17.2817ZM219.284 -8.6046C219.284 -13.7655 223.468 -17.9492 228.629 -17.9492C233.789 -17.9492 237.973 -13.7655 237.973 -8.6046C237.973 -3.44371 233.789 0.740019 228.629 0.740019C223.468 0.740019 219.284 -3.44371 219.284 -8.6046Z" fill="#F2F2F2"/>
<path d="M250.655 0.406287C255.632 0.406287 259.666 -3.62802 259.666 -8.6046C259.666 -13.5812 255.632 -17.6155 250.655 -17.6155C245.679 -17.6155 241.645 -13.5812 241.645 -8.6046C241.645 -3.62802 245.679 0.406287 250.655 0.406287Z" fill="white"/>
<path fill-rule="evenodd" clip-rule="evenodd" d="M250.655 -17.2817C245.863 -17.2817 241.978 -13.3969 241.978 -8.6046C241.978 -3.81234 245.863 0.0725463 250.655 0.0725463C255.448 0.0725463 259.333 -3.81234 259.333 -8.6046C259.333 -13.3969 255.448 -17.2817 250.655 -17.2817ZM241.311 -8.6046C241.311 -13.7655 245.495 -17.9492 250.655 -17.9492C255.816 -17.9492 260 -13.7655 260 -8.6046C260 -3.44371 255.816 0.740019 250.655 0.740019C245.495 0.740019 241.311 -3.44371 241.311 -8.6046Z" fill="#F2F2F2"/>
<path d="M69.7704 160.266H19.0425C18.6738 160.266 18.375 160.565 18.375 160.933C18.375 161.302 18.6738 161.601 19.0425 161.601H69.7704C70.139 161.601 70.4379 161.302 70.4379 160.933C70.4379 160.565 70.139 160.266 69.7704 160.266Z" fill="#32B9CC"/>
<path d="M20.3459 145.351H21.1033C21.6114 145.351 21.9794 145.257 22.2075 145.068C22.4357 144.879 22.5498 144.6 22.5498 144.229C22.5498 143.852 22.4265 143.581 22.1802 143.416C21.9337 143.252 21.5626 143.17 21.0668 143.17H20.3459V145.351ZM20.3459 146.254V148.919H19.2554V142.248H21.1398C22.0007 142.248 22.6379 142.409 23.0516 142.732C23.4653 143.055 23.6722 143.541 23.6722 144.192C23.6722 145.022 23.2402 145.614 22.3763 145.967L24.2608 148.919H23.0197L21.4227 146.254H20.3459ZM26.8552 149.01C26.0704 149.01 25.4559 148.782 25.0119 148.326C24.5707 147.866 24.3502 147.236 24.3502 146.432C24.3502 145.608 24.5556 144.96 24.9662 144.488C25.3768 144.017 25.9411 143.781 26.659 143.781C27.3252 143.781 27.8514 143.984 28.2378 144.388C28.624 144.793 28.8172 145.349 28.8172 146.058V146.638H25.4544C25.4696 147.128 25.602 147.505 25.8514 147.769C26.1008 148.031 26.4521 148.161 26.9054 148.161C27.2035 148.161 27.4803 148.134 27.7358 148.079C27.9944 148.022 28.2712 147.927 28.5663 147.796V148.668C28.3046 148.793 28.04 148.881 27.7723 148.933C27.5047 148.984 27.1989 149.01 26.8552 149.01ZM26.659 144.594C26.3183 144.594 26.0446 144.701 25.8377 144.918C25.6339 145.133 25.5122 145.448 25.4727 145.862H27.7632C27.7571 145.445 27.6567 145.13 27.4621 144.918C27.2674 144.701 26.9997 144.594 26.659 144.594ZM32.1006 144.685H30.8687V148.919H29.7918V144.685H28.9614V144.183L29.7918 143.854V143.526C29.7918 142.93 29.9317 142.489 30.2116 142.203C30.4915 141.914 30.9189 141.769 31.4938 141.769C31.8709 141.769 32.2421 141.832 32.6071 141.956L32.3242 142.768C32.0595 142.683 31.8071 142.641 31.5668 142.641C31.3234 142.641 31.1455 142.717 31.0329 142.869C30.9234 143.018 30.8687 143.243 30.8687 143.544V143.872H32.1006V144.685ZM35.0555 143.781C35.2714 143.781 35.4494 143.797 35.5893 143.827L35.4844 144.826C35.3323 144.789 35.1741 144.771 35.0099 144.771C34.5809 144.771 34.2327 144.912 33.9649 145.191C33.7003 145.471 33.568 145.835 33.568 146.282V148.919H32.4958V143.872H33.3353L33.4767 144.762H33.5315C33.6988 144.461 33.9163 144.223 34.184 144.046C34.4547 143.87 34.7452 143.781 35.0555 143.781ZM37.1343 148.919H36.062V143.872H37.1343V148.919ZM35.9981 142.536C35.9981 142.344 36.0499 142.196 36.1532 142.093C36.2598 141.989 36.4103 141.938 36.605 141.938C36.7936 141.938 36.9396 141.989 37.0431 142.093C37.1495 142.196 37.2027 142.344 37.2027 142.536C37.2027 142.718 37.1495 142.862 37.0431 142.969C36.9396 143.073 36.7936 143.124 36.605 143.124C36.4103 143.124 36.2598 143.073 36.1532 142.969C36.0499 142.862 35.9981 142.718 35.9981 142.536ZM42.4664 143.872V144.461L41.604 144.621C41.6831 144.727 41.7485 144.858 41.8002 145.013C41.8519 145.168 41.8778 145.333 41.8778 145.506C41.8778 146.026 41.6983 146.435 41.3394 146.734C40.9804 147.031 40.4861 147.181 39.8565 147.181C39.6953 147.181 39.5492 147.168 39.4184 147.144C39.1872 147.287 39.0716 147.455 39.0716 147.646C39.0716 147.762 39.1249 147.848 39.2314 147.906C39.3408 147.964 39.5401 147.993 39.8291 147.993H40.7097C41.2664 147.993 41.6892 148.111 41.9781 148.349C42.2671 148.586 42.4116 148.928 42.4116 149.376C42.4116 149.947 42.1759 150.388 41.7043 150.698C41.2329 151.009 40.5515 151.164 39.6602 151.164C38.9728 151.164 38.4481 151.042 38.086 150.799C37.7241 150.556 37.5431 150.209 37.5431 149.759C37.5431 149.448 37.6404 149.187 37.8351 148.974C38.0328 148.764 38.3081 148.618 38.661 148.536C38.518 148.475 38.3994 148.378 38.3051 148.244C38.2139 148.107 38.1682 147.964 38.1682 147.815C38.1682 147.626 38.2214 147.467 38.3279 147.336C38.4344 147.205 38.5925 147.075 38.8024 146.948C38.5409 146.835 38.3279 146.653 38.1637 146.401C38.0024 146.145 37.9218 145.847 37.9218 145.506C37.9218 144.958 38.0937 144.534 38.4374 144.233C38.7842 143.932 39.277 143.781 39.9158 143.781C40.0588 143.781 40.2078 143.792 40.3629 143.814C40.5211 143.832 40.6397 143.852 40.7188 143.872H42.4664ZM38.5013 149.704C38.5013 149.935 38.6047 150.113 38.8116 150.238C39.0214 150.362 39.315 150.425 39.6922 150.425C40.2762 150.425 40.7112 150.341 40.9972 150.174C41.2831 150.006 41.4261 149.785 41.4261 149.508C41.4261 149.289 41.347 149.132 41.1888 149.038C41.0337 148.946 40.7431 148.901 40.3173 148.901H39.5051C39.1979 148.901 38.953 148.972 38.7705 149.115C38.5911 149.261 38.5013 149.458 38.5013 149.704ZM38.9622 145.506C38.9622 145.823 39.0427 146.066 39.204 146.236C39.3682 146.407 39.6025 146.491 39.9066 146.491C40.5272 146.491 40.8374 146.16 40.8374 145.497C40.8374 145.168 40.7599 144.916 40.6048 144.739C40.4526 144.56 40.22 144.47 39.9066 144.47C39.5963 144.47 39.3607 144.558 39.1994 144.735C39.0412 144.912 38.9622 145.168 38.9622 145.506ZM45.1429 149.01C44.3581 149.01 43.7437 148.782 43.2995 148.326C42.8585 147.866 42.6379 147.236 42.6379 146.432C42.6379 145.608 42.8433 144.96 43.2539 144.488C43.6646 144.017 44.2288 143.781 44.9467 143.781C45.6129 143.781 46.1391 143.984 46.5254 144.388C46.9118 144.793 47.1049 145.349 47.1049 146.058V146.638H43.7421C43.7574 147.128 43.8897 147.505 44.1391 147.769C44.3885 148.031 44.7399 148.161 45.1931 148.161C45.4912 148.161 45.768 148.134 46.0235 148.079C46.2821 148.022 46.5589 147.927 46.854 147.796V148.668C46.5924 148.793 46.3277 148.881 46.06 148.933C45.7924 148.984 45.4867 149.01 45.1429 149.01ZM44.9467 144.594C44.606 144.594 44.3323 144.701 44.1254 144.918C43.9216 145.133 43.7999 145.448 43.7604 145.862H46.0509C46.0448 145.445 45.9445 145.13 45.7498 144.918C45.5551 144.701 45.2874 144.594 44.9467 144.594ZM50.4157 143.781C50.6317 143.781 50.8096 143.797 50.9495 143.827L50.8446 144.826C50.6925 144.789 50.5343 144.771 50.3701 144.771C49.9412 144.771 49.5929 144.912 49.3252 145.191C49.0605 145.471 48.9282 145.835 48.9282 146.282V148.919H47.856V143.872H48.6955L48.837 144.762H48.8917C49.059 144.461 49.2765 144.223 49.5442 144.046C49.8149 143.87 50.1054 143.781 50.4157 143.781ZM54.5797 148.919L54.3652 148.216H54.3287C54.0854 148.524 53.8405 148.733 53.5941 148.846C53.3477 148.956 53.0314 149.01 52.6451 149.01C52.1492 149.01 51.7614 148.876 51.4816 148.609C51.2048 148.341 51.0663 147.963 51.0663 147.473C51.0663 146.953 51.2595 146.56 51.6458 146.295C52.0322 146.031 52.6207 145.886 53.4116 145.862L54.2831 145.835V145.566C54.2831 145.243 54.2071 145.002 54.055 144.845C53.906 144.683 53.6732 144.602 53.3569 144.602C53.0983 144.602 52.8504 144.641 52.6131 144.717C52.3758 144.793 52.1477 144.882 51.9287 144.986L51.5819 144.219C51.8557 144.077 52.1553 143.968 52.4808 143.896C52.8063 143.82 53.1135 143.781 53.4025 143.781C54.0443 143.781 54.528 143.921 54.8535 144.201C55.182 144.481 55.3462 144.92 55.3462 145.52V148.919H54.5797ZM52.9827 148.189C53.3721 148.189 53.6839 148.081 53.9181 147.865C54.1554 147.646 54.274 147.34 54.274 146.948V146.51L53.6261 146.537C53.1211 146.555 52.753 146.641 52.5219 146.792C52.2937 146.942 52.1797 147.172 52.1797 147.482C52.1797 147.707 52.2466 147.882 52.3804 148.007C52.5143 148.128 52.715 148.189 52.9827 148.189ZM58.4107 149.01C57.6471 149.01 57.0661 148.788 56.6676 148.344C56.2722 147.897 56.0745 147.256 56.0745 146.423C56.0745 145.574 56.2813 144.922 56.695 144.466C57.1118 144.01 57.7126 143.781 58.4973 143.781C59.0297 143.781 59.5087 143.88 59.9346 144.078L59.6106 144.94C59.1574 144.764 58.7832 144.676 58.4882 144.676C57.6152 144.676 57.1786 145.255 57.1786 146.414C57.1786 146.98 57.2866 147.406 57.5026 147.692C57.7216 147.975 58.041 148.116 58.4608 148.116C58.9384 148.116 59.3901 147.997 59.816 147.76V148.695C59.6243 148.808 59.419 148.888 59.2 148.937C58.984 148.986 58.7209 149.01 58.4107 149.01ZM59.1772 150.151C59.1772 150.826 58.7133 151.164 57.7855 151.164C57.5847 151.164 57.4007 151.141 57.2334 151.096V150.47C57.3977 150.513 57.5847 150.534 57.7947 150.534C57.9589 150.534 58.0882 150.508 58.1825 150.457C58.2798 150.408 58.3285 150.315 58.3285 150.179C58.3285 149.92 58.0562 149.753 57.5118 149.677L57.895 148.919H58.5886L58.4015 149.321C58.6449 149.384 58.835 149.488 58.9719 149.631C59.1087 149.777 59.1772 149.95 59.1772 150.151ZM63.6925 148.919L63.478 148.216H63.4416C63.1982 148.524 62.9533 148.733 62.707 148.846C62.4606 148.956 62.1442 149.01 61.7579 149.01C61.2621 149.01 60.8742 148.876 60.5944 148.609C60.3176 148.341 60.1792 147.963 60.1792 147.473C60.1792 146.953 60.3723 146.56 60.7586 146.295C61.145 146.031 61.7335 145.886 62.5244 145.862L63.396 145.835V145.566C63.396 145.243 63.3199 145.002 63.1678 144.845C63.0188 144.683 62.7861 144.602 62.4697 144.602C62.2111 144.602 61.9632 144.641 61.7259 144.717C61.4887 144.793 61.2606 144.882 61.0416 144.986L60.6948 144.219C60.9685 144.077 61.2682 143.968 61.5936 143.896C61.9191 143.82 62.2263 143.781 62.5153 143.781C63.1571 143.781 63.6408 143.921 63.9663 144.201C64.2948 144.481 64.4591 144.92 64.4591 145.52V148.919H63.6925ZM62.0956 148.189C62.4849 148.189 62.7967 148.081 63.0309 147.865C63.2682 147.646 63.3868 147.34 63.3868 146.948V146.51L62.7389 146.537C62.2339 146.555 61.8659 146.641 61.6347 146.792C61.4065 146.942 61.2925 147.172 61.2925 147.482C61.2925 147.707 61.3594 147.882 61.4933 148.007C61.6271 148.128 61.8279 148.189 62.0956 148.189ZM63.1815 143.257C63.0537 143.257 62.9275 143.231 62.8028 143.179C62.6811 143.124 62.5609 143.065 62.4423 143.001C62.3237 142.934 62.2081 142.875 62.0956 142.823C61.983 142.768 61.875 142.741 61.7716 142.741C61.5252 142.741 61.3594 142.916 61.2743 143.266H60.7176C60.7541 142.843 60.8712 142.521 61.0689 142.298C61.2696 142.076 61.5252 141.965 61.8355 141.965C61.9663 141.965 62.094 141.993 62.2187 142.047C62.3435 142.099 62.4652 142.158 62.5838 142.226C62.7024 142.289 62.8164 142.348 62.926 142.403C63.0385 142.455 63.1465 142.481 63.2499 142.481C63.4903 142.481 63.6515 142.306 63.7336 141.956H64.3039C64.2675 142.364 64.1503 142.683 63.9526 142.914C63.7549 143.143 63.4979 143.257 63.1815 143.257ZM69.9644 146.387C69.9644 147.211 69.7528 147.854 69.3303 148.317C68.9078 148.779 68.3191 149.01 67.5648 149.01C67.093 149.01 66.6763 148.904 66.3143 148.691C65.9523 148.478 65.674 148.172 65.4793 147.774C65.2846 147.375 65.1873 146.913 65.1873 146.387C65.1873 145.568 65.3972 144.93 65.8169 144.47C66.2368 144.011 66.8284 143.781 67.5922 143.781C68.3218 143.781 68.8998 144.017 69.3256 144.488C69.7515 144.957 69.9644 145.59 69.9644 146.387ZM66.2915 146.387C66.2915 147.551 66.7219 148.134 67.5829 148.134C68.4346 148.134 68.8604 147.551 68.8604 146.387C68.8604 145.234 68.4312 144.657 67.5735 144.657C67.1236 144.657 66.7965 144.807 66.5927 145.104C66.3919 145.403 66.2915 145.83 66.2915 146.387Z" fill="#4F4F4F"/>
<path d="M100.724 148.919V142.248H101.499V148.216H104.442V148.919H100.724ZM109.314 146.414C109.314 147.229 109.109 147.866 108.698 148.326C108.287 148.782 107.72 149.01 106.996 149.01C106.549 149.01 106.152 148.905 105.805 148.695C105.458 148.486 105.191 148.184 105.002 147.792C104.813 147.4 104.719 146.94 104.719 146.414C104.719 145.599 104.923 144.965 105.331 144.511C105.738 144.055 106.304 143.827 107.028 143.827C107.728 143.827 108.282 144.06 108.694 144.525C109.107 144.99 109.314 145.62 109.314 146.414ZM105.504 146.414C105.504 147.053 105.632 147.539 105.887 147.874C106.142 148.209 106.518 148.376 107.014 148.376C107.51 148.376 107.886 148.21 108.142 147.878C108.4 147.544 108.529 147.056 108.529 146.414C108.529 145.779 108.4 145.296 108.142 144.968C107.886 144.636 107.507 144.47 107.005 144.47C106.51 144.47 106.135 144.633 105.883 144.958C105.63 145.284 105.504 145.769 105.504 146.414ZM112.178 149.01C111.454 149.01 110.892 148.788 110.494 148.344C110.099 147.897 109.9 147.266 109.9 146.451C109.9 145.614 110.101 144.968 110.503 144.511C110.908 144.055 111.482 143.827 112.228 143.827C112.468 143.827 112.708 143.853 112.949 143.904C113.189 143.956 113.377 144.017 113.515 144.087L113.282 144.731C113.114 144.663 112.932 144.608 112.734 144.566C112.536 144.52 112.361 144.498 112.209 144.498C111.193 144.498 110.685 145.146 110.685 146.441C110.685 147.056 110.809 147.527 111.055 147.856C111.305 148.184 111.672 148.349 112.159 148.349C112.576 148.349 113.003 148.259 113.441 148.079V148.75C113.107 148.924 112.686 149.01 112.178 149.01ZM117.24 148.919L117.09 148.207H117.053C116.804 148.521 116.554 148.733 116.305 148.846C116.058 148.956 115.75 149.01 115.379 149.01C114.883 149.01 114.494 148.882 114.211 148.627C113.93 148.372 113.791 148.008 113.791 147.537C113.791 146.527 114.599 145.997 116.214 145.949L117.062 145.921V145.611C117.062 145.219 116.978 144.93 116.807 144.744C116.64 144.556 116.37 144.461 115.999 144.461C115.582 144.461 115.111 144.589 114.585 144.845L114.352 144.265C114.599 144.131 114.868 144.026 115.16 143.95C115.455 143.874 115.75 143.836 116.045 143.836C116.641 143.836 117.082 143.968 117.368 144.233C117.657 144.498 117.802 144.922 117.802 145.506V148.919H117.24ZM115.529 148.385C116.001 148.385 116.37 148.256 116.638 147.997C116.909 147.739 117.044 147.376 117.044 146.911V146.459L116.287 146.491C115.685 146.513 115.249 146.607 114.982 146.774C114.717 146.939 114.585 147.196 114.585 147.545C114.585 147.82 114.667 148.028 114.831 148.171C114.998 148.314 115.231 148.385 115.529 148.385ZM119.657 148.919H118.899V141.819H119.657V148.919ZM121.553 148.919H120.795V143.918H121.553V148.919ZM120.732 142.563C120.732 142.39 120.774 142.264 120.86 142.184C120.945 142.102 121.051 142.061 121.179 142.061C121.301 142.061 121.406 142.102 121.494 142.184C121.582 142.266 121.626 142.392 121.626 142.563C121.626 142.734 121.582 142.861 121.494 142.946C121.406 143.029 121.301 143.069 121.179 143.069C121.051 143.069 120.945 143.029 120.86 142.946C120.774 142.861 120.732 142.734 120.732 142.563ZM125.89 148.919H122.263V148.404L124.992 144.507H122.432V143.918H125.822V144.507L123.13 148.33H125.89V148.919ZM129.672 148.919L129.521 148.207H129.484C129.235 148.521 128.985 148.733 128.736 148.846C128.489 148.956 128.181 149.01 127.81 149.01C127.314 149.01 126.924 148.882 126.642 148.627C126.362 148.372 126.222 148.008 126.222 147.537C126.222 146.527 127.03 145.997 128.644 145.949L129.493 145.921V145.611C129.493 145.219 129.408 144.93 129.238 144.744C129.071 144.556 128.801 144.461 128.43 144.461C128.014 144.461 127.542 144.589 127.016 144.845L126.783 144.265C127.03 144.131 127.299 144.026 127.59 143.95C127.885 143.874 128.181 143.836 128.476 143.836C129.072 143.836 129.513 143.968 129.799 144.233C130.088 144.498 130.232 144.922 130.232 145.506V148.919H129.672ZM127.96 148.385C128.431 148.385 128.801 148.256 129.069 147.997C129.34 147.739 129.475 147.376 129.475 146.911V146.459L128.718 146.491C128.116 146.513 127.68 146.607 127.413 146.774C127.148 146.939 127.016 147.196 127.016 147.545C127.016 147.82 127.098 148.028 127.262 148.171C127.429 148.314 127.662 148.385 127.96 148.385ZM133.329 149.01C132.605 149.01 132.044 148.788 131.645 148.344C131.249 147.897 131.052 147.266 131.052 146.451C131.052 145.614 131.253 144.968 131.654 144.511C132.059 144.055 132.634 143.827 133.379 143.827C133.619 143.827 133.86 143.853 134.1 143.904C134.34 143.956 134.529 144.017 134.666 144.087L134.433 144.731C134.266 144.663 134.083 144.608 133.885 144.566C133.688 144.52 133.513 144.498 133.361 144.498C132.345 144.498 131.837 145.146 131.837 146.441C131.837 147.056 131.96 147.527 132.207 147.856C132.456 148.184 132.824 148.349 133.311 148.349C133.727 148.349 134.155 148.259 134.593 148.079V148.75C134.258 148.924 133.837 149.01 133.329 149.01ZM134.004 150.238C134.004 150.533 133.887 150.761 133.653 150.922C133.421 151.084 133.078 151.164 132.622 151.164C132.466 151.164 132.321 151.15 132.183 151.123V150.639C132.321 150.664 132.479 150.676 132.658 150.676C132.898 150.676 133.08 150.645 133.201 150.584C133.326 150.524 133.388 150.411 133.388 150.247C133.388 150.116 133.327 150.01 133.206 149.928C133.087 149.848 132.862 149.783 132.53 149.731L132.932 148.919H133.433L133.183 149.444C133.73 149.562 134.004 149.827 134.004 150.238ZM138.391 148.919L138.241 148.207H138.204C137.955 148.521 137.706 148.733 137.456 148.846C137.21 148.956 136.901 149.01 136.53 149.01C136.035 149.01 135.645 148.882 135.362 148.627C135.082 148.372 134.942 148.008 134.942 147.537C134.942 146.527 135.75 145.997 137.365 145.949L138.214 145.921V145.611C138.214 145.219 138.128 144.93 137.958 144.744C137.791 144.556 137.522 144.461 137.151 144.461C136.734 144.461 136.262 144.589 135.736 144.845L135.503 144.265C135.75 144.131 136.019 144.026 136.311 143.95C136.606 143.874 136.901 143.836 137.196 143.836C137.793 143.836 138.233 143.968 138.52 144.233C138.809 144.498 138.953 144.922 138.953 145.506V148.919H138.391ZM136.681 148.385C137.152 148.385 137.522 148.256 137.789 147.997C138.06 147.739 138.195 147.376 138.195 146.911V146.459L137.438 146.491C136.835 146.513 136.401 146.607 136.133 146.774C135.868 146.939 135.736 147.196 135.736 147.545C135.736 147.82 135.818 148.028 135.982 148.171C136.15 148.314 136.382 148.385 136.681 148.385ZM137.803 143.247C137.673 143.247 137.544 143.22 137.42 143.165C137.295 143.107 137.172 143.045 137.05 142.978C136.932 142.908 136.816 142.846 136.703 142.791C136.594 142.734 136.488 142.704 136.384 142.704C136.232 142.704 136.117 142.75 136.037 142.842C135.961 142.932 135.902 143.071 135.859 143.257H135.412C135.452 142.888 135.558 142.601 135.731 142.394C135.908 142.184 136.135 142.079 136.412 142.079C136.551 142.079 136.687 142.108 136.817 142.166C136.948 142.221 137.073 142.283 137.192 142.353C137.31 142.42 137.424 142.483 137.534 142.54C137.643 142.595 137.747 142.622 137.844 142.622C137.993 142.622 138.104 142.578 138.177 142.49C138.251 142.398 138.309 142.259 138.355 142.07H138.807C138.767 142.439 138.661 142.728 138.487 142.937C138.317 143.144 138.089 143.247 137.803 143.247ZM144.367 146.414C144.367 147.229 144.162 147.866 143.751 148.326C143.341 148.782 142.773 149.01 142.049 149.01C141.602 149.01 141.205 148.905 140.858 148.695C140.511 148.486 140.244 148.184 140.055 147.792C139.866 147.4 139.772 146.94 139.772 146.414C139.772 145.599 139.976 144.965 140.384 144.511C140.792 144.055 141.357 143.827 142.081 143.827C142.781 143.827 143.336 144.06 143.747 144.525C144.16 144.99 144.367 145.62 144.367 146.414ZM140.557 146.414C140.557 147.053 140.685 147.539 140.94 147.874C141.196 148.209 141.572 148.376 142.067 148.376C142.563 148.376 142.939 148.21 143.195 147.878C143.453 147.544 143.582 147.056 143.582 146.414C143.582 145.779 143.453 145.296 143.195 144.968C142.939 144.636 142.56 144.47 142.058 144.47C141.563 144.47 141.188 144.633 140.936 144.958C140.683 145.284 140.557 145.769 140.557 146.414Z" fill="#999999"/>
<path d="M177.669 142.846C176.936 142.846 176.357 143.091 175.931 143.581C175.508 144.067 175.297 144.735 175.297 145.584C175.297 146.457 175.501 147.132 175.908 147.609C176.319 148.084 176.903 148.321 177.661 148.321C178.126 148.321 178.656 148.237 179.253 148.071V148.75C178.791 148.924 178.22 149.01 177.542 149.01C176.559 149.01 175.8 148.712 175.265 148.116C174.732 147.52 174.466 146.672 174.466 145.574C174.466 144.887 174.594 144.285 174.85 143.767C175.108 143.25 175.479 142.852 175.963 142.572C176.45 142.292 177.022 142.152 177.679 142.152C178.378 142.152 178.99 142.28 179.513 142.536L179.184 143.202C178.679 142.964 178.175 142.846 177.669 142.846ZM184.443 146.414C184.443 147.229 184.238 147.866 183.827 148.326C183.417 148.782 182.85 149.01 182.125 149.01C181.678 149.01 181.282 148.905 180.935 148.695C180.588 148.486 180.32 148.184 180.132 147.792C179.943 147.4 179.849 146.94 179.849 146.414C179.849 145.599 180.053 144.965 180.46 144.511C180.868 144.055 181.434 143.827 182.157 143.827C182.857 143.827 183.412 144.06 183.823 144.525C184.237 144.99 184.443 145.62 184.443 146.414ZM180.634 146.414C180.634 147.053 180.761 147.539 181.017 147.874C181.272 148.209 181.648 148.376 182.144 148.376C182.639 148.376 183.015 148.21 183.271 147.878C183.529 147.544 183.659 147.056 183.659 146.414C183.659 145.778 183.529 145.296 183.271 144.967C183.015 144.636 182.637 144.47 182.135 144.47C181.639 144.47 181.265 144.633 181.012 144.958C180.76 145.284 180.634 145.769 180.634 146.414ZM188.731 148.919V145.684C188.731 145.277 188.638 144.972 188.452 144.771C188.267 144.57 187.976 144.47 187.581 144.47C187.057 144.47 186.674 144.612 186.431 144.895C186.188 145.178 186.066 145.644 186.066 146.295V148.919H185.308V143.918H185.925L186.047 144.602H186.084C186.24 144.356 186.457 144.166 186.737 144.032C187.017 143.896 187.328 143.827 187.672 143.827C188.274 143.827 188.727 143.973 189.032 144.265C189.336 144.554 189.488 145.018 189.488 145.656V148.919H188.731ZM192.197 148.385C192.33 148.385 192.46 148.376 192.585 148.358C192.709 148.336 192.808 148.315 192.881 148.294V148.874C192.799 148.913 192.677 148.945 192.516 148.969C192.358 148.996 192.215 149.01 192.087 149.01C191.12 149.01 190.636 148.5 190.636 147.482V144.507H189.919V144.142L190.636 143.827L190.955 142.759H191.393V143.918H192.844V144.507H191.393V147.45C191.393 147.751 191.465 147.982 191.608 148.143C191.751 148.304 191.947 148.385 192.197 148.385ZM195.699 143.827C195.921 143.827 196.12 143.845 196.296 143.882L196.192 144.584C195.985 144.539 195.803 144.516 195.644 144.516C195.24 144.516 194.893 144.68 194.604 145.009C194.318 145.337 194.175 145.746 194.175 146.236V148.919H193.418V143.918H194.042L194.129 144.845H194.166C194.351 144.519 194.575 144.268 194.837 144.092C195.098 143.915 195.385 143.827 195.699 143.827ZM199.84 148.919L199.69 148.207H199.653C199.404 148.52 199.154 148.733 198.905 148.846C198.659 148.956 198.35 149.01 197.978 149.01C197.483 149.01 197.093 148.882 196.81 148.627C196.531 148.372 196.391 148.008 196.391 147.537C196.391 146.527 197.198 145.997 198.813 145.949L199.662 145.921V145.611C199.662 145.218 199.577 144.929 199.407 144.744C199.239 144.556 198.97 144.461 198.599 144.461C198.182 144.461 197.711 144.589 197.185 144.845L196.952 144.265C197.198 144.131 197.467 144.026 197.76 143.95C198.055 143.874 198.35 143.836 198.645 143.836C199.241 143.836 199.682 143.968 199.968 144.233C200.257 144.498 200.401 144.922 200.401 145.506V148.919H199.84ZM198.129 148.385C198.601 148.385 198.97 148.256 199.238 147.997C199.508 147.739 199.644 147.376 199.644 146.911V146.459L198.886 146.491C198.284 146.513 197.849 146.607 197.581 146.774C197.317 146.939 197.185 147.196 197.185 147.545C197.185 147.82 197.267 148.028 197.431 148.171C197.598 148.314 197.831 148.385 198.129 148.385ZM203.115 148.385C203.248 148.385 203.378 148.376 203.502 148.358C203.627 148.336 203.726 148.315 203.799 148.294V148.874C203.717 148.913 203.595 148.945 203.434 148.969C203.276 148.996 203.133 149.01 203.005 149.01C202.037 149.01 201.554 148.5 201.554 147.482V144.507H200.837V144.142L201.554 143.827L201.873 142.759H202.311V143.918H203.762V144.507H202.311V147.45C202.311 147.751 202.383 147.982 202.526 148.143C202.669 148.304 202.865 148.385 203.115 148.385ZM206.448 149.01C205.709 149.01 205.125 148.785 204.696 148.335C204.27 147.885 204.057 147.26 204.057 146.459C204.057 145.654 204.255 145.013 204.651 144.539C205.049 144.064 205.582 143.827 206.252 143.827C206.879 143.827 207.374 144.034 207.74 144.448C208.104 144.858 208.287 145.401 208.287 146.076V146.555H204.842C204.857 147.143 205.005 147.588 205.285 147.892C205.568 148.197 205.964 148.349 206.475 148.349C207.014 148.349 207.546 148.236 208.073 148.011V148.686C207.804 148.802 207.551 148.884 207.31 148.933C207.073 148.984 206.786 149.01 206.448 149.01ZM206.242 144.461C205.841 144.461 205.52 144.592 205.28 144.853C205.042 145.115 204.903 145.477 204.86 145.939H207.475C207.475 145.462 207.368 145.097 207.156 144.845C206.943 144.589 206.638 144.461 206.242 144.461ZM215.49 148.919V145.666C215.49 145.267 215.404 144.969 215.234 144.771C215.064 144.57 214.799 144.47 214.44 144.47C213.968 144.47 213.621 144.606 213.395 144.876C213.17 145.147 213.057 145.564 213.057 146.126V148.919H212.3V145.666C212.3 145.267 212.215 144.969 212.045 144.771C211.875 144.57 211.608 144.47 211.246 144.47C210.772 144.47 210.423 144.613 210.201 144.899C209.982 145.182 209.873 145.648 209.873 146.295V148.919H209.115V143.918H209.731L209.855 144.602H209.891C210.034 144.359 210.235 144.169 210.494 144.032C210.755 143.896 211.047 143.827 211.369 143.827C212.151 143.827 212.662 144.11 212.902 144.676H212.939C213.088 144.414 213.304 144.207 213.587 144.055C213.87 143.903 214.192 143.827 214.554 143.827C215.12 143.827 215.543 143.973 215.823 144.265C216.106 144.554 216.247 145.018 216.247 145.656V148.919H215.49ZM219.672 149.01C219.346 149.01 219.049 148.951 218.778 148.832C218.51 148.711 218.285 148.525 218.102 148.276H218.047C218.084 148.568 218.102 148.844 218.102 149.106V151.164H217.345V143.918H217.961L218.066 144.602H218.102C218.297 144.329 218.523 144.131 218.782 144.01C219.041 143.888 219.338 143.827 219.672 143.827C220.335 143.827 220.846 144.054 221.205 144.507C221.567 144.96 221.748 145.596 221.748 146.414C221.748 147.236 221.564 147.874 221.196 148.33C220.831 148.783 220.323 149.01 219.672 149.01ZM219.563 144.47C219.051 144.47 218.681 144.612 218.454 144.895C218.226 145.178 218.108 145.628 218.102 146.245V146.414C218.102 147.117 218.22 147.62 218.454 147.924C218.688 148.225 219.063 148.376 219.581 148.376C220.012 148.376 220.35 148.201 220.594 147.851C220.84 147.501 220.963 147.019 220.963 146.405C220.963 145.781 220.84 145.304 220.594 144.972C220.35 144.638 220.006 144.47 219.563 144.47ZM226.925 146.414C226.925 147.229 226.72 147.866 226.309 148.326C225.898 148.782 225.331 149.01 224.607 149.01C224.16 149.01 223.763 148.905 223.416 148.695C223.069 148.486 222.802 148.184 222.613 147.792C222.425 147.4 222.33 146.94 222.33 146.414C222.33 145.599 222.534 144.965 222.941 144.511C223.349 144.055 223.915 143.827 224.639 143.827C225.339 143.827 225.894 144.06 226.305 144.525C226.718 144.99 226.925 145.62 226.925 146.414ZM223.115 146.414C223.115 147.053 223.243 147.539 223.498 147.874C223.754 148.209 224.129 148.376 224.625 148.376C225.121 148.376 225.497 148.21 225.752 147.878C226.011 147.544 226.14 147.056 226.14 146.414C226.14 145.778 226.011 145.296 225.752 144.967C225.497 144.636 225.118 144.47 224.616 144.47C224.12 144.47 223.746 144.633 223.494 144.958C223.241 145.284 223.115 145.769 223.115 146.414ZM231.016 147.555C231.016 148.02 230.843 148.379 230.496 148.631C230.149 148.884 229.662 149.01 229.036 149.01C228.372 149.01 227.855 148.905 227.484 148.695V147.992C227.724 148.115 227.981 148.21 228.256 148.28C228.532 148.35 228.798 148.385 229.054 148.385C229.449 148.385 229.754 148.323 229.966 148.198C230.179 148.071 230.286 147.877 230.286 147.619C230.286 147.424 230.201 147.258 230.031 147.121C229.863 146.981 229.535 146.817 229.045 146.628C228.579 146.455 228.248 146.304 228.05 146.177C227.855 146.046 227.71 145.899 227.612 145.734C227.517 145.57 227.471 145.373 227.471 145.146C227.471 144.738 227.636 144.417 227.968 144.183C228.3 143.946 228.754 143.827 229.332 143.827C229.871 143.827 230.397 143.936 230.911 144.155L230.642 144.771C230.14 144.564 229.685 144.461 229.278 144.461C228.918 144.461 228.648 144.518 228.465 144.63C228.283 144.743 228.192 144.897 228.192 145.095C228.192 145.229 228.225 145.343 228.292 145.437C228.362 145.532 228.473 145.622 228.625 145.707C228.777 145.792 229.069 145.915 229.501 146.076C230.095 146.292 230.494 146.51 230.701 146.729C230.911 146.948 231.016 147.223 231.016 147.555Z" fill="#999999"/>
<path fill-rule="evenodd" clip-rule="evenodd" d="M164.537 293.229C139.216 294.103 108.05 296.587 84.523 303.011C80.9216 303.994 78.0635 305.013 75.277 306.007C74.8162 306.172 74.3574 306.335 73.8975 306.498C70.6563 307.644 67.3788 308.735 63.0497 309.647C53.3959 311.681 33.7794 313.13 16.6311 314.072C8.0452 314.544 0.0597346 314.889 -5.77907 315.116C-8.69857 315.23 -11.0816 315.314 -12.7349 315.37C-13.5616 315.398 -14.2058 315.419 -14.6435 315.432C-14.8624 315.439 -15.0296 315.445 -15.1421 315.448L-15.312 315.453C-15.3125 315.453 -15.3128 315.453 -15.3325 314.786C-15.3523 314.119 -15.3521 314.119 -15.3517 314.119L-15.3497 314.119L-15.1829 314.114C-15.0708 314.11 -14.9041 314.105 -14.6857 314.098C-14.2489 314.084 -13.6056 314.064 -12.7799 314.036C-11.1286 313.98 -8.74792 313.896 -5.831 313.782C0.00303062 313.555 7.98108 313.21 16.5579 312.739C33.7351 311.796 53.2409 310.349 62.7745 308.341C67.019 307.447 70.2326 306.378 73.4523 305.239C73.9078 305.078 74.3638 304.916 74.823 304.752C77.61 303.758 80.5175 302.72 84.1714 301.723C107.856 295.256 139.152 292.769 164.491 291.895C177.168 291.458 188.367 291.423 196.398 291.499C200.413 291.536 203.637 291.601 205.857 291.657C206.967 291.685 207.827 291.71 208.409 291.728C208.7 291.738 208.922 291.745 209.071 291.75L209.24 291.756L209.296 291.759C209.297 291.759 209.297 291.759 209.272 292.426C209.247 293.093 209.246 293.093 209.246 293.093L209.191 293.091L209.024 293.085C208.877 293.079 208.656 293.072 208.367 293.063C207.787 293.044 206.931 293.019 205.824 292.991C203.61 292.936 200.393 292.871 196.385 292.834C188.369 292.758 177.19 292.792 164.537 293.229ZM209.939 292.451C209.925 292.819 209.615 293.107 209.247 293.093L209.272 292.426L209.297 291.759C209.666 291.773 209.953 292.083 209.939 292.451ZM-15.9997 314.806C-16.0106 314.437 -15.7201 314.13 -15.3517 314.119L-15.3325 314.786L-15.3128 315.453C-15.6812 315.464 -15.9888 315.174 -15.9997 314.806Z" fill="#FCB937"/>
<path fill-rule="evenodd" clip-rule="evenodd" d="M208.604 361.173L209.272 273.734L209.939 273.739L209.272 361.178L208.604 361.173Z" fill="#F2F2F2"/>
<path d="M209.606 294.094C210.712 294.094 211.608 293.198 211.608 292.092C211.608 290.986 210.712 290.089 209.606 290.089C208.5 290.089 207.604 290.986 207.604 292.092C207.604 293.198 208.5 294.094 209.606 294.094Z" fill="#FCB937"/>
<path fill-rule="evenodd" clip-rule="evenodd" d="M209.606 290.423C208.684 290.423 207.937 291.17 207.937 292.092C207.937 293.013 208.684 293.761 209.606 293.761C210.527 293.761 211.274 293.013 211.274 292.092C211.274 291.17 210.527 290.423 209.606 290.423ZM207.27 292.092C207.27 290.802 208.315 289.756 209.606 289.756C210.896 289.756 211.942 290.802 211.942 292.092C211.942 293.382 210.896 294.428 209.606 294.428C208.315 294.428 207.27 293.382 207.27 292.092Z" fill="#FCB937"/>
<path fill-rule="evenodd" clip-rule="evenodd" d="M-13.598 329.464C-13.5988 329.464 -13.5991 329.464 -13.6634 329.137C-13.7276 328.809 -13.7272 328.809 -13.7264 328.809L-13.4335 328.752C-13.2393 328.714 -12.9505 328.658 -12.5722 328.586C-11.8154 328.441 -10.7003 328.229 -9.26608 327.962C-6.39769 327.427 -2.25305 326.67 2.85271 325.78C13.064 324 27.1206 321.689 42.5011 319.564C73.2454 315.316 109.335 311.803 130.557 314.789C137.82 315.811 143.52 317.261 149.083 318.676C149.585 318.804 150.085 318.931 150.586 319.058C156.635 320.59 162.679 322.031 170.591 322.797C178.159 323.53 187.904 323.53 195.766 323.347C199.695 323.255 203.151 323.117 205.624 323.003C206.86 322.945 207.851 322.894 208.532 322.856C208.873 322.838 209.137 322.823 209.315 322.812C209.404 322.807 209.472 322.803 209.517 322.8L209.585 322.796C209.585 322.796 209.585 322.796 209.606 323.129C209.626 323.462 209.626 323.462 209.626 323.462L209.557 323.467C209.511 323.469 209.443 323.473 209.354 323.479C209.175 323.489 208.91 323.504 208.569 323.523C207.886 323.56 206.893 323.612 205.655 323.669C203.178 323.784 199.717 323.922 195.782 324.014C187.915 324.198 178.137 324.198 170.527 323.462C162.563 322.691 156.48 321.239 150.422 319.705C149.922 319.578 149.422 319.451 148.921 319.324C143.357 317.908 137.689 316.467 130.464 315.45C109.348 312.479 73.3507 315.975 42.5925 320.225C27.2218 322.349 13.1733 324.659 2.96733 326.438C-2.13556 327.327 -6.27762 328.084 -9.14376 328.618C-10.5768 328.885 -11.6909 329.097 -12.4466 329.242C-12.8244 329.314 -13.1127 329.37 -13.3064 329.407L-13.598 329.464Z" fill="#FC2F6D"/>
<path d="M29.3548 203.652H28.5792V197.67H26.4666V196.981H31.4674V197.67H29.3548V203.652ZM34.0071 203.743C33.2679 203.743 32.6839 203.518 32.2549 203.068C31.8291 202.618 31.6162 201.992 31.6162 201.192C31.6162 200.387 31.8139 199.746 32.2094 199.272C32.6078 198.797 33.1417 198.56 33.8109 198.56C34.4375 198.56 34.9333 198.767 35.2984 199.18C35.6634 199.591 35.8459 200.134 35.8459 200.809V201.288H32.401C32.4162 201.876 32.5637 202.321 32.8436 202.625C33.1265 202.93 33.5234 203.082 34.0344 203.082C34.5729 203.082 35.1052 202.969 35.6314 202.744V203.419C35.3638 203.535 35.1097 203.617 34.8694 203.666C34.6321 203.717 34.3447 203.743 34.0071 203.743ZM33.8017 199.194C33.4002 199.194 33.0793 199.325 32.839 199.586C32.6017 199.848 32.4618 200.21 32.4192 200.672H35.0337C35.0337 200.195 34.9272 199.83 34.7143 199.578C34.5014 199.322 34.1972 199.194 33.8017 199.194ZM43.0487 203.652V200.399C43.0487 200 42.9635 199.702 42.7932 199.504C42.6229 199.303 42.3582 199.203 41.9992 199.203C41.5278 199.203 41.1795 199.339 40.9544 199.609C40.7293 199.88 40.6168 200.296 40.6168 200.859V203.652H39.8593V200.399C39.8593 200 39.7742 199.702 39.6038 199.504C39.4335 199.303 39.1673 199.203 38.8053 199.203C38.3308 199.203 37.9825 199.346 37.7605 199.632C37.5414 199.915 37.4319 200.381 37.4319 201.028V203.652H36.6745V198.651H37.2905L37.4136 199.335H37.4501C37.5931 199.092 37.7939 198.902 38.0525 198.765C38.3141 198.628 38.6061 198.56 38.9285 198.56C39.7103 198.56 40.2213 198.843 40.4616 199.409H40.4981C40.6471 199.147 40.8631 198.94 41.146 198.788C41.429 198.636 41.7513 198.56 42.1133 198.56C42.6791 198.56 43.102 198.706 43.3818 198.998C43.6647 199.287 43.8062 199.75 43.8062 200.389V203.652H43.0487ZM47.231 203.743C46.9055 203.743 46.6074 203.684 46.3367 203.565C46.069 203.444 45.8439 203.258 45.6614 203.008H45.6066C45.6431 203.301 45.6614 203.577 45.6614 203.839V205.897H44.904V198.651H45.52L45.6249 199.335H45.6614C45.856 199.062 46.0827 198.864 46.3412 198.743C46.5998 198.62 46.8964 198.56 47.231 198.56C47.8941 198.56 48.4051 198.787 48.7641 199.24C49.1261 199.693 49.3071 200.328 49.3071 201.147C49.3071 201.968 49.123 202.607 48.7549 203.063C48.39 203.516 47.882 203.743 47.231 203.743ZM47.1215 199.203C46.6104 199.203 46.2408 199.345 46.0127 199.628C45.7845 199.911 45.6675 200.36 45.6614 200.978V201.147C45.6614 201.85 45.7785 202.353 46.0127 202.657C46.2469 202.958 46.6226 203.109 47.1397 203.109C47.5716 203.109 47.9093 202.934 48.1527 202.584C48.399 202.234 48.5223 201.752 48.5223 201.137C48.5223 200.514 48.399 200.037 48.1527 199.705C47.9093 199.371 47.5656 199.203 47.1215 199.203ZM52.2802 203.743C51.541 203.743 50.957 203.518 50.5281 203.068C50.1022 202.618 49.8892 201.992 49.8892 201.192C49.8892 200.387 50.087 199.746 50.4824 199.272C50.8809 198.797 51.4147 198.56 52.084 198.56C52.7106 198.56 53.2064 198.767 53.5715 199.18C53.9365 199.591 54.119 200.134 54.119 200.809V201.288H50.6741C50.6893 201.876 50.8368 202.321 51.1167 202.625C51.3995 202.93 51.7965 203.082 52.3076 203.082C52.8459 203.082 53.3783 202.969 53.9046 202.744V203.419C53.6368 203.535 53.3829 203.617 53.1426 203.666C52.9053 203.717 52.6178 203.743 52.2802 203.743ZM52.0749 199.194C51.6733 199.194 51.3524 199.325 51.1121 199.586C50.8748 199.848 50.7349 200.21 50.6923 200.672H53.3068C53.3068 200.195 53.2004 199.83 52.9874 199.578C52.7745 199.322 52.4703 199.194 52.0749 199.194ZM57.229 198.56C57.451 198.56 57.6503 198.578 57.8267 198.614L57.7218 199.317C57.5149 199.272 57.3324 199.248 57.1742 199.248C56.7697 199.248 56.4229 199.413 56.1339 199.742C55.848 200.07 55.705 200.479 55.705 200.969V203.652H54.9476V198.651H55.5727L55.6594 199.578H55.6959C55.8815 199.252 56.105 199.001 56.3666 198.825C56.6282 198.648 56.9157 198.56 57.229 198.56ZM61.3702 203.652L61.2197 202.94H61.1831C60.9337 203.253 60.6843 203.466 60.4348 203.579C60.1884 203.688 59.8797 203.743 59.5086 203.743C59.0127 203.743 58.6234 203.615 58.3405 203.359C58.0606 203.104 57.9207 202.741 57.9207 202.269C57.9207 201.26 58.7283 200.73 60.3436 200.682L61.1922 200.654V200.344C61.1922 199.951 61.1071 199.662 60.9367 199.477C60.7694 199.289 60.5003 199.194 60.1291 199.194C59.7124 199.194 59.2409 199.322 58.7146 199.578L58.4819 198.998C58.7283 198.864 58.9975 198.759 59.2895 198.683C59.5846 198.607 59.8797 198.569 60.1747 198.569C60.771 198.569 61.212 198.701 61.4979 198.965C61.7869 199.23 61.9315 199.655 61.9315 200.239V203.652H61.3702ZM59.6592 203.118C60.1306 203.118 60.5003 202.989 60.7679 202.73C61.0386 202.472 61.174 202.109 61.174 201.644V201.192L60.4166 201.224C59.8143 201.246 59.3793 201.34 59.1116 201.507C58.847 201.671 58.7146 201.928 58.7146 202.278C58.7146 202.552 58.7968 202.761 58.9611 202.904C59.1283 203.046 59.361 203.118 59.6592 203.118ZM64.6445 203.118C64.7783 203.118 64.9076 203.109 65.0323 203.09C65.157 203.069 65.2559 203.048 65.3289 203.026V203.606C65.2467 203.646 65.1251 203.678 64.9638 203.702C64.8057 203.729 64.6627 203.743 64.5349 203.743C63.5676 203.743 63.084 203.233 63.084 202.215V199.24H62.3676V198.875L63.084 198.56L63.4034 197.492H63.8414V198.651H65.2924V199.24H63.8414V202.183C63.8414 202.484 63.9129 202.715 64.0559 202.876C64.1989 203.037 64.395 203.118 64.6445 203.118ZM66.5773 198.651V201.895C66.5773 202.303 66.67 202.607 66.8556 202.807C67.0412 203.008 67.3319 203.109 67.7271 203.109C68.2503 203.109 68.6321 202.966 68.8724 202.68C69.1154 202.394 69.2375 201.927 69.2375 201.279V198.651H69.9951V203.652H69.3697L69.2602 202.981H69.2189C69.064 203.227 68.8477 203.416 68.5714 203.547C68.2977 203.678 67.984 203.743 67.6316 203.743C67.0229 203.743 66.5666 203.598 66.2624 203.309C65.9613 203.02 65.8107 202.558 65.8107 201.922V198.651H66.5773ZM73.4199 198.56C73.6415 198.56 73.8411 198.578 74.0173 198.614L73.9125 199.317C73.7056 199.272 73.5234 199.248 73.3652 199.248C72.96 199.248 72.6136 199.413 72.3246 199.742C72.0389 200.07 71.8954 200.479 71.8954 200.969V203.652H71.1385V198.651H71.7633L71.85 199.578H71.8867C72.0723 199.252 72.2959 199.001 72.5576 198.825C72.8192 198.648 73.1062 198.56 73.4199 198.56ZM77.5609 203.652L77.4101 202.94H77.374C77.1244 203.253 76.8748 203.466 76.6258 203.579C76.3788 203.688 76.0705 203.743 75.6993 203.743C75.2034 203.743 74.8143 203.615 74.5313 203.359C74.2516 203.104 74.1114 202.741 74.1114 202.269C74.1114 201.26 74.9191 200.73 76.5344 200.682L77.3827 200.654V200.344C77.3827 199.951 77.2979 199.662 77.1271 199.477C76.9602 199.289 76.6905 199.194 76.3194 199.194C75.9029 199.194 75.4317 199.322 74.9051 199.578L74.6728 198.998C74.9191 198.864 75.1881 198.759 75.4804 198.683C75.7754 198.607 76.0705 198.569 76.3655 198.569C76.9615 198.569 77.4027 198.701 77.6884 198.965C77.9774 199.23 78.1223 199.655 78.1223 200.239V203.652H77.5609ZM75.8495 203.118C76.3214 203.118 76.6905 202.989 76.9589 202.73C77.2292 202.472 77.3647 202.109 77.3647 201.644V201.192L76.6071 201.224C76.005 201.246 75.5699 201.34 75.3022 201.507C75.0379 201.671 74.9051 201.928 74.9051 202.278C74.9051 202.552 74.9871 202.761 75.1513 202.904C75.3189 203.046 75.5518 203.118 75.8495 203.118Z" fill="#999999"/>
<path d="M15.705 202.984C17.1796 202.984 18.3749 201.789 18.3749 200.314C18.3749 198.84 17.1796 197.645 15.705 197.645C14.2305 197.645 13.0352 198.84 13.0352 200.314C13.0352 201.789 14.2305 202.984 15.705 202.984Z" fill="#FCB937"/>
<path d="M188.528 196.981V201.298C188.528 202.058 188.298 202.655 187.839 203.09C187.38 203.526 186.748 203.743 185.945 203.743C185.142 203.743 184.52 203.524 184.079 203.086C183.641 202.648 183.422 202.046 183.422 201.279V196.981H184.198V201.334C184.198 201.89 184.349 202.318 184.654 202.616C184.958 202.914 185.405 203.063 185.995 203.063C186.558 203.063 186.991 202.914 187.296 202.616C187.6 202.315 187.752 201.884 187.752 201.325V196.981H188.528ZM196.091 203.652V200.399C196.091 200 196.006 199.702 195.835 199.504C195.665 199.303 195.401 199.203 195.042 199.203C194.57 199.203 194.222 199.339 193.996 199.609C193.771 199.88 193.659 200.296 193.659 200.859V203.652H192.902V200.399C192.902 200 192.816 199.702 192.646 199.504C192.476 199.303 192.21 199.203 191.848 199.203C191.373 199.203 191.025 199.346 190.803 199.632C190.584 199.915 190.474 200.38 190.474 201.028V203.652H189.717V198.651H190.333L190.456 199.335H190.492C190.636 199.092 190.836 198.902 191.095 198.765C191.357 198.628 191.648 198.56 191.971 198.56C192.753 198.56 193.264 198.843 193.504 199.409H193.541C193.689 199.147 193.906 198.94 194.189 198.788C194.471 198.636 194.793 198.56 195.156 198.56C195.721 198.56 196.144 198.706 196.424 198.998C196.707 199.287 196.849 199.75 196.849 200.389V203.652H196.091ZM198.703 203.652H197.947V198.651H198.703V203.652ZM197.882 197.296C197.882 197.123 197.925 196.996 198.01 196.917C198.095 196.835 198.201 196.794 198.33 196.794C198.451 196.794 198.556 196.835 198.645 196.917C198.733 196.999 198.777 197.125 198.777 197.296C198.777 197.466 198.733 197.594 198.645 197.679C198.556 197.761 198.451 197.802 198.33 197.802C198.201 197.802 198.095 197.761 198.01 197.679C197.925 197.594 197.882 197.466 197.882 197.296ZM203.246 202.981H203.206C202.856 203.489 202.332 203.743 201.636 203.743C200.982 203.743 200.472 203.52 200.107 203.072C199.745 202.625 199.564 201.989 199.564 201.165C199.564 200.34 199.747 199.7 200.112 199.244C200.477 198.788 200.985 198.56 201.636 198.56C202.314 198.56 202.834 198.806 203.196 199.299H203.256L203.224 198.938L203.206 198.587V196.552H203.963V203.652H203.347L203.246 202.981ZM201.732 203.109C202.248 203.109 202.623 202.969 202.854 202.689C203.088 202.406 203.206 201.951 203.206 201.325V201.165C203.206 200.457 203.087 199.951 202.85 199.65C202.615 199.346 202.24 199.194 201.722 199.194C201.279 199.194 200.937 199.367 200.7 199.714C200.466 200.058 200.349 200.545 200.349 201.174C200.349 201.813 200.466 202.295 200.7 202.621C200.935 202.946 201.279 203.109 201.732 203.109ZM208.182 203.652L208.031 202.94H207.995C207.745 203.253 207.495 203.466 207.246 203.579C207 203.688 206.691 203.743 206.32 203.743C205.824 203.743 205.435 203.615 205.152 203.359C204.872 203.104 204.732 202.741 204.732 202.269C204.732 201.26 205.54 200.73 207.155 200.682L208.003 200.654V200.344C208.003 199.951 207.919 199.662 207.748 199.477C207.581 199.289 207.312 199.194 206.941 199.194C206.524 199.194 206.052 199.322 205.526 199.578L205.293 198.998C205.54 198.864 205.809 198.759 206.101 198.683C206.396 198.607 206.691 198.569 206.986 198.569C207.582 198.569 208.023 198.701 208.309 198.965C208.598 199.23 208.743 199.655 208.743 200.239V203.652H208.182ZM206.471 203.118C206.942 203.118 207.312 202.989 207.579 202.73C207.85 202.472 207.985 202.109 207.985 201.644V201.192L207.228 201.224C206.626 201.246 206.19 201.34 205.923 201.507C205.658 201.671 205.526 201.928 205.526 202.278C205.526 202.552 205.608 202.761 205.773 202.904C205.939 203.046 206.172 203.118 206.471 203.118ZM213.244 202.981H213.204C212.854 203.489 212.331 203.743 211.634 203.743C210.98 203.743 210.47 203.52 210.105 203.072C209.743 202.625 209.563 201.989 209.563 201.165C209.563 200.34 209.745 199.7 210.11 199.244C210.475 198.788 210.983 198.56 211.634 198.56C212.312 198.56 212.832 198.806 213.194 199.299H213.254L213.222 198.938L213.204 198.587V196.552H213.961V203.652H213.345L213.244 202.981ZM211.73 203.109C212.246 203.109 212.621 202.969 212.852 202.689C213.086 202.406 213.204 201.951 213.204 201.325V201.165C213.204 200.457 213.085 199.951 212.847 199.65C212.614 199.346 212.238 199.194 211.72 199.194C211.277 199.194 210.936 199.367 210.699 199.714C210.464 200.058 210.347 200.545 210.347 201.174C210.347 201.813 210.464 202.295 210.699 202.621C210.933 202.946 211.277 203.109 211.73 203.109ZM217.217 203.743C216.478 203.743 215.894 203.518 215.465 203.068C215.039 202.618 214.826 201.992 214.826 201.192C214.826 200.387 215.024 199.746 215.419 199.272C215.817 198.797 216.351 198.56 217.021 198.56C217.647 198.56 218.143 198.767 218.508 199.18C218.873 199.591 219.055 200.134 219.055 200.809V201.288H215.611C215.626 201.876 215.773 202.321 216.053 202.625C216.336 202.93 216.733 203.082 217.244 203.082C217.782 203.082 218.315 202.969 218.841 202.744V203.419C218.573 203.535 218.32 203.617 218.079 203.666C217.842 203.717 217.554 203.743 217.217 203.743ZM217.012 199.194C216.61 199.194 216.289 199.325 216.049 199.586C215.811 199.848 215.671 200.21 215.629 200.672H218.244C218.244 200.195 218.137 199.83 217.924 199.578C217.711 199.322 217.407 199.194 217.012 199.194Z" fill="#999999"/>
<path d="M191.894 239.028H189.783V225.443C189.783 224.314 189.817 223.245 189.887 222.237C189.704 222.419 189.5 222.611 189.274 222.81C189.048 223.01 188.014 223.857 186.172 225.353L185.024 223.866L190.069 219.968H191.894V239.028ZM198.043 230.88C198.043 227.134 198.768 224.335 200.22 222.484C201.68 220.624 203.835 219.694 206.686 219.694C207.668 219.694 208.441 219.777 209.006 219.942V221.806C208.337 221.589 207.572 221.481 206.712 221.481C204.669 221.481 203.109 222.119 202.031 223.397C200.954 224.666 200.363 226.665 200.259 229.394H200.415C201.371 227.899 202.883 227.151 204.952 227.151C206.664 227.151 208.011 227.669 208.993 228.703C209.984 229.737 210.48 231.141 210.48 232.914C210.48 234.895 209.936 236.455 208.85 237.594C207.772 238.723 206.312 239.289 204.47 239.289C202.497 239.289 200.932 238.55 199.776 237.072C198.621 235.586 198.043 233.522 198.043 230.88ZM204.444 237.451C205.678 237.451 206.634 237.063 207.311 236.29C207.998 235.508 208.341 234.382 208.341 232.914C208.341 231.654 208.024 230.662 207.39 229.941C206.755 229.22 205.808 228.86 204.548 228.86C203.765 228.86 203.049 229.02 202.396 229.341C201.745 229.663 201.223 230.106 200.832 230.671C200.45 231.236 200.259 231.823 200.259 232.431C200.259 233.326 200.433 234.161 200.78 234.934C201.128 235.708 201.619 236.321 202.253 236.772C202.896 237.224 203.627 237.451 204.444 237.451ZM213.616 225.652C213.616 227.129 213.777 228.238 214.098 228.976C214.42 229.715 214.941 230.085 215.663 230.085C217.088 230.085 217.8 228.607 217.8 225.652C217.8 222.715 217.088 221.246 215.663 221.246C214.941 221.246 214.42 221.611 214.098 222.341C213.777 223.071 213.616 224.175 213.616 225.652ZM219.587 225.652C219.587 227.634 219.252 229.133 218.583 230.15C217.923 231.158 216.949 231.662 215.663 231.662C214.446 231.662 213.499 231.145 212.82 230.111C212.152 229.076 211.817 227.591 211.817 225.652C211.817 223.679 212.138 222.193 212.782 221.194C213.433 220.194 214.394 219.694 215.663 219.694C216.923 219.694 217.892 220.212 218.57 221.246C219.247 222.28 219.587 223.749 219.587 225.652ZM225.088 233.292C225.088 234.778 225.249 235.89 225.57 236.629C225.892 237.359 226.418 237.724 227.148 237.724C227.878 237.724 228.417 237.364 228.764 236.642C229.112 235.912 229.286 234.795 229.286 233.292C229.286 231.806 229.112 230.706 228.764 229.994C228.417 229.272 227.878 228.912 227.148 228.912C226.418 228.912 225.892 229.272 225.57 229.994C225.249 230.706 225.088 231.806 225.088 233.292ZM231.072 233.292C231.072 235.265 230.737 236.76 230.068 237.776C229.408 238.784 228.434 239.289 227.148 239.289C225.914 239.289 224.962 238.772 224.293 237.737C223.632 236.703 223.302 235.221 223.302 233.292C223.302 231.319 223.623 229.833 224.267 228.833C224.918 227.834 225.879 227.334 227.148 227.334C228.382 227.334 229.342 227.847 230.029 228.872C230.724 229.889 231.072 231.363 231.072 233.292ZM227.708 219.968L217.136 239.028H215.219L225.792 219.968H227.708Z" fill="#333333"/>
<path d="M171.894 202.651C173.184 202.651 174.23 201.605 174.23 200.314C174.23 199.024 173.184 197.978 171.894 197.978C170.603 197.978 169.557 199.024 169.557 200.314C169.557 201.605 170.603 202.651 171.894 202.651Z" fill="#FC2F6D"/>
<path fill-rule="evenodd" clip-rule="evenodd" d="M171.894 198.312C170.788 198.312 169.891 199.209 169.891 200.314C169.891 201.42 170.788 202.317 171.894 202.317C172.999 202.317 173.896 201.42 173.896 200.314C173.896 199.209 172.999 198.312 171.894 198.312ZM169.224 200.314C169.224 198.84 170.419 197.645 171.894 197.645C173.368 197.645 174.563 198.84 174.563 200.314C174.563 201.789 173.368 202.984 171.894 202.984C170.419 202.984 169.224 201.789 169.224 200.314Z" fill="#FC2F6D"/>
<path d="M31.4948 251.042L30.6644 248.92H27.9906L27.1693 251.042H26.3845L29.0218 244.344H29.6743L32.2979 251.042H31.4948ZM30.4226 248.222L29.6469 246.156C29.5465 245.894 29.4431 245.573 29.3367 245.193C29.2697 245.485 29.1739 245.806 29.0492 246.156L28.2644 248.222H30.4226ZM36.7733 246.042V246.521L35.847 246.63C35.9322 246.736 36.0083 246.877 36.0752 247.05C36.1421 247.22 36.1755 247.413 36.1755 247.63C36.1755 248.119 36.0083 248.51 35.6737 248.802C35.3391 249.094 34.8797 249.24 34.2957 249.24C34.1466 249.24 34.0067 249.228 33.8759 249.203C33.5534 249.374 33.3923 249.589 33.3923 249.847C33.3923 249.984 33.4485 250.086 33.5611 250.153C33.6737 250.217 33.8668 250.249 34.1406 250.249H35.0258C35.5672 250.249 35.9824 250.362 36.2714 250.59C36.5634 250.819 36.7094 251.15 36.7094 251.585C36.7094 252.139 36.4874 252.56 36.0433 252.849C35.5991 253.142 34.9512 253.287 34.0995 253.287C33.4455 253.287 32.9405 253.166 32.5846 252.922C32.2318 252.679 32.0554 252.335 32.0554 251.891C32.0554 251.587 32.1527 251.324 32.3474 251.102C32.542 250.879 32.8158 250.729 33.1686 250.65C33.0409 250.592 32.933 250.502 32.8447 250.381C32.7596 250.259 32.717 250.118 32.717 249.956C32.717 249.774 32.7656 249.614 32.8629 249.477C32.9603 249.34 33.1139 249.208 33.3238 249.081C33.0653 248.974 32.8539 248.793 32.6896 248.537C32.5283 248.282 32.4478 247.99 32.4478 247.662C32.4478 247.114 32.612 246.692 32.9405 246.397C33.269 246.099 33.7345 245.95 34.3367 245.95C34.5984 245.95 34.8341 245.981 35.044 246.042H36.7733ZM32.7854 251.882C32.7854 252.152 32.8995 252.358 33.1276 252.498C33.3557 252.638 33.6827 252.708 34.1086 252.708C34.7444 252.708 35.2143 252.612 35.5186 252.42C35.8257 252.232 35.9794 251.975 35.9794 251.649C35.9794 251.379 35.8957 251.19 35.7284 251.084C35.5611 250.98 35.2463 250.928 34.7839 250.928H33.8759C33.5322 250.928 33.2645 251.01 33.0729 251.174C32.8812 251.339 32.7854 251.575 32.7854 251.882ZM33.1961 247.643C33.1961 247.993 33.2949 248.258 33.4926 248.437C33.6903 248.617 33.9657 248.706 34.3185 248.706C35.0577 248.706 35.4272 248.347 35.4272 247.63C35.4272 246.878 35.0531 246.502 34.3048 246.502C33.9489 246.502 33.6751 246.598 33.4835 246.79C33.2919 246.981 33.1961 247.266 33.1961 247.643ZM41.6958 248.537C41.6958 249.352 41.4905 249.99 41.0799 250.449C40.6692 250.905 40.1019 251.134 39.3779 251.134C38.9307 251.134 38.5338 251.028 38.187 250.819C37.8403 250.609 37.5726 250.307 37.384 249.916C37.1954 249.523 37.1011 249.063 37.1011 248.537C37.1011 247.722 37.3049 247.088 37.7125 246.634C38.1201 246.178 38.6859 245.95 39.4099 245.95C40.1095 245.95 40.6646 246.183 41.0753 246.648C41.489 247.114 41.6958 247.744 41.6958 248.537ZM37.8859 248.537C37.8859 249.176 38.0136 249.663 38.2691 249.998C38.5247 250.332 38.9004 250.5 39.3962 250.5C39.892 250.5 40.2677 250.333 40.5232 250.002C40.7818 249.667 40.911 249.179 40.911 248.537C40.911 247.902 40.7818 247.419 40.5232 247.091C40.2677 246.759 39.889 246.594 39.387 246.594C38.8912 246.594 38.517 246.756 38.2646 247.082C38.0121 247.407 37.8859 247.893 37.8859 248.537ZM44.8891 245.95C45.1111 245.95 45.3104 245.968 45.4868 246.005L45.3819 246.708C45.175 246.662 44.9925 246.639 44.8343 246.639C44.4297 246.639 44.083 246.803 43.794 247.132C43.5081 247.461 43.3651 247.87 43.3651 248.359V251.042H42.6076V246.042H43.2327L43.3194 246.968H43.356C43.5415 246.642 43.7651 246.391 44.0267 246.215C44.2883 246.038 44.5758 245.95 44.8891 245.95ZM49.077 251.042L48.9264 250.331H48.8899C48.6405 250.644 48.391 250.857 48.1416 250.97C47.8952 251.079 47.5865 251.134 47.2153 251.134C46.7195 251.134 46.3301 251.006 46.0473 250.75C45.7674 250.495 45.6275 250.131 45.6275 249.66C45.6275 248.65 46.4351 248.121 48.0504 248.072L48.899 248.045V247.734C48.899 247.342 48.8139 247.053 48.6435 246.867C48.4762 246.679 48.207 246.584 47.8359 246.584C47.4192 246.584 46.9477 246.712 46.4215 246.968L46.1887 246.388C46.4351 246.255 46.7043 246.15 46.9963 246.074C47.2914 245.998 47.5865 245.96 47.8815 245.96C48.4777 245.96 48.9188 246.092 49.2048 246.356C49.4937 246.621 49.6382 247.045 49.6382 247.63V251.042H49.077ZM47.3659 250.508C47.8374 250.508 48.207 250.38 48.4747 250.121C48.7454 249.862 48.8808 249.5 48.8808 249.035V248.583L48.1234 248.615C47.521 248.636 47.0861 248.73 46.8184 248.898C46.5537 249.062 46.4215 249.319 46.4215 249.669C46.4215 249.943 46.5036 250.151 46.6678 250.294C46.8352 250.437 47.0678 250.508 47.3659 250.508Z" fill="#999999"/>
<path d="M39.5722 221.783C39.5722 223 39.2289 223.995 38.5423 224.769C37.8644 225.542 36.8997 226.059 35.6482 226.32V226.424C37.1779 226.616 38.312 227.102 39.0508 227.884C39.7895 228.667 40.1589 229.692 40.1589 230.961C40.1589 232.777 39.5288 234.177 38.2686 235.159C37.0084 236.132 35.218 236.619 32.8975 236.619C31.8893 236.619 30.9638 236.54 30.1207 236.384C29.2864 236.237 28.4737 235.972 27.6829 235.589V233.529C28.5085 233.938 29.3863 234.25 30.3162 234.468C31.2549 234.676 32.1414 234.781 32.9757 234.781C36.2696 234.781 37.9166 233.49 37.9166 230.909C37.9166 228.597 36.1002 227.441 32.4673 227.441H30.59V225.577H32.4933C33.9795 225.577 35.1572 225.251 36.0263 224.599C36.8954 223.938 37.3299 223.026 37.3299 221.861C37.3299 220.931 37.0084 220.201 36.3652 219.671C35.7308 219.141 34.866 218.876 33.7709 218.876C32.9366 218.876 32.1501 218.989 31.4113 219.215C30.6726 219.441 29.8296 219.858 28.8822 220.466L27.7872 219.006C28.5693 218.389 29.4689 217.907 30.4857 217.559C31.5113 217.203 32.589 217.025 33.7188 217.025C35.57 217.025 37.0084 217.451 38.0339 218.302C39.0595 219.145 39.5722 220.306 39.5722 221.783ZM49.553 221.561C49.553 222.987 49.1793 224.099 48.4319 224.899C47.6932 225.69 46.6719 226.085 45.3683 226.085C44.0994 226.085 43.0956 225.681 42.3568 224.873C41.6268 224.064 41.2618 222.96 41.2618 221.561C41.2618 220.145 41.6268 219.045 42.3568 218.263C43.0869 217.473 44.1081 217.077 45.4204 217.077C46.7415 217.077 47.7583 217.473 48.471 218.263C49.1924 219.054 49.553 220.154 49.553 221.561ZM42.8522 221.561C42.8522 222.622 43.0477 223.417 43.4389 223.947C43.8386 224.478 44.4905 224.743 45.3944 224.743C46.307 224.743 46.9631 224.478 47.3629 223.947C47.7626 223.417 47.9626 222.622 47.9626 221.561C47.9626 220.492 47.7626 219.702 47.3629 219.189C46.9631 218.676 46.307 218.42 45.3944 218.42C44.4992 218.42 43.8517 218.676 43.4519 219.189C43.0522 219.702 42.8522 220.492 42.8522 221.561Z" fill="#333333"/>
<path d="M110.423 251.042L108.16 245.129H108.123C108.166 245.597 108.187 246.154 108.187 246.799V251.042H107.471V244.372H108.639L110.752 249.874H110.788L112.919 244.372H114.078V251.042H113.302V246.745C113.302 246.251 113.323 245.716 113.366 245.138H113.329L111.048 251.042H110.423ZM118.453 251.042L118.302 250.331H118.266C118.016 250.644 117.767 250.857 117.517 250.97C117.271 251.079 116.962 251.134 116.591 251.134C116.095 251.134 115.706 251.006 115.423 250.75C115.143 250.495 115.003 250.131 115.003 249.66C115.003 248.65 115.811 248.121 117.426 248.072L118.275 248.045V247.734C118.275 247.342 118.19 247.053 118.019 246.867C117.852 246.679 117.582 246.584 117.211 246.584C116.795 246.584 116.324 246.712 115.797 246.968L115.565 246.388C115.811 246.255 116.08 246.15 116.372 246.074C116.667 245.998 116.962 245.96 117.257 245.96C117.853 245.96 118.295 246.092 118.58 246.356C118.869 246.621 119.014 247.046 119.014 247.63V251.042H118.453ZM116.741 250.508C117.213 250.508 117.582 250.38 117.85 250.121C118.121 249.862 118.257 249.5 118.257 249.035V248.583L117.499 248.615C116.897 248.636 116.462 248.73 116.194 248.898C115.93 249.062 115.797 249.319 115.797 249.669C115.797 249.943 115.879 250.151 116.043 250.294C116.211 250.437 116.444 250.508 116.741 250.508ZM116.564 245.266C116.709 245.077 116.866 244.849 117.034 244.581C117.204 244.314 117.338 244.081 117.435 243.883H118.357V243.979C118.223 244.177 118.024 244.42 117.759 244.709C117.494 244.998 117.265 245.222 117.07 245.38H116.564V245.266ZM121.363 248.483L119.625 246.042H120.487L121.806 247.958L123.12 246.042H123.973L122.235 248.483L124.064 251.042H123.207L121.806 249.017L120.391 251.042H119.534L121.363 248.483Z" fill="#999999"/>
<path d="M121.026 229.799C121.026 230.347 120.872 230.795 120.563 231.143C120.258 231.491 119.823 231.724 119.261 231.84V231.888C119.949 231.974 120.459 232.193 120.791 232.545C121.124 232.896 121.291 233.358 121.291 233.929C121.291 234.747 121.007 235.376 120.44 235.818C119.872 236.256 119.067 236.475 118.023 236.475C117.569 236.475 117.152 236.44 116.773 236.37C116.397 236.303 116.032 236.184 115.676 236.011V235.085C116.048 235.269 116.443 235.409 116.861 235.508C117.284 235.601 117.682 235.648 118.058 235.648C119.54 235.648 120.281 235.067 120.281 233.906C120.281 232.866 119.464 232.345 117.829 232.345H116.984V231.506H117.841C118.51 231.506 119.039 231.36 119.43 231.066C119.821 230.769 120.017 230.359 120.017 229.835C120.017 229.416 119.872 229.087 119.583 228.849C119.297 228.611 118.908 228.491 118.416 228.491C118.04 228.491 117.686 228.542 117.354 228.643C117.021 228.745 116.642 228.933 116.216 229.207L115.723 228.55C116.075 228.272 116.479 228.055 116.937 227.898C117.399 227.738 117.884 227.658 118.392 227.658C119.225 227.658 119.872 227.85 120.334 228.233C120.795 228.613 121.026 229.135 121.026 229.799ZM124.783 229.699C124.783 230.341 124.615 230.841 124.279 231.201C123.946 231.557 123.487 231.735 122.901 231.735C122.329 231.735 121.877 231.553 121.545 231.19C121.216 230.826 121.052 230.329 121.052 229.699C121.052 229.062 121.216 228.567 121.545 228.215C121.874 227.86 122.333 227.681 122.924 227.681C123.518 227.681 123.976 227.86 124.296 228.215C124.621 228.571 124.783 229.066 124.783 229.699ZM121.768 229.699C121.768 230.176 121.856 230.534 122.032 230.773C122.212 231.011 122.505 231.131 122.912 231.131C123.322 231.131 123.618 231.011 123.798 230.773C123.978 230.534 124.068 230.176 124.068 229.699C124.068 229.219 123.978 228.863 123.798 228.632C123.618 228.401 123.322 228.286 122.912 228.286C122.509 228.286 122.218 228.401 122.038 228.632C121.858 228.863 121.768 229.219 121.768 229.699Z" fill="#666666"/>
<path d="M81.7181 251.042L79.4547 245.129H79.418C79.4607 245.597 79.4821 246.154 79.4821 246.799V251.042H78.7659V244.372H79.9339L82.0465 249.874H82.0832L84.2138 244.372H85.3725V251.042H84.5969V246.744C84.5969 246.251 84.6183 245.716 84.661 245.138H84.6243L82.3429 251.042H81.7181ZM87.4297 251.042H86.6721V246.042H87.4297V251.042ZM86.6087 244.687C86.6087 244.513 86.6514 244.387 86.7362 244.308C86.8216 244.225 86.9277 244.185 87.0559 244.185C87.1774 244.185 87.2822 244.225 87.3703 244.308C87.459 244.39 87.5031 244.516 87.5031 244.687C87.5031 244.857 87.459 244.984 87.3703 245.07C87.2822 245.152 87.1774 245.193 87.0559 245.193C86.9277 245.193 86.8216 245.152 86.7362 245.07C86.6514 244.984 86.6087 244.857 86.6087 244.687ZM92.0372 251.042V247.807C92.0372 247.4 91.9445 247.096 91.7589 246.895C91.5733 246.694 91.283 246.594 90.8878 246.594C90.3645 246.594 89.9814 246.735 89.7378 247.018C89.4948 247.301 89.3727 247.768 89.3727 248.418V251.042H88.6158V246.042H89.2312L89.3547 246.726H89.3914C89.5462 246.479 89.7638 246.289 90.0435 246.156C90.3232 246.019 90.6355 245.95 90.9793 245.95C91.5813 245.95 92.0346 246.096 92.3389 246.388C92.6426 246.677 92.7948 247.141 92.7948 247.78V251.042H92.0372Z" fill="#999999"/>
<path d="M82.3767 232.916V232.024H85.2569V232.916H82.3767ZM88.6149 235.69H87.6651V229.578C87.6651 229.069 87.6805 228.588 87.7118 228.135C87.6297 228.217 87.5376 228.303 87.4361 228.392C87.334 228.482 86.8688 228.863 86.0398 229.536L85.5238 228.867L87.7939 227.113H88.6149V235.69ZM94.0795 229.032C94.0795 229.673 93.9113 230.174 93.5749 230.533C93.2425 230.89 92.7833 231.067 92.1966 231.067C91.6252 231.067 91.1733 230.886 90.8409 230.522C90.5125 230.158 90.3483 229.662 90.3483 229.032C90.3483 228.394 90.5125 227.9 90.8409 227.548C91.17 227.192 91.6292 227.014 92.2199 227.014C92.814 227.014 93.2719 227.192 93.5923 227.548C93.9173 227.904 94.0795 228.398 94.0795 229.032ZM91.0639 229.032C91.0639 229.509 91.152 229.867 91.3282 230.106C91.5077 230.344 91.8014 230.463 92.2079 230.463C92.6184 230.463 92.9141 230.344 93.0936 230.106C93.2739 229.867 93.364 229.509 93.364 229.032C93.364 228.551 93.2739 228.195 93.0936 227.964C92.9141 227.733 92.6184 227.618 92.2079 227.618C91.8054 227.618 91.5137 227.733 91.3342 227.964C91.154 228.195 91.0639 228.551 91.0639 229.032Z" fill="#666666"/>
<path d="M29.0751 80.8368H20.2937V65.589H29.0751V68.2382H23.5268V71.5863H28.6892V74.2348H23.5268V78.1669H29.0751V80.8368ZM39.35 77.3739C39.35 78.57 38.9329 79.4812 38.0985 80.1066C37.2711 80.7327 36.03 81.045 34.3753 81.045C33.527 81.045 32.8039 80.9863 32.206 80.8682C31.608 80.7567 31.0484 80.5898 30.5269 80.3676V77.739C31.1179 78.0174 31.7819 78.2503 32.5189 78.4379C33.2628 78.6261 33.9164 78.7196 34.4796 78.7196C35.6338 78.7196 36.2109 78.3858 36.2109 77.7184C36.2109 77.4681 36.1344 77.2665 35.9814 77.1136C35.8285 76.9534 35.5642 76.7766 35.1888 76.5817C34.8133 76.3801 34.3127 76.1471 33.6869 75.8828C32.7901 75.5077 32.1295 75.1599 31.7054 74.8402C31.2882 74.5198 30.9823 74.1554 30.7876 73.7449C30.5999 73.3277 30.506 72.8164 30.506 72.2117C30.506 71.1758 30.9059 70.3762 31.7054 69.8128C32.5119 69.2428 33.6522 68.9578 35.1262 68.9578C36.5306 68.9578 37.8969 69.2635 39.2249 69.8756L38.2654 72.1703C37.6814 71.92 37.1356 71.7144 36.628 71.5549C36.1205 71.3947 35.6025 71.3146 35.074 71.3146C34.1354 71.3146 33.6661 71.5689 33.6661 72.0762C33.6661 72.3612 33.8156 72.6082 34.1145 72.8164C34.4205 73.0254 35.0845 73.3344 36.1065 73.7449C37.0174 74.1133 37.6848 74.4578 38.109 74.7775C38.5331 75.0972 38.846 75.4656 39.0476 75.8828C39.2493 76.3 39.35 76.7972 39.35 77.3739ZM45.9434 78.5113C46.4997 78.5113 47.1672 78.3892 47.9458 78.1462V80.5137C47.1532 80.8682 46.1798 81.045 45.0256 81.045C43.7533 81.045 42.8251 80.7253 42.2411 80.0859C41.664 79.4391 41.3754 78.4726 41.3754 77.1864V71.5649H39.8527V70.22L41.6048 69.156L42.5226 66.6944H44.5563V69.1767H47.8207V71.5649H44.5563V77.1864C44.5563 77.6383 44.6815 77.972 44.9318 78.1876C45.189 78.4032 45.5262 78.5113 45.9434 78.5113ZM56.9171 80.8368L56.3018 79.2515H56.2184C55.683 79.9257 55.1302 80.3956 54.5601 80.6592C53.9969 80.9169 53.2599 81.045 52.3491 81.045C51.2297 81.045 50.3467 80.7253 49.7001 80.0859C49.0604 79.4464 48.7406 78.5353 48.7406 77.3533C48.7406 76.1158 49.1716 75.2047 50.0338 74.6213C50.9029 74.0299 52.21 73.7028 53.9552 73.6408L55.9785 73.578V73.0667C55.9785 71.8853 55.3736 71.2939 54.1638 71.2939C53.2321 71.2939 52.137 71.5756 50.8786 72.1389L49.8252 69.9904C51.1671 69.2882 52.655 68.9371 54.289 68.9371C55.8533 68.9371 57.0527 69.2775 57.887 69.959C58.7214 70.6405 59.1385 71.6764 59.1385 73.0667V80.8368H56.9171ZM55.9785 75.4343L54.7478 75.4763C53.8231 75.5037 53.1348 75.6705 52.6828 75.9769C52.2309 76.2826 52.0049 76.7485 52.0049 77.3739C52.0049 78.271 52.5194 78.7196 53.5485 78.7196C54.2854 78.7196 54.873 78.5073 55.311 78.0835C55.756 77.6596 55.9785 77.0963 55.9785 76.3941V75.4343ZM52.4429 67.8938V67.6128C53.6388 66.2218 54.4558 65.1752 54.8938 64.473H58.4607V64.692C58.0991 65.0537 57.4803 65.5924 56.6042 66.3086C55.7351 67.0181 55.0537 67.5467 54.5601 67.8938H52.4429ZM71.2826 78.5113C71.8386 78.5113 72.5061 78.3892 73.285 78.1462V80.5137C72.4921 80.8682 71.5189 81.045 70.3648 81.045C69.092 81.045 68.1642 80.7253 67.5801 80.0859C67.0029 79.4391 66.7144 78.4726 66.7144 77.1864V71.5649H65.1917V70.22L66.9438 69.156L67.8618 66.6944H69.8956V69.1767H73.1595V71.5649H69.8956V77.1864C69.8956 77.6383 70.0204 77.972 70.2707 78.1876C70.5277 78.4032 70.8654 78.5113 71.2826 78.5113ZM83.1116 80.8368L82.6837 79.3457H82.5168C82.1758 79.8876 81.6932 80.3082 81.0671 80.6072C80.4417 80.8995 79.7288 81.045 78.9292 81.045C77.5595 81.045 76.5269 80.6806 75.8314 79.9504C75.1366 79.2135 74.7888 78.1562 74.7888 76.7799V69.1767H77.9694V75.9869C77.9694 76.8286 78.1189 77.4614 78.4179 77.8852C78.7169 78.3024 79.1935 78.5113 79.847 78.5113C80.7367 78.5113 81.3801 78.2156 81.7766 77.6249C82.1724 77.0269 82.3707 76.039 82.3707 74.6627V69.1767H85.5518V80.8368H83.1116ZM91.78 81.045C90.4104 81.045 89.3324 80.5137 88.5468 79.4498C87.7685 78.3858 87.3787 76.912 87.3787 75.0278C87.3787 73.1155 87.7752 71.6277 88.5675 70.5637C89.3671 69.4931 90.4658 68.9578 91.8635 68.9578C93.3306 68.9578 94.4499 69.5278 95.2215 70.6685H95.3257C95.1661 69.7995 95.086 69.0239 95.086 68.3424V64.6092H98.2772V80.8368H95.8369L95.2215 79.3243H95.086C94.3632 80.4717 93.2612 81.045 91.78 81.045ZM92.8961 78.5113C93.7097 78.5113 94.3038 78.2744 94.6795 77.8018C95.062 77.3292 95.2702 76.5262 95.305 75.3929V75.0485C95.305 73.797 95.1107 72.8999 94.7209 72.3579C94.3385 71.8152 93.713 71.5442 92.844 71.5442C92.1345 71.5442 91.5818 71.8466 91.1853 72.452C90.7962 73.0494 90.6013 73.9224 90.6013 75.0692C90.6013 76.2165 90.7995 77.0789 91.196 77.6556C91.5925 78.2263 92.1592 78.5113 92.8961 78.5113ZM103.338 74.9857C103.338 76.1404 103.526 77.0128 103.901 77.6036C104.283 78.1949 104.902 78.49 105.758 78.49C106.605 78.49 107.214 78.1983 107.582 77.6142C107.958 77.0228 108.146 76.1471 108.146 74.9857C108.146 73.8317 107.958 72.9659 107.582 72.3893C107.207 71.8119 106.592 71.5235 105.736 71.5235C104.889 71.5235 104.276 71.8119 103.901 72.3893C103.526 72.9593 103.338 73.825 103.338 74.9857ZM111.4 74.9857C111.4 76.884 110.899 78.3685 109.898 79.4391C108.897 80.5097 107.502 81.045 105.716 81.045C104.596 81.045 103.609 80.8021 102.754 80.3155C101.898 79.8216 101.241 79.116 100.783 78.1983C100.324 77.2805 100.094 76.2099 100.094 74.9857C100.094 73.0808 100.591 71.5996 101.586 70.543C102.58 69.4864 103.977 68.9578 105.778 68.9578C106.898 68.9578 107.885 69.2014 108.74 69.688C109.596 70.1746 110.252 70.8734 110.712 71.7845C111.17 72.695 111.4 73.7622 111.4 74.9857ZM124.462 68.9578C125.838 68.9578 126.916 69.4964 127.694 70.5744C128.473 71.645 128.862 73.1155 128.862 74.9857C128.862 76.912 128.459 78.4032 127.653 79.4605C126.853 80.5171 125.761 81.045 124.377 81.045C123.008 81.045 121.934 80.5484 121.155 79.5539H120.936L120.404 80.8368H117.974V64.6092H121.155V68.3844C121.155 68.8637 121.113 69.6326 121.03 70.6892H121.155C121.899 69.5351 123.001 68.9578 124.462 68.9578ZM123.439 71.5029C122.653 71.5029 122.08 71.7458 121.718 72.2324C121.356 72.7123 121.169 73.5086 121.155 74.6213V74.965C121.155 76.2165 121.339 77.1136 121.708 77.6556C122.083 78.1983 122.674 78.4693 123.481 78.4693C124.134 78.4693 124.652 78.1702 125.035 77.5722C125.424 76.9674 125.619 76.0917 125.619 74.9443C125.619 73.797 125.424 72.9386 125.035 72.3679C124.646 71.7912 124.114 71.5029 123.439 71.5029ZM135.518 71.2212C134.844 71.2212 134.315 71.4368 133.933 71.8673C133.55 72.2918 133.332 72.8965 133.276 73.6822H137.74C137.726 72.8965 137.521 72.2918 137.124 71.8673C136.728 71.4368 136.193 71.2212 135.518 71.2212ZM135.967 81.045C134.09 81.045 132.623 80.5271 131.565 79.4912C130.509 78.4552 129.98 76.9881 129.98 75.0905C129.98 73.1368 130.467 71.6277 131.441 70.5637C132.421 69.4931 133.773 68.9578 135.498 68.9578C137.145 68.9578 138.428 69.427 139.346 70.3655C140.264 71.3046 140.722 72.6008 140.722 74.2562V75.7994H133.203C133.237 76.7031 133.506 77.4093 134.006 77.9166C134.507 78.4239 135.209 78.6782 136.113 78.6782C136.815 78.6782 137.479 78.6048 138.105 78.4593C138.731 78.3131 139.384 78.0801 140.066 77.7604V80.2214C139.509 80.4997 138.915 80.7046 138.282 80.8368C137.649 80.9756 136.878 81.045 135.967 81.045ZM152.948 80.8368H149.767V74.0266C149.767 73.1849 149.624 72.5561 149.339 72.1389C149.061 71.7144 148.619 71.5029 148.015 71.5029C147.201 71.5029 146.61 71.8019 146.242 72.3993C145.873 72.9973 145.689 73.9812 145.689 75.3508V80.8368H142.508V69.1767H144.938L145.365 70.6685H145.543C145.856 70.1332 146.308 69.716 146.899 69.417C147.49 69.1106 148.167 68.9578 148.932 68.9578C150.678 68.9578 151.859 69.5278 152.479 70.6685H152.76C153.073 70.1259 153.532 69.7053 154.137 69.4063C154.749 69.1073 155.437 68.9578 156.202 68.9578C157.523 68.9578 158.521 69.2989 159.195 69.9797C159.876 70.6545 160.217 71.7391 160.217 73.2336V80.8368H157.026V74.0266C157.026 73.1849 156.883 72.5561 156.598 72.1389C156.32 71.7144 155.878 71.5029 155.273 71.5029C154.494 71.5029 153.91 71.7805 153.521 72.3372C153.139 72.8932 152.948 73.7763 152.948 74.9857V80.8368Z" fill="#333333"/>
<path d="M19.2823 38.1184H18.0464V30.4946H22.3484V31.5478H19.2823V33.9314H22.1556V34.9893H19.2823V38.1184ZM26.1916 32.2467C26.4385 32.2467 26.6418 32.264 26.8018 32.2988L26.6818 33.4408C26.508 33.3994 26.3273 33.378 26.1395 33.378C25.6493 33.378 25.2513 33.5382 24.9454 33.858C24.6429 34.1777 24.4917 34.5935 24.4917 35.1041V38.1184H23.2662V32.3508H24.2257L24.3874 33.368H24.45C24.6412 33.0236 24.8897 32.7506 25.1957 32.5491C25.5051 32.3475 25.8371 32.2467 26.1916 32.2467ZM30.0609 38.2226C29.164 38.2226 28.4618 37.9622 27.9542 37.4403C27.4501 36.9157 27.1981 36.1941 27.1981 35.2763C27.1981 34.3345 27.4327 33.5936 27.902 33.055C28.3714 32.5163 29.0162 32.2467 29.8367 32.2467C30.598 32.2467 31.1994 32.4776 31.6409 32.9402C32.0825 33.4027 32.3032 34.0389 32.3032 34.8492V35.5113H28.46C28.4774 36.0706 28.6286 36.5018 28.9137 36.8042C29.1987 37.1032 29.6003 37.2527 30.1183 37.2527C30.459 37.2527 30.7753 37.2214 31.0673 37.1586C31.3628 37.0932 31.6792 36.9851 32.0164 36.8356V37.8314C31.7174 37.9743 31.415 38.0751 31.109 38.1338C30.8031 38.1932 30.4538 38.2226 30.0609 38.2226ZM29.8367 33.1751C29.4473 33.1751 29.1344 33.2986 28.898 33.5449C28.6651 33.7919 28.526 34.1517 28.4809 34.6249H31.0986C31.0917 34.1483 30.9769 33.7885 30.7545 33.5449C30.5319 33.2986 30.226 33.1751 29.8367 33.1751ZM38.4356 38.1184H37.2049V34.5728C37.2049 34.1276 37.1145 33.7952 36.9338 33.5763C36.7565 33.3574 36.4732 33.2479 36.0838 33.2479C35.5658 33.2479 35.1869 33.4007 34.947 33.7071C34.7072 34.0128 34.5872 34.5254 34.5872 35.245V38.1184H33.3617V32.3508H34.3212L34.4933 33.1071H34.5559C34.7297 32.8327 34.9766 32.6205 35.2964 32.471C35.6162 32.3214 35.9708 32.2467 36.3602 32.2467C37.7438 32.2467 38.4356 32.9509 38.4356 34.3586V38.1184ZM41.9555 37.232C42.2544 37.232 42.5535 37.1853 42.8524 37.0912V38.0143C42.7168 38.0731 42.5412 38.1218 42.3257 38.1598C42.1137 38.2019 41.8929 38.2226 41.6634 38.2226C40.5023 38.2226 39.9217 37.6112 39.9217 36.387V33.2793H39.1344V32.7373L39.9791 32.2887L40.3963 31.0686H41.1524V32.3508H42.795V33.2793H41.1524V36.3663C41.1524 36.662 41.2254 36.8809 41.3714 37.0231C41.5209 37.1626 41.7156 37.232 41.9555 37.232ZM46.195 38.2226C45.298 38.2226 44.5959 37.9622 44.0882 37.4403C43.5842 36.9157 43.3321 36.1941 43.3321 35.2763C43.3321 34.3345 43.5668 33.5936 44.0361 33.055C44.5054 32.5163 45.1503 32.2467 45.9708 32.2467C46.7321 32.2467 47.3335 32.4776 47.775 32.9402C48.2165 33.4027 48.4373 34.0389 48.4373 34.8492V35.5113H44.594C44.6115 36.0706 44.7627 36.5018 45.0477 36.8042C45.3328 37.1032 45.7344 37.2527 46.2523 37.2527C46.593 37.2527 46.9094 37.2214 47.2014 37.1586C47.4969 37.0932 47.8133 36.9851 48.1505 36.8356V37.8314C47.8515 37.9743 47.549 38.0751 47.2431 38.1338C46.9372 38.1932 46.5878 38.2226 46.195 38.2226ZM45.9708 33.1751C45.5814 33.1751 45.2685 33.2986 45.0321 33.5449C44.7992 33.7919 44.6601 34.1517 44.6149 34.6249H47.2327C47.2258 34.1483 47.111 33.7885 46.8886 33.5449C46.666 33.2986 46.3601 33.1751 45.9708 33.1751ZM53.8813 38.2226C53.1617 38.2226 52.6003 37.9622 52.197 37.4403C51.7937 36.919 51.5921 36.1874 51.5921 35.245C51.5921 34.2998 51.7955 33.5643 52.2022 33.0396C52.6125 32.511 53.1791 32.2467 53.9022 32.2467C54.6601 32.2467 55.2372 32.5264 55.6334 33.0864H55.6961C55.6369 32.6725 55.6073 32.3461 55.6073 32.1059V30.0046H56.838V38.1184H55.8785L55.6648 37.3622H55.6073C55.2145 37.9362 54.6392 38.2226 53.8813 38.2226ZM54.2099 37.232C54.7139 37.232 55.0807 37.0912 55.3101 36.8095C55.5396 36.5245 55.6578 36.064 55.6648 35.4279V35.2557C55.6648 34.5288 55.5465 34.0128 55.3101 33.7071C55.0738 33.4007 54.7035 33.2479 54.1994 33.2479C53.7683 33.2479 53.4363 33.4234 53.2034 33.7745C52.9705 34.1223 52.854 34.6196 52.854 35.2663C52.854 35.9058 52.967 36.3944 53.193 36.7314C53.419 37.0652 53.7579 37.232 54.2099 37.232ZM60.7751 38.2226C59.8782 38.2226 59.1759 37.9622 58.6684 37.4403C58.1643 36.9157 57.9123 36.1941 57.9123 35.2763C57.9123 34.3345 58.1469 33.5936 58.6163 33.055C59.0856 32.5163 59.7304 32.2467 60.5509 32.2467C61.3122 32.2467 61.9136 32.4776 62.3551 32.9402C62.7966 33.4027 63.0174 34.0389 63.0174 34.8492V35.5113H59.1742C59.1915 36.0706 59.3428 36.5018 59.6279 36.8042C59.913 37.1032 60.3144 37.2527 60.8325 37.2527C61.1731 37.2527 61.4895 37.2214 61.7815 37.1586C62.077 37.0932 62.3933 36.9851 62.7306 36.8356V37.8314C62.4316 37.9743 62.1292 38.0751 61.8233 38.1338C61.5173 38.1932 61.1679 38.2226 60.7751 38.2226ZM60.5509 33.1751C60.1615 33.1751 59.8486 33.2986 59.6122 33.5449C59.3793 33.7919 59.2403 34.1517 59.195 34.6249H61.8128C61.8058 34.1483 61.6911 33.7885 61.4686 33.5449C61.2462 33.2986 60.9402 33.1751 60.5509 33.1751ZM67.7419 38.1184H66.5164V30.0046H67.7419V38.1184ZM74.2811 35.2243C74.2811 36.1668 74.0395 36.9016 73.5562 37.4303C73.073 37.9582 72.4002 38.2226 71.5378 38.2226C70.9991 38.2226 70.5232 38.1011 70.1094 37.8575C69.6956 37.6145 69.3772 37.2647 69.1549 36.8095C68.9326 36.3543 68.8212 35.8257 68.8212 35.2243C68.8212 34.2892 69.0615 33.5589 69.5407 33.0343C70.0206 32.509 70.6968 32.2467 71.5692 32.2467C72.4035 32.2467 73.0643 32.5163 73.5509 33.055C74.0375 33.5903 74.2811 34.3132 74.2811 35.2243ZM70.0834 35.2243C70.0834 36.5559 70.5753 37.2214 71.5591 37.2214C72.5323 37.2214 73.0189 36.5559 73.0189 35.2243C73.0189 33.9067 72.529 33.2479 71.5485 33.2479C71.0338 33.2479 70.6601 33.4181 70.4271 33.7592C70.1982 34.0996 70.0834 34.5882 70.0834 35.2243ZM74.771 40.6842C74.4026 40.6842 74.0969 40.6408 73.8533 40.5534V39.5836C74.0895 39.6463 74.3312 39.6777 74.5781 39.6777C75.0994 39.6777 75.3604 39.382 75.3604 38.7913V32.3508H76.5859V38.8747C76.5859 39.4687 76.4297 39.9193 76.1167 40.225C75.8069 40.5314 75.3584 40.6842 74.771 40.6842ZM75.2877 30.823C75.2877 30.604 75.3464 30.4358 75.4645 30.317C75.5867 30.1989 75.7582 30.1401 75.9812 30.1401C76.1968 30.1401 76.3636 30.1989 76.4818 30.317C76.6032 30.4358 76.664 30.604 76.664 30.823C76.664 31.0319 76.6032 31.1967 76.4818 31.3182C76.3636 31.437 76.1968 31.4958 75.9812 31.4958C75.7582 31.4958 75.5867 31.437 75.4645 31.3182C75.3464 31.1967 75.2877 31.0319 75.2877 30.823ZM81.618 38.1184L81.373 37.3155H81.331C81.0533 37.6666 80.7729 37.9062 80.4913 38.035C80.2103 38.1598 79.8485 38.2226 79.4073 38.2226C78.8406 38.2226 78.3967 38.0697 78.077 37.764C77.7606 37.4576 77.6024 37.0251 77.6024 36.4651C77.6024 35.8711 77.8234 35.4225 78.2652 35.1202C78.7064 34.8178 79.3793 34.6523 80.283 34.6249L81.2789 34.5935V34.2858C81.2789 33.9174 81.1921 33.6424 81.0186 33.4615C80.8477 33.2773 80.582 33.1851 80.2203 33.1851C79.9253 33.1851 79.6416 33.2285 79.3706 33.316C79.0996 33.4027 78.8386 33.5055 78.5883 33.6237L78.1918 32.7473C78.5049 32.5838 78.8473 32.4603 79.2191 32.3768C79.5915 32.2901 79.9426 32.2467 80.2723 32.2467C81.0059 32.2467 81.5586 32.4069 81.931 32.7266C82.3061 33.0463 82.4937 33.5489 82.4937 34.2337V38.1184H81.618ZM79.7931 37.2841C80.2376 37.2841 80.5941 37.1606 80.8617 36.9137C81.1327 36.6634 81.2689 36.3143 81.2689 35.8657V35.3651L80.528 35.3965C79.9513 35.4172 79.5301 35.5146 79.2665 35.6882C79.0055 35.859 78.8753 36.1214 78.8753 36.4758C78.8753 36.7328 78.9514 36.933 79.1043 37.0759C79.2578 37.2147 79.4867 37.2841 79.7931 37.2841ZM89.5022 38.1184H88.2773V33.1958C88.2773 32.6085 88.2907 32.1426 88.3187 31.7981C88.2386 31.8816 88.1398 31.9737 88.0217 32.0745C87.9069 32.1753 87.5178 32.4956 86.8536 33.0343L86.2382 32.2574L88.4803 30.4946H89.5022V38.1184Z" fill="#A4A4A4"/>
<path d="M180.294 38.1184H179.449V32.6845C179.449 32.2327 179.463 31.8055 179.491 31.4023C179.418 31.4751 179.337 31.5512 179.246 31.6313C179.156 31.7114 178.742 32.0504 178.005 32.6485L177.546 32.0538L179.564 30.4946H180.294V38.1184ZM185.389 30.3851C186.084 30.3851 186.635 30.5466 187.042 30.8704C187.449 31.1934 187.652 31.6399 187.652 32.21C187.652 32.5858 187.536 32.9282 187.303 33.2379C187.07 33.5469 186.698 33.8286 186.187 34.0822C186.806 34.3779 187.245 34.689 187.506 35.016C187.767 35.3391 187.898 35.7142 187.898 36.1421C187.898 36.7748 187.677 37.2808 187.235 37.6592C186.794 38.035 186.189 38.2226 185.421 38.2226C184.607 38.2226 183.981 38.0457 183.543 37.6906C183.105 37.3328 182.886 36.8269 182.886 36.1734C182.886 35.301 183.418 34.6209 184.481 34.1343C184.002 33.8633 183.658 33.5716 183.449 33.2586C183.241 32.9422 183.136 32.5891 183.136 32.2C183.136 31.6473 183.339 31.2074 183.747 30.8804C184.156 30.55 184.704 30.3851 185.389 30.3851ZM183.741 36.1941C183.741 36.6113 183.885 36.9363 184.174 37.1693C184.466 37.4022 184.875 37.5191 185.399 37.5191C185.917 37.5191 186.321 37.3969 186.609 37.1539C186.898 36.9103 187.042 36.5766 187.042 36.1527C187.042 35.815 186.906 35.5166 186.635 35.2556C186.364 34.9913 185.891 34.7357 185.217 34.4887C184.699 34.7117 184.323 34.9586 184.09 35.2296C183.857 35.4973 183.741 35.819 183.741 36.1941ZM185.379 31.0893C184.944 31.0893 184.604 31.1934 184.357 31.4023C184.11 31.6106 183.986 31.8889 183.986 32.2367C183.986 32.5564 184.089 32.8307 184.294 33.0603C184.499 33.2899 184.878 33.5189 185.431 33.7485C185.928 33.5402 186.279 33.316 186.484 33.0757C186.693 32.8361 186.797 32.5564 186.797 32.2367C186.797 31.8849 186.67 31.6072 186.416 31.4023C186.166 31.1934 185.82 31.0893 185.379 31.0893ZM195.37 37.3522H195.323C194.923 37.9322 194.325 38.2226 193.529 38.2226C192.781 38.2226 192.199 37.9669 191.782 37.4563C191.368 36.945 191.162 36.2188 191.162 35.2763C191.162 34.3345 191.37 33.6023 191.788 33.081C192.205 32.5597 192.785 32.2988 193.529 32.2988C194.305 32.2988 194.899 32.5804 195.313 33.1438H195.381L195.344 32.7319L195.323 32.3301V30.0046H196.188V38.1184H195.485L195.37 37.3522ZM193.638 37.4977C194.23 37.4977 194.657 37.3382 194.921 37.0184C195.189 36.6947 195.323 36.1754 195.323 35.4592V35.2763C195.323 34.4667 195.187 33.8893 194.916 33.5449C194.648 33.1978 194.219 33.0236 193.628 33.0236C193.121 33.0236 192.731 33.2219 192.46 33.6183C192.192 34.0108 192.059 34.5675 192.059 35.287C192.059 36.0172 192.192 36.5679 192.46 36.9397C192.728 37.3121 193.121 37.4977 193.638 37.4977ZM200.11 38.2226C199.265 38.2226 198.598 37.9656 198.107 37.451C197.621 36.9363 197.378 36.2222 197.378 35.3077C197.378 34.3866 197.603 33.6544 198.055 33.1124C198.511 32.5704 199.121 32.2988 199.886 32.2988C200.602 32.2988 201.168 32.535 201.585 33.0083C202.003 33.4775 202.212 34.0983 202.212 34.8698V35.4172H198.274C198.291 36.088 198.46 36.5973 198.78 36.945C199.104 37.2928 199.557 37.4663 200.141 37.4663C200.756 37.4663 201.365 37.3382 201.967 37.0805V37.8528C201.66 37.9843 201.37 38.0784 201.095 38.1338C200.825 38.1932 200.496 38.2226 200.11 38.2226ZM199.875 33.0236C199.416 33.0236 199.05 33.1731 198.775 33.4722C198.504 33.7712 198.344 34.185 198.295 34.713H201.283C201.283 34.1677 201.162 33.7505 200.918 33.4615C200.675 33.1698 200.327 33.0236 199.875 33.0236ZM209.689 37.3522H209.642C209.243 37.9322 208.645 38.2226 207.848 38.2226C207.101 38.2226 206.519 37.9669 206.102 37.4563C205.688 36.945 205.481 36.2188 205.481 35.2763C205.481 34.3345 205.69 33.6023 206.107 33.081C206.524 32.5597 207.105 32.2988 207.848 32.2988C208.624 32.2988 209.218 32.5804 209.632 33.1438H209.7L209.663 32.7319L209.642 32.3301V30.0046H210.508V38.1184H209.804L209.689 37.3522ZM207.958 37.4977C208.549 37.4977 208.976 37.3382 209.241 37.0184C209.508 36.6947 209.642 36.1754 209.642 35.4592V35.2763C209.642 34.4667 209.507 33.8893 209.235 33.5449C208.968 33.1978 208.538 33.0236 207.948 33.0236C207.44 33.0236 207.051 33.2219 206.78 33.6183C206.512 34.0108 206.378 34.5675 206.378 35.287C206.378 36.0172 206.512 36.5679 206.78 36.9397C207.047 37.3121 207.44 37.4977 207.958 37.4977ZM214.43 38.2226C213.585 38.2226 212.917 37.9656 212.427 37.451C211.94 36.9363 211.697 36.2222 211.697 35.3077C211.697 34.3866 211.923 33.6544 212.374 33.1124C212.83 32.5704 213.44 32.2988 214.205 32.2988C214.922 32.2988 215.488 32.535 215.905 33.0083C216.322 33.4775 216.531 34.0983 216.531 34.8698V35.4172H212.594C212.611 36.088 212.78 36.5973 213.099 36.945C213.423 37.2928 213.876 37.4663 214.46 37.4663C215.076 37.4663 215.684 37.3382 216.286 37.0805V37.8528C215.979 37.9843 215.69 38.0784 215.415 38.1338C215.144 38.1932 214.815 38.2226 214.43 38.2226ZM214.195 33.0236C213.736 33.0236 213.369 33.1731 213.095 33.4722C212.823 33.7712 212.663 34.185 212.615 34.713H215.602C215.602 34.1677 215.481 33.7505 215.238 33.4615C214.994 33.1698 214.647 33.0236 214.195 33.0236ZM221.333 38.1184H217.188V37.5291L220.306 33.0757H217.381V32.4035H221.255V33.0757L218.179 37.4456H221.333V38.1184Z" fill="#666666"/>
<path d="M151.066 38.1184H149.455V34.8278H146.435V38.1184H144.819V30.4946H146.435V33.4828H149.455V30.4946H151.066V38.1184ZM153.804 35.1929C153.804 35.7703 153.898 36.2061 154.085 36.5018C154.277 36.7975 154.586 36.945 155.014 36.945C155.437 36.945 155.742 36.7988 155.926 36.5072C156.114 36.2115 156.208 35.7736 156.208 35.1929C156.208 34.6162 156.114 34.183 155.926 33.8947C155.739 33.6063 155.431 33.4615 155.003 33.4615C154.579 33.4615 154.273 33.6063 154.085 33.8947C153.898 34.1797 153.804 34.6122 153.804 35.1929ZM157.835 35.1929C157.835 36.1421 157.584 36.8843 157.083 37.4196C156.583 37.9549 155.886 38.2226 154.993 38.2226C154.433 38.2226 153.94 38.1011 153.512 37.8575C153.084 37.6112 152.756 37.2581 152.526 36.7988C152.297 36.3403 152.182 35.805 152.182 35.1929C152.182 34.2404 152.431 33.5002 152.928 32.9716C153.425 32.4429 154.124 32.1793 155.024 32.1793C155.584 32.1793 156.078 32.3007 156.505 32.5437C156.933 32.7873 157.261 33.1364 157.491 33.5923C157.72 34.0475 157.835 34.5815 157.835 35.1929ZM158.346 40.6842C157.939 40.6842 157.589 40.6408 157.298 40.5534V39.3019C157.541 39.3679 157.79 39.4013 158.043 39.4013C158.311 39.4013 158.506 39.3266 158.627 39.1771C158.752 39.0275 158.815 38.8066 158.815 38.5149V32.2887H160.405V38.7492C160.405 39.368 160.227 39.8445 159.868 40.1783C159.51 40.5153 159.003 40.6842 158.346 40.6842ZM158.747 30.7816C158.747 30.2636 159.036 30.0046 159.613 30.0046C160.19 30.0046 160.478 30.2636 160.478 30.7816C160.478 31.0285 160.405 31.2214 160.259 31.3603C160.117 31.4958 159.902 31.5639 159.613 31.5639C159.036 31.5639 158.747 31.3029 158.747 30.7816ZM164.16 33.3106C163.823 33.3106 163.559 33.4181 163.368 33.6337C163.176 33.846 163.067 34.1483 163.039 34.5415H165.271C165.264 34.1483 165.161 33.846 164.963 33.6337C164.765 33.4181 164.497 33.3106 164.16 33.3106ZM164.384 38.2226C163.446 38.2226 162.712 37.9636 162.184 37.4456C161.655 36.9277 161.391 36.1941 161.391 35.245C161.391 34.2685 161.634 33.5142 162.121 32.9822C162.611 32.4469 163.288 32.1793 164.149 32.1793C164.974 32.1793 165.615 32.4136 166.074 32.8828C166.533 33.352 166.762 34.0008 166.762 34.8278V35.6001H163.003C163.02 36.0519 163.153 36.4044 163.404 36.658C163.654 36.9123 164.005 37.0391 164.457 37.0391C164.808 37.0391 165.141 37.0024 165.454 36.9297C165.766 36.8562 166.093 36.7401 166.433 36.5799V37.8107C166.156 37.9496 165.858 38.0524 165.542 38.1184C165.225 38.1879 164.84 38.2226 164.384 38.2226ZM169.839 34.2177C169.839 33.6824 169.968 33.2739 170.225 32.9923C170.482 32.7072 170.852 32.5651 171.335 32.5651C171.812 32.5651 172.18 32.7072 172.441 32.9923C172.702 33.2773 172.832 33.6858 172.832 34.2177C172.832 34.7464 172.7 35.1549 172.435 35.4432C172.175 35.7316 171.808 35.8764 171.335 35.8764C170.855 35.8764 170.486 35.7316 170.225 35.4432C169.968 35.1549 169.839 34.7464 169.839 34.2177Z" fill="#666666"/>
<path d="M230.237 32.505L233.301 35.562L236.365 32.505L237.306 33.4461L233.301 37.451L229.296 33.4461L230.237 32.505Z" fill="#666666"/>
</g>
<defs>
<filter id="filter0_d" x="79.7896" y="-23.9492" width="30.6892" height="30.6892" filterUnits="userSpaceOnUse" color-interpolation-filters="sRGB">
<feFlood flood-opacity="0" result="BackgroundImageFix"/>
<feColorMatrix in="SourceAlpha" type="matrix" values="0 0 0 0 0 0 0 0 0 0 0 0 0 0 0 0 0 0 127 0"/>
<feOffset/>
<feGaussianBlur stdDeviation="3"/>
<feColorMatrix type="matrix" values="0 0 0 0 0 0 0 0 0 0 0 0 0 0 0 0 0 0 0.15 0"/>
<feBlend mode="normal" in2="BackgroundImageFix" result="effect1_dropShadow"/>
<feBlend mode="normal" in="SourceGraphic" in2="effect1_dropShadow" result="shape"/>
</filter>
</defs>
</svg>
