<svg width="56" height="56" viewBox="0 0 56 56" fill="none" xmlns="http://www.w3.org/2000/svg">
<path opacity="0.5" d="M16.2727 17.6364C16.2727 21.8538 12.8538 25.2727 8.63636 25.2727C4.41892 25.2727 1 21.8538 1 17.6364C1 13.4189 4.41892 10 8.63636 10C12.8538 10 16.2727 13.4189 16.2727 17.6364Z" fill="#D97B60"/>
<path opacity="0.5" d="M35.9085 28.5455C35.9085 32.763 32.4896 36.1819 28.2721 36.1819C24.0547 36.1819 20.6357 32.763 20.6357 28.5455C20.6357 24.3281 24.0547 20.9092 28.2721 20.9092C32.4896 20.9092 35.9085 24.3281 35.9085 28.5455Z" fill="#C6CCBE"/>
<path opacity="0.5" d="M54.4539 38.3635C54.4539 42.581 51.035 45.9999 46.8175 45.9999C42.6001 45.9999 39.1812 42.581 39.1812 38.3635C39.1812 34.1461 42.6001 30.7272 46.8175 30.7272C51.035 30.7272 54.4539 34.1461 54.4539 38.3635Z" fill="#D97B60"/>
</svg>
