<svg width="54" height="36" viewBox="0 0 54 36" fill="none" xmlns="http://www.w3.org/2000/svg">
<path opacity="0.5" d="M15.2727 7.63636C15.2727 11.8538 11.8538 15.2727 7.63636 15.2727C3.41892 15.2727 0 11.8538 0 7.63636C0 3.41892 3.41892 0 7.63636 0C11.8538 0 15.2727 3.41892 15.2727 7.63636Z" fill="#D97B60"/>
<path opacity="0.5" d="M34.9085 18.5455C34.9085 22.763 31.4895 26.1819 27.2721 26.1819C23.0547 26.1819 19.6357 22.763 19.6357 18.5455C19.6357 14.3281 23.0547 10.9092 27.2721 10.9092C31.4895 10.9092 34.9085 14.3281 34.9085 18.5455Z" fill="#C6CCBE"/>
<path opacity="0.5" d="M53.4539 28.3635C53.4539 32.581 50.035 35.9999 45.8175 35.9999C41.6001 35.9999 38.1812 32.581 38.1812 28.3635C38.1812 24.1461 41.6001 20.7272 45.8175 20.7272C50.035 20.7272 53.4539 24.1461 53.4539 28.3635Z" fill="#D97B60"/>
</svg>
