<svg width="56" height="56" viewBox="0 0 56 56" fill="none" xmlns="http://www.w3.org/2000/svg">
<path opacity="0.5" d="M54.0003 27.5356C54.0003 34.4588 48.18 40.0712 41.0004 40.0712C33.8207 40.0712 28.0005 34.4588 28.0005 27.5356C28.0005 20.6124 33.8207 15 41.0004 15C48.18 15 54.0003 20.6124 54.0003 27.5356Z" fill="#D97B60"/>
<path opacity="0.5" fill-rule="evenodd" clip-rule="evenodd" d="M14.9999 39.2878C21.7308 39.2878 27.1873 34.0261 27.1873 27.5356C27.1873 21.0451 21.7308 15.7835 14.9999 15.7835C8.26898 15.7835 2.81249 21.0451 2.81249 27.5356C2.81249 34.0261 8.26898 39.2878 14.9999 39.2878ZM14.9999 40.0712C22.1795 40.0712 27.9998 34.4588 27.9998 27.5356C27.9998 20.6124 22.1795 15 14.9999 15C7.82025 15 2 20.6124 2 27.5356C2 34.4588 7.82025 40.0712 14.9999 40.0712Z" fill="#D97B60"/>
<path opacity="0.3" d="M15 15H40.9998V40.0712H15V15Z" fill="#D97B60"/>
</svg>
