<svg width="67" height="32" viewBox="0 0 67 32" fill="none" xmlns="http://www.w3.org/2000/svg">
<path opacity="0.5" d="M66.3707 16C66.3707 24.8366 58.942 32 49.7781 32C40.6143 32 33.1855 24.8366 33.1855 16C33.1855 7.16344 40.6143 0 49.7781 0C58.942 0 66.3707 7.16344 66.3707 16Z" fill="#D97B60"/>
<path opacity="0.5" fill-rule="evenodd" clip-rule="evenodd" d="M16.5926 31C25.1837 31 32.1481 24.2843 32.1481 16C32.1481 7.71573 25.1837 1 16.5926 1C8.0015 1 1.03704 7.71573 1.03704 16C1.03704 24.2843 8.0015 31 16.5926 31ZM16.5926 32C25.7564 32 33.1852 24.8366 33.1852 16C33.1852 7.16344 25.7564 0 16.5926 0C7.42876 0 0 7.16344 0 16C0 24.8366 7.42876 32 16.5926 32Z" fill="#D97B60"/>
<path opacity="0.3" d="M16.5928 0H49.778V32H16.5928V0Z" fill="#D97B60"/>
</svg>
