<svg width="47" height="48" viewBox="0 0 47 48" fill="none" xmlns="http://www.w3.org/2000/svg">
<path opacity="0.5" d="M20.2667 20.8001C20.2667 26.3966 15.7298 30.9334 10.1333 30.9334C4.53685 30.9334 0 26.3966 0 20.8001C0 15.2036 4.53685 10.6667 10.1333 10.6667C15.7298 10.6667 20.2667 15.2036 20.2667 20.8001Z" fill="#C6CCBE"/>
<path opacity="0.5" d="M43.7337 8.53333C43.7337 13.2462 39.9132 17.0667 35.2003 17.0667C30.4875 17.0667 26.667 13.2462 26.667 8.53333C26.667 3.8205 30.4875 0 35.2003 0C39.9132 0 43.7337 3.8205 43.7337 8.53333Z" fill="#C6CCBE"/>
<path opacity="0.3" d="M46.9333 35.2C46.9333 42.2693 40.9637 48 33.5999 48C26.2361 48 20.2666 42.2693 20.2666 35.2C20.2666 28.1308 26.2361 22.4 33.5999 22.4C40.9637 22.4 46.9333 28.1308 46.9333 35.2Z" fill="#D97B60"/>
</svg>
