<svg width="56" height="56" viewBox="0 0 56 56" fill="none" xmlns="http://www.w3.org/2000/svg">
<path opacity="0.5" d="M25.2667 24.8001C25.2667 30.3966 20.7298 34.9334 15.1333 34.9334C9.53685 34.9334 5 30.3966 5 24.8001C5 19.2036 9.53685 14.6667 15.1333 14.6667C20.7298 14.6667 25.2667 19.2036 25.2667 24.8001Z" fill="#C6CCBE"/>
<path opacity="0.5" d="M48.7337 12.5333C48.7337 17.2462 44.9132 21.0667 40.2003 21.0667C35.4875 21.0667 31.667 17.2462 31.667 12.5333C31.667 7.8205 35.4875 4 40.2003 4C44.9132 4 48.7337 7.8205 48.7337 12.5333Z" fill="#C6CCBE"/>
<path opacity="0.3" d="M51.9333 39.2C51.9333 46.2693 45.9637 52 38.5999 52C31.2361 52 25.2666 46.2693 25.2666 39.2C25.2666 32.1308 31.2361 26.4 38.5999 26.4C45.9637 26.4 51.9333 32.1308 51.9333 39.2Z" fill="#D97B60"/>
</svg>
